<svg width="176" height="88" viewBox="0 0 176 88" fill="none" xmlns="http://www.w3.org/2000/svg">
<path d="M42.9169 28.9143H30.1714V59.1709L42.9169 28.9143Z" fill="#C4C4C4"/>
<path d="M51.8845 28.9142H64.6134V59.1708L51.8845 28.9142Z" fill="#C4C4C4"/>
<path d="M47.4007 40.0659L55.513 59.171H50.1906L47.7661 53.0883H41.8292L47.4007 40.0659Z" fill="#C4C4C4"/>
<path d="M85.4065 48.1557L86.9094 52.4333C86.9597 52.5405 87.0345 52.5899 87.1671 52.5899H90.0567C90.2144 52.5899 90.2396 52.5157 90.2144 52.3591L84.2443 35.8997C84.2191 35.7679 84.1946 35.7432 84.0614 35.7432H80.4747C80.3748 35.7432 80.317 35.8173 80.317 35.9244C80.2673 36.7899 80.1925 37.0536 80.0844 37.3091L74.7623 52.3344C74.7371 52.5157 74.795 52.5899 74.9446 52.5899H77.5267C77.6845 52.5899 77.7593 52.5405 77.8178 52.3838L79.2377 48.1557H85.4065ZM80.0592 45.3616C80.8399 43.0209 81.8695 40.0208 82.285 38.3064H82.3095C82.8243 40.1032 84.0368 43.6638 84.585 45.3616H80.0592Z" fill="#C4C4C4"/>
<path d="M97.8893 52.8454C99.4419 52.8454 101.094 52.5651 102.771 51.8481C102.905 51.7986 102.929 51.7409 102.929 51.6173C102.88 51.1558 102.822 50.4882 102.822 49.9771V34.4821C102.822 34.3831 102.822 34.3337 102.697 34.3337H99.8819C99.7744 34.3337 99.7241 34.3831 99.7241 34.515V39.7652C99.2841 39.7158 98.9768 39.6911 98.6116 39.6911C94.0701 39.6911 91.2799 42.6664 91.2799 46.3836C91.2799 50.6942 94.1443 52.8454 97.8893 52.8454ZM99.7241 49.9771C99.2596 50.1255 98.7448 50.1832 98.2212 50.1832C96.162 50.1832 94.4768 49.0293 94.4768 46.227C94.4768 43.7461 96.2123 42.279 98.5122 42.279C98.9768 42.279 99.3841 42.3285 99.7241 42.4604V49.9771Z" fill="#C4C4C4"/>
<path d="M111.91 39.691C108.032 39.691 105.632 42.6417 105.632 46.2847C105.632 49.5403 107.542 52.8453 111.851 52.8453C115.496 52.8453 118.054 50.1832 118.054 46.2022C118.054 42.6912 115.887 39.691 111.91 39.691ZM111.752 42.2791C113.944 42.2791 114.874 44.15 114.874 46.2847C114.874 48.9221 113.504 50.2326 111.91 50.2326C109.942 50.2326 108.779 48.5924 108.779 46.227C108.779 43.7955 110.016 42.2791 111.752 42.2791Z" fill="#C4C4C4"/>
<path d="M120.964 34.3337C120.856 34.3337 120.781 34.3831 120.781 34.515V52.0541C120.781 52.1283 120.856 52.2602 120.964 52.2849C122.201 52.664 123.496 52.8454 124.833 52.8454C128.661 52.8454 132.381 50.4882 132.381 45.7407C132.381 42.3038 130.006 39.6911 126.286 39.6911C125.431 39.6911 124.634 39.8229 123.937 40.0537L123.903 34.5397C123.903 34.3584 123.853 34.3337 123.671 34.3337H120.964ZM129.201 46.0539C129.201 48.8974 127.241 50.2326 125.124 50.2326C124.683 50.2326 124.294 50.2079 123.937 50.1008V42.6169C124.343 42.4604 124.833 42.3285 125.738 42.3285C127.781 42.3285 129.201 43.6142 129.201 46.0539Z" fill="#C4C4C4"/>
<path d="M142.886 46.977C144.148 46.977 145.185 46.9523 145.543 46.8698C145.676 46.8451 145.725 46.7957 145.751 46.6885C145.825 46.4083 145.858 45.8231 145.858 45.1061C145.858 42.6664 144.38 39.691 140.56 39.691C136.658 39.691 134.491 42.8477 134.491 46.4083C134.491 49.565 136.169 52.8453 140.868 52.8453C142.628 52.8453 143.766 52.5651 144.745 52.1036C144.845 52.0541 144.895 51.9717 144.895 51.8233V49.6887C144.895 49.565 144.82 49.5403 144.745 49.5897C143.766 50.0018 142.703 50.2079 141.54 50.2079C138.909 50.2079 137.713 48.7655 137.638 46.977H142.886ZM137.638 44.7681C137.846 43.5153 138.643 42.1554 140.428 42.1554C142.396 42.1554 142.911 43.7955 142.911 44.5373C142.911 44.5621 142.911 44.6692 142.911 44.7434C142.803 44.7681 142.471 44.7681 141.491 44.7681H137.638Z" fill="#C4C4C4"/>
</svg>
