<svg width="176" height="88" viewBox="0 0 176 88" fill="none" xmlns="http://www.w3.org/2000/svg">
<g clip-path="url(#clip0_2063_28461)">
<path d="M46.8276 23L32.2488 23.0244L17.6705 23.0496L17.6741 30.535C17.6774 37.5876 17.6884 38.0413 17.8561 38.3675C18.0754 38.7941 18.6721 39.1506 19.1704 39.1527C19.4158 39.1538 21.3059 38.5077 24.6787 37.2698C24.6787 37.2698 28.0358 35.7854 29.8143 35.3852C30.1008 35.3208 30.6916 35.3053 30.6916 35.3053C30.9636 35.2977 31.6489 35.4236 32.1047 35.642C33.2277 36.1802 33.9474 37.1432 34.1463 38.3745C34.214 38.7934 34.249 43.405 34.2495 52.0037L34.2504 65H40.539H46.8277V43.9996L46.8276 23ZM5.00038 23.0009V44.0004V65L16.4326 64.9759L27.8639 64.9505L27.8888 60.0617C27.9027 57.3727 27.8765 55.1346 27.8307 55.0887C27.7845 55.0424 25.0312 55.9963 21.6632 57.2258C15.9537 59.3101 15.5365 59.4477 14.896 59.4525C13.6876 59.4616 12.6055 58.8973 11.9476 57.9143C11.2963 56.9414 11.3372 58.1618 11.3372 39.7239V23.0012H8.16862H5L5.00038 23.0009ZM27.5439 42.1891C27.3381 42.1889 17.9666 45.6004 17.797 45.7372C17.7039 45.8124 17.6757 46.6152 17.6757 49.1469C17.6757 52.1541 17.6908 52.4674 17.8404 52.5514C17.931 52.6023 18.0514 52.6294 18.1083 52.6115C19.0428 52.3177 27.0033 49.362 27.2257 49.2262C27.3979 49.121 27.6169 48.8553 27.7216 48.6238C27.8921 48.2466 27.9086 47.9591 27.9106 45.389C27.9127 42.5191 27.8752 42.1895 27.5439 42.1891Z" fill="#B7B6C3"/>
<path d="M82.5085 43.7063C80.5145 43.2531 79.0267 41.7631 78.4516 39.6437C78.1933 38.6916 78.2149 36.5259 78.493 35.5025C79.0816 33.3364 80.5064 31.8661 82.5066 31.361C82.9684 31.2444 83.4276 31.2125 84.2128 31.2428C85.1773 31.2799 85.3592 31.3175 85.9921 31.6105C87.2141 32.1762 88.0786 33.2844 88.4204 34.7233C88.5806 35.3979 88.6448 37.2621 88.5151 37.4728C88.4628 37.5578 87.4148 37.5878 84.5014 37.5878H80.5584V38.1057C80.5584 39.0882 81.0153 40.3443 81.6273 41.0442C82.0468 41.5239 82.9408 41.9679 83.7341 42.0905C84.6517 42.2324 85.783 42.0325 86.7204 41.563C87.1009 41.3724 87.4506 41.2403 87.4975 41.2693C87.6605 41.3705 88.176 42.5041 88.1226 42.6439C88.0526 42.8271 86.8148 43.4115 86.0671 43.6143C85.242 43.8381 83.3083 43.8881 82.5085 43.7063ZM86.3326 35.3853C86.2952 34.5724 85.8734 33.6826 85.3423 33.2963C84.2543 32.505 82.4215 32.7204 81.5256 33.7449C81.1264 34.2015 80.7402 35.0455 80.6783 35.5966L80.6303 36.0246L83.495 35.9987L86.3597 35.9727L86.3326 35.3853ZM123.019 43.7157C120.178 43.0568 118.681 40.9687 118.681 37.665C118.681 36.232 118.86 35.3664 119.387 34.2593C120.097 32.7654 121.498 31.6395 123.048 31.3163C123.868 31.1455 125.535 31.2436 126.188 31.5011C127.364 31.9645 128.323 33.0364 128.727 34.3383C128.941 35.0257 129.095 36.864 128.979 37.3298L128.914 37.5879H124.964C121.399 37.5879 121.009 37.6035 120.953 37.7479C120.864 37.9815 121.079 39.2382 121.318 39.8797C121.587 40.6006 122.41 41.504 123.05 41.7805C124.362 42.3473 125.965 42.2247 127.341 41.4524C127.578 41.3192 127.81 41.2102 127.857 41.2102C127.903 41.2102 128.094 41.5161 128.282 41.89C128.605 42.5344 128.614 42.5787 128.454 42.7392C128.229 42.9654 127.245 43.407 126.526 43.6047C125.719 43.8266 123.765 43.8885 123.019 43.7157ZM126.751 35.4036C126.664 34.3208 126.173 33.4904 125.359 33.0522C125.049 32.8848 124.801 32.8418 124.141 32.8408C123.187 32.8395 122.612 33.0597 122.021 33.6525C121.623 34.0522 121.154 35.0055 121.061 35.6053L120.996 36.0214H123.898H126.8L126.751 35.4036ZM134.602 43.7059C133.603 43.4881 132.748 43.018 132.035 42.2958C130.84 41.0841 130.358 39.7458 130.358 37.637C130.358 35.4521 130.87 34.0527 132.132 32.7884C132.926 31.9924 133.559 31.6243 134.591 31.3588C135.462 31.1348 137.152 31.213 137.888 31.5116C139.581 32.1982 140.546 33.7641 140.678 36.0407C140.714 36.6719 140.697 37.15 140.631 37.3177L140.526 37.5859L136.599 37.6115L132.672 37.637L132.642 38.0407C132.573 39.0012 133.11 40.4271 133.806 41.1258C135.024 42.3483 137.387 42.4695 139.118 41.3985C139.285 41.295 139.466 41.2104 139.519 41.2104C139.648 41.2104 140.228 42.3117 140.228 42.5568C140.228 42.8837 138.749 43.5206 137.456 43.7507C136.679 43.8889 135.344 43.8678 134.602 43.7059ZM138.473 35.6402C138.473 35.064 138.126 34.0603 137.784 33.6446C137.293 33.0483 136.81 32.8495 135.84 32.8443C135.124 32.8404 134.936 32.877 134.452 33.1157C133.576 33.5475 132.896 34.5412 132.752 35.5993L132.694 36.0215H135.583H138.473L138.473 35.6402ZM108.951 43.5597C108.31 43.4232 107.587 42.9804 107.09 42.4181C106.842 42.1375 106.068 41.0033 105.371 39.8976C104.614 38.6965 104.042 37.8861 103.951 37.8844C103.866 37.8828 103.415 38.2738 102.948 38.7533L102.098 39.6251L102.126 40.7355L102.154 41.8458L102.568 41.9195C102.796 41.9601 103.169 42.0265 103.397 42.0671L103.811 42.1409V42.8258V43.5106H100.984H98.1561V42.8253V42.14L98.6192 42.0666L99.5455 41.9198L100.009 41.8463L100.034 34.6124C100.05 29.7891 100.026 27.3383 99.9589 27.258C99.9026 27.1899 99.4777 27.1074 98.9833 27.0686L98.1074 26.9998V26.3323C98.1074 25.798 98.1401 25.6523 98.2709 25.6018C98.3608 25.5672 99.2724 25.5118 100.297 25.4787L102.159 25.4185L102.12 31.1577C102.099 34.3141 102.111 36.9726 102.146 37.0657C102.197 37.1992 102.619 36.8251 104.157 35.2829C105.227 34.2093 106.102 33.2783 106.102 33.2137C106.102 33.1475 105.901 33.0704 105.639 33.0365C104.921 32.9436 104.884 32.9023 104.884 32.1927V31.567L107.656 31.541C109.808 31.5208 110.445 31.5426 110.506 31.6389C110.64 31.8515 110.598 32.6682 110.445 32.8222C110.357 32.9106 109.992 32.9924 109.494 33.0354L108.686 33.1052L107.053 34.7309C106.155 35.6251 105.42 36.397 105.42 36.4463C105.42 36.5857 107.617 40.0004 108.216 40.7911C108.943 41.7513 109.255 41.932 110.295 41.9934L111.124 42.0423L111.209 42.7104C111.266 43.1569 111.261 43.4124 111.192 43.4809C111.057 43.6167 109.48 43.6721 108.951 43.5597ZM63.7305 43.4344C63.7007 43.3566 63.6897 43.0336 63.7061 42.7166L63.7357 42.1402L64.1257 42.0696C64.3402 42.0309 64.7683 41.9726 65.077 41.9401L65.6383 41.8811L65.6133 35.2064L65.5882 28.5318L64.7238 28.4176C64.2484 28.3549 63.8183 28.2623 63.7682 28.2119C63.718 28.1615 63.6902 27.8384 63.7063 27.4939L63.7357 26.8675L67.7332 26.8717C72.1511 26.8763 72.5567 26.9185 73.768 27.4989C75.6442 28.398 76.3785 30.7012 75.4432 32.7527C75.1382 33.4215 74.5046 34.0358 73.7449 34.3993C73.4147 34.5572 73.1445 34.7176 73.1445 34.7556C73.1445 34.7937 73.4218 34.9231 73.7607 35.0432C75.5526 35.6784 76.557 37.0633 76.557 38.8989C76.557 41.1622 75.3458 42.6144 72.9008 43.2826C72.1696 43.4825 71.8602 43.4983 67.9526 43.5357C64.3821 43.57 63.7768 43.5557 63.7305 43.4344ZM72.3157 41.5513C73.683 41.0531 74.217 40.2811 74.217 38.8028C74.217 37.2335 73.468 36.2719 71.9257 35.8609C71.2286 35.6752 68.3721 35.5677 68.0948 35.7167C67.8802 35.8321 67.8795 35.841 67.8795 38.7496C67.8795 40.3541 67.9124 41.7004 67.9527 41.7414C67.9929 41.7824 68.8813 41.7963 69.927 41.7724C71.4393 41.7378 71.9279 41.6926 72.3157 41.5513ZM71.7158 33.8364C72.4101 33.6143 72.9037 33.2464 73.2085 32.7243C73.438 32.3311 73.4837 32.1293 73.5138 31.376C73.5464 30.5591 73.5277 30.4481 73.2737 29.9522C72.7176 28.8666 71.8583 28.5613 69.4759 28.6029L67.9282 28.6299L67.9008 31.1263C67.8857 32.4994 67.899 33.7275 67.9301 33.8555L67.9869 34.0881L69.615 34.0379C70.6866 34.0048 71.4048 33.936 71.7158 33.8364ZM89.8579 43.4277C89.8296 43.3536 89.8197 43.0335 89.8361 42.7165L89.8657 42.14L90.3288 42.0666L91.2551 41.9198L91.7182 41.8463L91.7436 37.55C91.7619 34.4595 91.738 33.2162 91.6586 33.12C91.5831 33.0288 91.3124 32.9859 90.8044 32.9849C90.3954 32.9841 90.0036 32.947 89.9338 32.9026C89.8457 32.8465 89.8159 32.6307 89.8363 32.1979L89.8657 31.5741L90.207 31.5036C90.3947 31.4649 91.2941 31.4192 92.2057 31.4021L93.8632 31.371L93.8723 32.2776C93.8776 32.7762 93.9029 33.2058 93.9292 33.2321C93.9555 33.2585 94.1434 33.0374 94.3469 32.7408C94.7743 32.1177 95.461 31.5764 96.1026 31.3569C96.6242 31.1785 98.0243 31.2025 98.2142 31.3931C98.3071 31.4864 98.2939 31.6824 98.1527 32.3028C97.9155 33.346 97.8669 33.4063 97.3747 33.2688C96.501 33.0248 95.5807 33.3538 94.7201 34.2179C93.8168 35.125 93.8188 35.1153 93.818 38.6156C93.8176 40.2848 93.8519 41.705 93.8939 41.7716C93.9382 41.8416 94.3777 41.935 94.9371 41.9933C95.4687 42.0486 95.9404 42.1308 95.9853 42.1758C96.0301 42.2209 96.0536 42.5396 96.0375 42.8842L96.0081 43.5106L92.9587 43.5365C90.4425 43.5578 89.9004 43.5389 89.8579 43.4277ZM112.301 43.4048C112.216 43.1809 112.231 42.3576 112.324 42.2112C112.384 42.115 113.603 41.9012 114.119 41.896C114.16 41.8956 114.182 38.5802 114.168 34.5283L114.143 27.1615L113.314 27.0876C112.859 27.0469 112.431 26.9932 112.364 26.9683C112.187 26.9025 112.201 25.8003 112.38 25.6506C112.475 25.5722 113.133 25.5291 114.434 25.5162L116.35 25.4972L116.34 33.689L116.33 41.8808L116.894 41.9426C117.204 41.9766 117.612 42.0366 117.799 42.0758L118.141 42.1473L118.169 42.8537L118.198 43.5601H115.279C112.708 43.5601 112.353 43.5417 112.301 43.4052L112.301 43.4048Z" fill="#B7B6C3"/>
<path d="M99.8769 63.6763C99.2386 63.4965 98.4921 63.0995 98.1947 62.7816L97.9752 62.547L98.2274 62.2938L98.4795 62.0407L98.9761 62.4348C99.66 62.9776 100.317 63.1898 101.28 63.1788C103.056 63.1586 103.962 62.1192 103.962 60.1012C103.962 59.53 103.924 59.2238 103.855 59.2238C103.796 59.2238 103.547 59.4008 103.303 59.6173C102.076 60.7018 99.8648 60.4642 98.6593 59.1181C97.532 57.8591 97.532 55.9872 98.6593 54.7281C99.8646 53.382 102.075 53.1444 103.303 54.229C103.547 54.4454 103.793 54.6225 103.849 54.6225C103.905 54.6225 103.964 54.4352 103.98 54.2064C104.01 53.8019 104.02 53.7903 104.352 53.7903H104.693L104.72 57.021C104.736 58.9767 104.705 60.5222 104.642 60.937C104.449 62.1994 103.631 63.283 102.614 63.6228C102.033 63.8168 100.483 63.8471 99.8769 63.6763ZM102.481 59.3778C104.519 58.3319 104.501 55.5187 102.45 54.4484C102.058 54.2434 101.831 54.1949 101.28 54.1983C100.467 54.2033 100.02 54.379 99.43 54.9246C98.82 55.4893 98.5646 56.0789 98.5646 56.923C98.5646 57.7699 98.8202 58.357 99.4374 58.9282C100.309 59.7352 101.455 59.9044 102.481 59.3778ZM67.364 60.4391C65.9901 60.1052 64.7448 59.0961 64.1511 57.8358C63.715 56.9099 63.5653 56.239 63.5653 55.2099C63.5653 53.6228 64.074 52.2992 65.0674 51.3017C66.051 50.3141 67.3047 49.8242 68.8425 49.8265C70.0801 49.8285 71.0974 50.19 71.8114 50.8816C72.2473 51.3037 72.2611 51.4119 71.9121 51.6672L71.647 51.861L71.1761 51.4359C70.3655 50.7041 69.2023 50.397 68.0226 50.6033C65.8255 50.9875 64.3771 52.8177 64.3771 55.2099C64.3771 57.6423 65.8611 59.4758 68.1147 59.8277C69.3462 60.02 70.5079 59.6629 71.4587 58.7997L71.9591 58.3455L72.2143 58.5471C72.3547 58.658 72.4696 58.8075 72.4696 58.8794C72.4696 59.0716 71.5588 59.8606 71.0534 60.1063C70.0411 60.5983 68.5661 60.7313 67.364 60.4391ZM76.1618 60.3489C74.6381 59.8589 73.7559 58.4886 73.8551 56.7665C73.9338 55.4028 74.5887 54.4103 75.78 53.8492C76.2494 53.6281 76.4492 53.5945 77.2957 53.5945C78.1423 53.5945 78.342 53.6281 78.8114 53.8492C79.5831 54.2126 80.0241 54.6425 80.3893 55.3875C80.6853 55.9913 80.7082 56.1084 80.7082 57.021C80.7082 57.9336 80.6853 58.0508 80.3893 58.6545C79.8135 59.8289 78.8566 60.4169 77.442 60.4655C76.9041 60.484 76.4548 60.4431 76.1618 60.3489ZM78.5835 59.559C79.5303 59.0972 80.0102 58.2408 80.0057 57.0211C79.9993 55.2955 78.9361 54.1834 77.2992 54.1903C75.8482 54.1965 74.9008 55.0165 74.5985 56.528C74.4651 57.1949 74.6571 58.1157 75.0556 58.7204C75.779 59.818 77.3075 60.1814 78.5835 59.559ZM91.9207 60.3658C91.2558 60.144 90.9388 59.9356 90.4703 59.4124C89.2757 58.0783 89.3758 55.6195 90.6737 54.418C91.372 53.7717 91.8611 53.5944 92.9445 53.5949C93.7591 53.5953 93.9294 53.6266 94.3582 53.8553C95.3393 54.3786 95.924 55.3238 95.9832 56.4824L96.0157 57.1187L93.237 57.1677L90.4582 57.2166L90.4252 57.4513C90.3277 58.1441 91.0076 59.2175 91.8107 59.6386C92.1195 59.8005 92.3835 59.8494 92.9445 59.8485C93.7601 59.8471 94.3678 59.6197 94.9071 59.1138C95.2595 58.7833 95.3894 58.7657 95.6165 59.0176C95.776 59.1945 95.7695 59.2196 95.4787 59.5521C94.9821 60.1201 94.2225 60.4218 93.1882 60.4618C92.631 60.4833 92.1684 60.4484 91.9207 60.3658ZM95.1895 56.4306C95.5049 56.0491 94.7705 54.8458 93.9699 54.4321C93.3301 54.1015 92.404 54.0885 91.8107 54.4018C91.0425 54.8075 90.2636 55.9596 90.4419 56.4263C90.5294 56.6551 95.0009 56.659 95.1895 56.4306ZM108.983 60.3658C108.318 60.144 108.001 59.9356 107.533 59.4124C106.338 58.0783 106.438 55.6195 107.736 54.418C108.434 53.7717 108.923 53.5944 110.007 53.5949C110.822 53.5953 110.992 53.6266 111.421 53.8553C112.402 54.3786 112.986 55.3238 113.046 56.4824L113.078 57.1187L110.299 57.1677L107.521 57.2166L107.488 57.4513C107.39 58.1441 108.07 59.2175 108.873 59.6386C109.182 59.8005 109.446 59.8494 110.007 59.8485C110.822 59.8471 111.43 59.6197 111.97 59.1138C112.322 58.7833 112.452 58.7657 112.679 59.0176C112.838 59.1945 112.832 59.2196 112.541 59.5521C112.045 60.1201 111.285 60.4218 110.251 60.4618C109.693 60.4833 109.231 60.4484 108.983 60.3658ZM112.252 56.4306C112.567 56.0491 111.833 54.8458 111.032 54.4321C110.393 54.1015 109.466 54.0885 108.873 54.4018C108.105 54.8075 107.326 55.9596 107.504 56.4263C107.592 56.6551 112.063 56.659 112.252 56.4306ZM120.914 60.349C119.39 59.8589 118.508 58.4887 118.607 56.7665C118.686 55.4029 119.341 54.4103 120.532 53.8492C121.002 53.6281 121.201 53.5946 122.048 53.5946C122.894 53.5946 123.094 53.6281 123.564 53.8492C124.335 54.2127 124.776 54.6426 125.141 55.3876C125.437 55.9913 125.46 56.1085 125.46 57.0211C125.46 57.9337 125.437 58.0508 125.141 58.6546C124.566 59.829 123.609 60.417 122.194 60.4656C121.656 60.4841 121.207 60.4432 120.914 60.349ZM123.336 59.5591C124.282 59.0973 124.762 58.2408 124.758 57.0211C124.752 55.2955 123.688 54.1835 122.051 54.1904C120.6 54.1965 119.653 55.0165 119.351 56.5281C119.217 57.1949 119.409 58.1158 119.808 58.7204C120.531 59.818 122.06 60.1814 123.336 59.5591ZM150.141 60.3531C149.648 60.1766 149.225 59.7695 148.969 59.2239C148.779 58.8171 148.76 58.5895 148.731 56.2561L148.699 53.7288L149.072 53.7596L149.445 53.7904L149.494 56.2379C149.546 58.835 149.558 58.9031 150.062 59.4457C150.716 60.1493 152.231 59.9715 152.958 59.1058C153.497 58.4634 153.536 58.2669 153.589 55.9443L153.638 53.7905L154.003 53.7601L154.369 53.7297V56.9174C154.369 58.6706 154.38 60.138 154.393 60.1784C154.407 60.2188 154.253 60.2655 154.052 60.2822L153.686 60.3126V59.8719C153.686 59.6296 153.642 59.4037 153.588 59.37C153.533 59.3363 153.293 59.5055 153.054 59.7459C152.793 60.0079 152.435 60.2458 152.16 60.3398C151.604 60.5301 150.653 60.5363 150.141 60.3531ZM157.618 60.3613C156.883 60.1205 156.221 59.6042 156.221 59.2721C156.221 59.2149 156.346 59.0941 156.499 59.0036C156.772 58.8417 156.781 58.8439 157.059 59.1383C157.506 59.6103 158.043 59.8427 158.708 59.8518C159.394 59.8613 159.853 59.6384 160.194 59.1307C160.468 58.7221 160.474 58.3477 160.21 58.0114C159.924 57.6465 159.526 57.4613 158.501 57.2176C156.988 56.8577 156.416 56.3627 156.416 55.4123C156.416 54.3012 157.321 53.5457 158.651 53.5457C159.408 53.5457 159.967 53.7226 160.408 54.102C160.866 54.4952 160.909 54.7389 160.55 54.903C160.321 55.008 160.261 54.9867 159.922 54.6792C159.055 53.8924 157.621 54.0467 157.238 54.9682C156.881 55.8245 157.47 56.3023 159.341 56.675C160.532 56.9122 161.097 57.4937 161.095 58.4797C161.093 59.2536 160.821 59.7501 160.185 60.1452C159.773 60.4008 159.61 60.4407 158.87 60.4659C158.344 60.4838 157.871 60.4443 157.618 60.3613ZM168.591 60.3434C167.079 59.8758 166.185 58.4901 166.285 56.7665C166.337 55.8519 166.745 54.918 167.31 54.4206C168.525 53.3486 170.563 53.2552 171.715 54.2185C172.072 54.5168 172.079 54.7257 171.736 54.9095C171.581 54.993 171.489 54.9681 171.268 54.7828C170.61 54.2315 169.96 54.0601 169.159 54.227C168.077 54.4525 167.359 55.181 167.074 56.3406C166.828 57.3406 167.111 58.4032 167.809 59.1045C168.764 60.0632 170.323 60.1243 171.264 59.2399C171.554 58.9679 171.744 59.0007 171.961 59.3602C172.046 59.5017 172.004 59.5839 171.726 59.8201C170.985 60.4482 169.651 60.671 168.591 60.3434ZM83.0672 60.2401C83.0289 60.2017 82.9976 57.782 82.9976 54.8629C82.9976 49.0854 82.9828 49.2374 83.5334 49.376L83.7792 49.438L83.754 54.8451L83.7288 60.2522L83.4328 60.2813C83.27 60.2973 83.1055 60.2787 83.0672 60.2401ZM86.6747 60.2401C86.6364 60.2017 86.6051 57.782 86.6051 54.8629C86.6051 49.0854 86.5902 49.2374 87.1409 49.376L87.3867 49.438L87.3615 54.8451L87.3363 60.2522L87.0403 60.2813C86.8775 60.2973 86.713 60.2787 86.6747 60.2401ZM128.14 57.4247C128.14 55.202 128.111 54.5249 128.014 54.4443C127.946 54.3869 127.628 54.3264 127.308 54.3099C126.76 54.2817 126.726 54.2656 126.726 54.0352C126.726 53.8048 126.76 53.7887 127.308 53.7605C127.628 53.744 127.946 53.6835 128.014 53.6261C128.105 53.5509 128.14 53.1632 128.14 52.2365C128.141 50.7489 128.228 50.3457 128.655 49.8572C129.052 49.4032 129.455 49.2377 130.16 49.2396C130.86 49.2415 131.015 49.3284 130.929 49.6711C130.868 49.9158 130.84 49.9264 130.404 49.8725C129.79 49.7965 129.326 50.0345 129.073 50.5552C128.822 51.0711 128.717 53.4337 128.936 53.6167C129.012 53.6799 129.379 53.7449 129.753 53.761C130.403 53.7893 130.431 53.8004 130.431 54.0352C130.431 54.27 130.403 54.2811 129.753 54.3094C129.379 54.3255 129.017 54.386 128.948 54.4437C128.851 54.5251 128.822 55.1938 128.822 57.4247V60.3008H128.481H128.14L128.14 57.4247ZM135.889 60.1843C135.862 60.1138 135.852 57.8312 135.866 55.1119L135.891 50.1679H136.557H137.223L139.05 54.3776C140.207 57.0438 140.926 58.5873 141.013 58.5873C141.099 58.5873 141.818 57.0441 142.975 54.3776L144.801 50.1679L145.44 50.139L146.08 50.11V55.2051V60.3003H145.691H145.302L145.276 55.8784C145.258 52.747 145.219 51.4461 145.143 51.4202C145.081 51.3996 144.393 52.87 143.544 54.8386C141.116 60.4667 141.194 60.3 141.007 60.3C140.833 60.3 140.817 60.265 137.96 53.7475C137.407 52.4858 136.902 51.436 136.838 51.4145C136.749 51.3848 136.716 52.4269 136.696 55.8134L136.671 60.2511L136.305 60.2816C136.069 60.3011 135.921 60.2662 135.889 60.1837L135.889 60.1843ZM163.286 60.1839C163.259 60.1127 163.248 58.6451 163.263 56.9225L163.288 53.7906H163.63H163.971V57.0213V60.252L163.653 60.2827C163.456 60.3018 163.317 60.2643 163.286 60.1839ZM163.2 51.2777C163.115 51.155 163.045 50.9861 163.045 50.9024C163.045 50.8187 163.115 50.6498 163.2 50.5271C163.421 50.2104 163.911 50.2673 164.114 50.6332C164.248 50.8749 164.248 50.9299 164.114 51.1716C163.911 51.5375 163.421 51.5944 163.2 51.2777Z" fill="#B7B6C3"/>
</g>
<defs>
<clipPath id="clip0_2063_28461">
<rect width="167" height="42" fill="white" transform="translate(5 23)"/>
</clipPath>
</defs>
</svg>
