<svg width="176" height="88" viewBox="0 0 176 88" fill="none" xmlns="http://www.w3.org/2000/svg">
<path d="M13.7344 40.0432C13.6761 39.9669 13.599 39.9069 13.5108 39.869C13.4225 39.8312 13.3259 39.8168 13.2304 39.8272C13.135 39.8376 13.0438 39.8726 12.9658 39.9286C12.8877 39.9847 12.8255 40.0599 12.7851 40.147L7.97075 49.7757C7.92681 49.8634 7.90594 49.9609 7.91021 50.0588C7.91449 50.1568 7.94365 50.252 7.99507 50.3355C8.04649 50.419 8.1184 50.488 8.20395 50.5359C8.28949 50.5838 8.38592 50.6091 8.48397 50.6093H15.1879C15.2964 50.6114 15.4031 50.5816 15.4949 50.5236C15.5866 50.4655 15.6593 50.3819 15.704 50.283C17.1486 47.3166 16.2735 42.7574 13.7344 40.0432Z" fill="#939393"/>
<path d="M17.2673 31.2987C16.0671 33.145 15.3677 35.2717 15.2377 37.4699C15.1077 39.6682 15.5516 41.8624 16.5257 43.8373L19.7739 50.2832C19.8212 50.379 19.8943 50.4597 19.9849 50.5163C20.0756 50.5729 20.1802 50.6031 20.287 50.6035H26.9909C27.0849 50.5958 27.1757 50.5658 27.2558 50.5159C27.3358 50.4661 27.4028 50.3979 27.4512 50.317C27.4996 50.2361 27.5281 50.1448 27.5342 50.0507C27.5403 49.9566 27.5239 49.8625 27.4863 49.776L18.2462 31.2987C18.2019 31.2065 18.1325 31.1286 18.0459 31.074C17.9593 31.0195 17.8591 30.9906 17.7567 30.9906C17.6545 30.9906 17.5542 31.0195 17.4676 31.074C17.381 31.1286 17.3116 31.2065 17.2673 31.2987Z" fill="#939393"/>
<path d="M158.898 41.5621L163.766 50.6094H168.09V34.4607H164.649V44.8814L163.348 41.8587L159.438 34.4607H154.006V50.6094H157.447V38.2932L158.898 41.5621Z" fill="#939393"/>
<path d="M132.121 34.4607H128.359V50.6094H132.121V34.4607Z" fill="#939393"/>
<path d="M124.02 45.8336C124.02 43.0067 122.522 41.6808 118.291 40.7701C115.957 40.254 115.394 39.7379 115.394 38.9903C115.394 38.0559 116.227 37.6614 117.767 37.6614C119.635 37.6614 121.48 38.228 123.225 39.0141V35.321C121.55 34.5583 119.725 34.1803 117.885 34.2145C113.705 34.2145 111.543 36.0329 111.543 39.0081C111.543 41.3812 112.649 43.2826 116.975 44.1191C119.556 44.6589 120.098 45.0772 120.098 45.9375C120.098 46.7977 119.556 47.3138 117.725 47.3138C115.528 47.2737 113.375 46.6919 111.457 45.6201V49.503C112.759 50.1408 114.48 50.8527 117.686 50.8527C122.207 50.8527 124.002 48.8385 124.002 45.8396" fill="#939393"/>
<path d="M108.363 45.8336C108.363 43.0067 106.88 41.6808 102.638 40.7701C100.304 40.254 99.7374 39.7379 99.7374 38.9903C99.7374 38.0559 100.574 37.6614 102.11 37.6614C103.979 37.6614 105.821 38.228 107.566 39.0141V35.321C105.89 34.5583 104.066 34.1803 102.226 34.2145C98.0496 34.2145 95.8842 36.0329 95.8842 39.0081C95.8842 41.3812 96.9905 43.2826 101.318 44.1191C103.899 44.6589 104.439 45.0772 104.439 45.9375C104.439 46.7977 103.899 47.3138 102.066 47.3138C99.8687 47.2737 97.7159 46.6919 95.7981 45.6201V49.503C97.103 50.1408 98.8234 50.8527 102.027 50.8527C106.551 50.8527 108.342 48.8385 108.342 45.8396" fill="#939393"/>
<path d="M70.4741 47.118V34.4607H66.6895V50.6094H74.4196L75.6359 47.118H70.4741Z" fill="#939393"/>
<path d="M59.3804 50.6094V37.9491H63.8535V34.4607H51.4158V37.9491H55.5953V50.6094H59.3804Z" fill="#939393"/>
<path d="M45.928 34.4607H40.9684L35.3323 50.6094H39.6483L40.4492 47.8892C42.4149 48.4669 44.5052 48.4669 46.4709 47.8892L47.2688 50.6094H51.57L45.928 34.4607ZM43.4482 44.9793C42.7454 44.9803 42.0461 44.8804 41.3718 44.6826L43.4482 37.6347L45.5246 44.6826C44.8502 44.8802 44.1509 44.9801 43.4482 44.9793Z" fill="#939393"/>
<path d="M87.7443 34.4607H82.7848L77.1484 50.6094H81.4497L82.2505 47.8892C84.2167 48.4669 86.3067 48.4669 88.2723 47.8892L89.0706 50.6094H93.3719L87.7443 34.4607ZM85.2645 44.9793C84.5618 44.9806 83.8622 44.8806 83.1884 44.6826L85.2645 37.6347L87.3413 44.6826C86.6669 44.8807 85.9673 44.9806 85.2645 44.9793Z" fill="#939393"/>
<path d="M145.671 34.4607H140.711L135.075 50.6094H139.376L140.174 47.8892C142.14 48.4669 144.23 48.4669 146.196 47.8892L146.994 50.6094H151.298L145.671 34.4607ZM143.191 44.9793C142.488 44.9801 141.789 44.8802 141.114 44.6826L143.191 37.6347L145.267 44.6826C144.593 44.8802 143.894 44.9801 143.191 44.9793Z" fill="#939393"/>
</svg>
