<svg width="176" height="88" viewBox="0 0 176 88" fill="none" xmlns="http://www.w3.org/2000/svg">
<path d="M82.2365 44.6912C82.2365 48.4792 79.2728 51.2705 75.6359 51.2705C71.9996 51.2705 69.0359 48.4792 69.0359 44.6912C69.0359 40.8765 71.9996 38.1118 75.6359 38.1118C79.2728 38.1118 82.2365 40.8765 82.2365 44.6912ZM79.347 44.6912C79.347 42.3241 77.6297 40.7044 75.6359 40.7044C73.6427 40.7044 71.9254 42.3241 71.9254 44.6912C71.9254 47.0346 73.6427 48.6779 75.6359 48.6779C77.6297 48.6779 79.347 47.0316 79.347 44.6912Z" fill="#EA4335"/>
<path d="M96.475 44.6912C96.475 48.4792 93.5113 51.2705 89.875 51.2705C86.2381 51.2705 83.2744 48.4792 83.2744 44.6912C83.2744 40.8794 86.2381 38.1118 89.875 38.1118C93.5113 38.1118 96.475 40.8765 96.475 44.6912ZM93.5855 44.6912C93.5855 42.3241 91.8682 40.7044 89.875 40.7044C87.8812 40.7044 86.164 42.3241 86.164 44.6912C86.164 47.0346 87.8812 48.6779 89.875 48.6779C91.8682 48.6779 93.5855 47.0316 93.5855 44.6912Z" fill="#FBBC05"/>
<path d="M110.12 38.5093V50.3213C110.12 55.1801 107.254 57.1646 103.867 57.1646C100.678 57.1646 98.7586 55.0318 98.0351 53.2876L100.551 52.2405C100.998 53.3113 102.096 54.575 103.864 54.575C106.032 54.575 107.376 53.2372 107.376 50.7188V49.7725H107.275C106.628 50.5704 105.382 51.2675 103.81 51.2675C100.521 51.2675 97.5071 48.402 97.5071 44.7149C97.5071 41.001 100.521 38.1118 103.81 38.1118C105.38 38.1118 106.626 38.8089 107.275 39.5832H107.376V38.5123H110.12V38.5093ZM107.581 44.7149C107.581 42.3982 106.036 40.7044 104.069 40.7044C102.076 40.7044 100.405 42.3982 100.405 44.7149C100.405 47.0079 102.076 48.6779 104.069 48.6779C106.036 48.6779 107.581 47.0079 107.581 44.7149Z" fill="#4285F4"/>
<path d="M114.644 31.5859V50.8671H111.825V31.5859H114.644Z" fill="#34A853"/>
<path d="M125.625 46.8567L127.868 48.3518C127.144 49.4226 125.399 51.2677 122.386 51.2677C118.648 51.2677 115.857 48.3785 115.857 44.6883C115.857 40.7758 118.672 38.109 122.062 38.109C125.477 38.109 127.147 40.8262 127.692 42.2945L127.992 43.042L119.197 46.6847C119.87 48.0047 120.918 48.6781 122.386 48.6781C123.857 48.6781 124.878 47.9543 125.625 46.8567ZM118.722 44.4896L124.602 42.0483C124.278 41.2267 123.305 40.6542 122.16 40.6542C120.692 40.6542 118.648 41.9504 118.722 44.4896Z" fill="#EA4335"/>
<path d="M58.3692 42.9796V40.1883H67.7756C67.8674 40.6748 67.9152 41.2503 67.9152 41.8732C67.9152 43.9674 67.3425 46.557 65.4971 48.4021C63.7025 50.2709 61.4097 51.2675 58.3722 51.2675C52.7421 51.2675 48.0078 46.6816 48.0078 41.0515C48.0078 35.4214 52.7421 30.8354 58.3722 30.8354C61.4868 30.8354 63.7056 32.0576 65.3726 33.6505L63.4033 35.6201C62.2077 34.4989 60.588 33.6268 58.3692 33.6268C54.2579 33.6268 51.0424 36.9402 51.0424 41.0515C51.0424 45.1629 54.2579 48.4762 58.3692 48.4762C61.036 48.4762 62.5547 47.4054 63.5277 46.4324C64.3166 45.6434 64.8358 44.5162 65.0407 42.9767L58.3692 42.9796Z" fill="#4285F4"/>
</svg>
