<svg width="1312" height="546" viewBox="0 0 1312 546" fill="none" xmlns="http://www.w3.org/2000/svg">
<path fill-rule="evenodd" clip-rule="evenodd" d="M91 0H0V546H91V0ZM202 0H111V546H202V0ZM222 0H313V546H222V0ZM424 0H333V546H424V0ZM444 0H535V546H444V0ZM646 0H555V546H646V0ZM666 0H757V546H666V0ZM868 0H777V546H868V0ZM888 0H979V546H888V0ZM1090 0H999V546H1090V0ZM1110 0H1201V546H1110V0ZM1312 0H1221V546H1312V0Z" fill="url(#paint0_linear_2063_28781)" fill-opacity="0.08"/>
<defs>
<linearGradient id="paint0_linear_2063_28781" x1="25.5" y1="59.9999" x2="1312" y2="393" gradientUnits="userSpaceOnUse">
<stop stop-color="#1133CA"/>
<stop offset="1" stop-color="#F9FBFF"/>
</linearGradient>
</defs>
</svg>
