<svg width="1269" height="558" viewBox="0 0 1269 558" fill="none" xmlns="http://www.w3.org/2000/svg">
<g clip-path="url(#clip0_16131_10961)">
<path d="M0 40C0 17.9086 17.9086 0 40 0H1228.5C1250.59 0 1268.5 17.9086 1268.5 40V518C1268.5 540.091 1250.59 558 1228.5 558H40C17.9086 558 0 540.091 0 518V40Z" fill="#280076"/>
<g opacity="0.6" filter="url(#filter0_f_16131_10961)">
<ellipse cx="-242.628" cy="760.507" rx="468.257" ry="312.441" transform="rotate(-180 -242.628 760.507)" fill="#5E19F0"/>
</g>
<g opacity="0.6" filter="url(#filter1_f_16131_10961)">
<circle cx="119.598" cy="639.091" r="312.441" transform="rotate(-180 119.598 639.091)" fill="#3719F0"/>
</g>
<g filter="url(#filter2_f_16131_10961)">
<path d="M-78.9917 807.385C73.6963 808.621 275.22 744.33 249.257 369.708C-176.457 344.568 -1034.31 294.783 -1060.03 296.761C-1092.17 299.234 -1338.82 629.965 -1348.1 639.238C-1357.37 648.51 -1398.78 732.584 -1132.97 948.95C-867.159 1165.32 -642.763 998.869 -486.984 889.604C-331.205 780.339 -231.68 806.149 -78.9917 807.385Z" fill="#6849E1"/>
</g>
<g opacity="0.3" filter="url(#filter3_f_16131_10961)">
<ellipse cx="-283.903" cy="647.59" rx="298.276" ry="133.152" transform="rotate(-180 -283.903 647.59)" fill="black"/>
</g>
<mask id="mask0_16131_10961" style="mask-type:alpha" maskUnits="userSpaceOnUse" x="-459" y="220" width="1192" height="790">
<path d="M559.376 220.868C603.864 477.613 729.09 863.88 732.337 876.486L-458.886 1009.13L-402.205 389.114L559.376 220.868Z" fill="url(#paint0_linear_16131_10961)"/>
</mask>
<g mask="url(#mask0_16131_10961)">
<path d="M203.725 825.504C95.2715 844.48 -6.74989 798.5 -16.4651 742.975C-26.1803 687.449 4.97263 606.9 121.334 586.541C178.997 576.452 242.516 527.084 315.862 542.748C390.526 558.693 387.919 637.197 392.82 665.207C402.535 720.733 312.179 806.528 203.725 825.504Z" fill="#7371FF"/>
<path d="M204.19 820.519C87.8761 840.871 -4.68164 802.199 -13.0325 754.471C-21.3834 706.743 11.5421 636.43 127.856 616.079C185.495 605.994 249.681 560.603 322.32 572.388C396.263 584.386 391.802 652.254 396.014 676.33C404.365 724.058 320.504 800.168 204.19 820.519Z" fill="#7371FF"/>
<g filter="url(#filter5_f_16131_10961)">
<path d="M200.672 821.136C70.3062 843.945 -34.477 794.635 -44.7725 735.793C-55.0681 676.95 -19.3933 591.124 110.972 568.314C175.575 557.011 245.905 496.94 327.785 512.813C411.136 528.971 408.282 617.31 413.476 646.994C423.772 705.836 331.037 798.326 200.672 821.136Z" fill="#7371FF"/>
</g>
<g filter="url(#filter6_f_16131_10961)">
<path d="M184.404 816.799C20.9246 830.528 -125.751 777.536 -137.801 708.669C-149.851 639.801 -81.1841 551.058 75.1632 523.702C152.641 510.146 239.107 417.661 337.157 435.85C436.969 454.365 432.097 552.02 438.175 586.76C450.225 655.628 373.786 800.896 184.404 816.799Z" fill="#7371FF"/>
</g>
<g filter="url(#filter7_f_16131_10961)">
<path d="M125.296 798.417C-43.049 827.872 -203.501 764.501 -215.282 697.168C-227.063 629.836 -151.837 541.656 16.5085 512.201C99.9317 497.604 196.727 454.185 301.708 470.373C408.574 486.852 401.7 582.699 407.643 616.665C419.424 683.997 293.641 768.962 125.296 798.417Z" fill="#7371FF"/>
</g>
<g filter="url(#filter8_f_16131_10961)">
<path d="M55.0757 783.004C-118.894 813.443 -284.541 748.895 -296.591 680.028C-308.64 611.16 -230.766 520.806 -56.7968 490.367C29.4134 475.283 129.49 430.685 237.916 447.059C348.289 463.726 341.015 561.801 347.093 596.542C359.143 665.409 229.045 752.565 55.0757 783.004Z" fill="#7371FF"/>
</g>
<g filter="url(#filter9_f_16131_10961)">
<path d="M187.839 771.062C35.6158 797.696 -111.311 729.873 -123.36 661.005C-135.41 592.138 -68.8982 503.772 83.3249 477.137C158.759 463.939 247.144 429.594 342.767 448.208C440.107 467.156 435.796 564.712 441.875 599.453C453.925 668.32 340.062 744.428 187.839 771.062Z" fill="#7371FF"/>
</g>
</g>
<g opacity="0.6" filter="url(#filter10_f_16131_10961)">
<ellipse cx="2052.37" cy="-178.44" rx="468.257" ry="312.441" transform="rotate(-180 2052.37 -178.44)" fill="#5E19F0"/>
</g>
<g filter="url(#filter11_f_16131_10961)">
<path d="M2216.01 -131.562C2368.69 -130.326 2570.22 -194.617 2544.25 -569.24C2118.54 -594.379 1260.69 -644.164 1234.97 -642.186C1202.83 -639.713 956.176 -308.982 946.903 -299.71C937.631 -290.437 896.213 -206.363 1162.03 10.0028C1427.84 226.369 1652.23 59.9218 1808.01 -49.3433C1963.79 -158.608 2063.32 -132.799 2216.01 -131.562Z" fill="#6849E1"/>
</g>
<mask id="mask1_16131_10961" style="mask-type:alpha" maskUnits="userSpaceOnUse" x="1170" y="-471" width="691" height="600">
<ellipse cx="1515.47" cy="-171.264" rx="392.205" ry="234.558" transform="rotate(143.715 1515.47 -171.264)" fill="url(#paint1_radial_16131_10961)"/>
</mask>
<g mask="url(#mask1_16131_10961)">
<path d="M1858.93 -380.994C1907.85 -399.774 1918.6 -419.011 1947.55 -464.098L1476.59 -639.067C1356.59 -456.49 1148.59 -106.857 1231.18 -73.804C1317.6 -39.2175 1449.35 -53.6231 1530.15 -93.2145C1610.95 -132.806 1676.06 -264.987 1706.65 -312.031C1734.99 -355.615 1810 -362.214 1858.93 -380.994Z" fill="#7C7AEA"/>
<g filter="url(#filter12_f_16131_10961)">
<path d="M1858.93 -380.184C1907.85 -398.963 1918.6 -418.201 1947.55 -463.288L1476.59 -638.257C1356.59 -455.679 1178.15 -52.8449 1260.74 -19.7917C1326.05 6.34512 1444.75 -56.4779 1505.6 -92.5769C1525.27 -104.247 1511.35 -117.474 1523.67 -118.306C1613.45 -124.365 1676.06 -264.177 1706.65 -311.22C1734.99 -354.804 1810 -361.404 1858.93 -380.184Z" fill="#7C7AEA"/>
</g>
<path d="M1871.88 -374.518C1920.81 -393.298 1931.56 -412.535 1960.5 -457.622L1476.59 -639.066C1356.59 -456.489 1252.2 -87.4305 1334.79 -54.3772C1412.26 -23.3727 1457.12 -60.1841 1519.76 -96.1589C1527 -100.315 1515.31 -102.064 1523.67 -106.165C1604.47 -145.756 1689.01 -258.511 1719.6 -305.554C1747.94 -349.139 1822.95 -355.738 1871.88 -374.518Z" fill="#7C7AEA"/>
<g filter="url(#filter14_f_16131_10961)">
<path d="M1884.83 -368.042C1933.76 -386.821 1944.51 -406.059 1973.45 -451.146L1476.59 -639.066C1356.59 -456.489 1129.17 -42.1016 1211.76 -9.04836C1281.47 18.8494 1404.78 -48.927 1481.31 -78.8042C1499.66 -85.9675 1510.48 -100.126 1526.1 -107.783C1606.9 -147.374 1701.96 -252.035 1732.55 -299.078C1760.89 -342.662 1835.9 -349.262 1884.83 -368.042Z" fill="#7C7AEA"/>
</g>
<path d="M1926.11 -350.356C1975.04 -369.135 1985.79 -388.373 2014.73 -433.46L1504.92 -634.331C1384.92 -451.754 1280.53 -82.6954 1363.12 -49.6422C1427.18 -24.007 1475.88 -76.7527 1506.41 -95.7166C1517.07 -102.339 1486.5 -113.686 1509.64 -113.686C1599.09 -113.686 1582.18 -207.83 1729.41 -269.906C1777.31 -290.104 1877.18 -331.576 1926.11 -350.356Z" fill="#7C7AEA"/>
</g>
<g opacity="0.6" filter="url(#filter16_f_16131_10961)">
<circle cx="1422.63" cy="-288.119" r="133.152" transform="rotate(-180 1422.63 -288.119)" fill="#B819F0"/>
</g>
<path d="M110.246 408.689C98.6812 399.277 91.7169 386.582 93.5058 365.35C99.6258 293.688 139.143 227.157 121.505 153.421C112.415 115.57 87.6624 85.6542 54.8602 65.4778C-100.262 -29.582 -227.858 48.9072 -264.129 92.7368C-301.305 137.638 -271.35 204.883 -244.557 247.011C-211.564 298.932 -171.456 349.274 -160.648 411.443C-149.244 477.088 -112.181 624.401 -77.6595 684.772C-53.3031 727.365 1.60676 782.656 50.6092 780.892C99.6116 779.129 141.754 722.709 175 686.643C208.246 650.576 375.441 756.069 387.705 708.473C404.195 644.471 345.023 580.829 303.21 540.848C260.811 500.322 213.061 465.847 162.111 436.874C143.237 426.213 123.659 419.641 110.246 408.689Z" stroke="url(#paint2_linear_16131_10961)" stroke-opacity="0.2" stroke-width="3"/>
<path d="M-271.508 83.1062C-311.12 130.937 -279.124 202.654 -250.633 247.561C-215.542 302.91 -172.682 356.562 -161.257 422.876C-149.134 492.851 -120.706 636.336 -83.8788 700.696C-57.9148 746.167 -0.269306 799.097 52.0218 797.215C98.7541 795.533 139.217 745.12 172.097 712.181C205.979 678.26 356.709 767.346 371.498 721.826C391.888 658.81 344.77 594.253 310.276 550.318C275.681 506.198 233.751 468.012 187.023 435.481C169.706 423.439 151.488 415.211 138.421 403.3C127.211 393.213 119.959 380.337 119.894 360.019C119.837 329.4 123.974 299.952 126.994 270.923C129.6 246.162 131.27 221.623 128.206 196.593C126.735 184.454 123.749 172.181 119.236 159.395C106.864 124.682 81.1229 96.0265 47.169 75.1329C-3.27388 44.2475 -51.2088 28.1102 -94.7886 22.9684C-176.457 13.2434 -243.474 49.2071 -271.508 83.1062Z" stroke="url(#paint3_linear_16131_10961)" stroke-opacity="0.2" stroke-width="3"/>
<path d="M-278.971 73.4724C-321.018 124.233 -287.076 200.427 -256.794 248.111C-219.513 306.886 -174.09 363.855 -161.859 434.308C-149.019 508.614 -129.219 648.364 -90.1815 716.717C-62.614 764.972 -2.13678 815.633 53.253 813.639C97.8098 812.035 136.59 767.535 169.013 737.822C203.626 706.044 337.992 778.811 355.019 735.284C379.402 673.249 344.149 607.878 317.066 559.985C290.088 512.371 254.255 470.369 211.747 434.279C196.085 420.947 179.226 411.062 166.407 398.101C155.55 387.244 147.912 374.097 145.996 354.788C143.046 325.025 142.415 296.785 140.489 269.253C138.902 245.963 136.488 223.269 130.185 199.96C127.15 188.915 122.594 177.547 116.695 165.566C101.328 134.076 74.2198 106.6 39.3034 84.9823C-9.6933 54.7028 -56.7984 35.1309 -100.912 25.3763C-177.545 8.2854 -247.053 34.8917 -278.971 73.4724Z" stroke="url(#paint4_linear_16131_10961)" stroke-opacity="0.2" stroke-width="3"/>
<path d="M-286.425 63.8395C-330.902 117.625 -295.019 198.201 -263.037 248.76C-223.566 310.961 -175.484 371.339 -162.64 445.843C-148.987 524.478 -137.91 660.4 -96.6629 732.747C-67.4925 783.785 -4.27861 832.18 54.3973 830.066C96.6854 828.543 133.976 790.048 165.939 763.466C201.285 733.927 319.288 790.18 338.649 748.738C367.118 687.682 343.635 621.597 323.953 569.555C304.682 518.443 274.85 472.628 236.558 432.884C222.456 418.266 207.05 406.72 194.482 392.804C183.976 381.176 175.956 367.852 172.285 349.549C166.444 320.643 161.046 293.611 154.172 267.483C148.398 245.759 141.992 224.813 132.357 203.228C127.849 193.181 121.73 182.908 114.44 171.542C96.1729 143.272 67.6974 116.977 31.7245 94.6386C-15.9142 65.1575 -62.0891 42.3358 -106.844 27.593C-178.596 4.1799 -250.625 20.5763 -286.425 63.8395Z" stroke="url(#paint5_linear_16131_10961)" stroke-opacity="0.2" stroke-width="3"/>
<path d="M-293.87 54.2158C-340.782 110.931 -302.954 195.983 -269.18 249.319C-227.611 315.043 -176.876 378.641 -163.226 457.284C-148.856 540.25 -146.401 672.431 -102.853 748.673C-72.0763 802.59 -6.03444 848.618 55.8369 846.484C95.8581 845.042 131.757 812.643 163.066 789.013C199.245 761.804 300.895 801.633 322.487 761.997C355.229 701.916 343.231 635.221 331.042 579.027C319.294 524.614 295.55 474.888 261.475 431.584C249.027 415.676 234.978 402.473 222.661 387.601C212.51 375.297 204.105 361.702 198.581 344.315C189.657 316.179 179.784 290.534 167.87 265.814C158.095 245.556 147.51 226.366 134.456 206.698C128.476 197.648 120.79 188.376 112.022 177.819C91.0407 152.669 60.9186 127.66 23.983 104.598C-22.3026 75.8216 -67.5319 50.2219 -112.939 30.2068C-179.713 0.655921 -254.098 6.17204 -293.87 54.2158Z" stroke="url(#paint6_linear_16131_10961)" stroke-opacity="0.2" stroke-width="3"/>
<path d="M-301.307 44.6133C-350.654 104.257 -310.88 193.783 -275.315 249.895C-231.554 319.043 -178.162 385.954 -163.898 468.646C-148.809 555.941 -155.071 684.285 -109.214 764.609C-76.8337 821.309 -8.05232 865.066 57.1073 862.813C94.8641 861.453 129.374 835.153 160.034 814.57C197.14 789.69 282.444 812.996 306.085 775.364C343.198 716.35 342.396 648.963 337.886 588.612C333.564 530.902 315.999 477.262 286.131 430.211C275.245 413.111 262.644 398.153 250.668 382.227C240.871 369.248 231.986 355.385 224.802 339.003C212.798 311.732 198.535 287.189 181.494 264.071C167.722 245.373 153.147 227.933 136.574 209.998C129.216 201.942 120.055 193.574 109.714 183.829C86.2033 161.7 54.3464 138.17 16.2548 114.297C-28.6802 86.2265 -73.2352 58.2371 -119.125 32.4704C-181.079 -2.26717 -257.653 -8.11236 -301.307 44.6133Z" stroke="url(#paint7_linear_16131_10961)" stroke-opacity="0.2" stroke-width="3"/>
<path d="M-308.639 35.1466C-360.426 97.7161 -318.705 191.617 -281.439 250.505C-235.483 323.074 -179.524 393.296 -164.452 480.121C-148.55 571.738 -163.528 696.237 -115.456 780.549C-81.4689 840.028 -9.84464 881.603 58.4171 879.144C94.0073 877.861 127.041 857.76 157.051 840.132C195.091 817.676 264.154 824.454 289.842 788.732C331.427 730.88 341.718 662.62 344.884 598.114C347.889 537.019 336.597 479.465 311.033 428.854C301.704 410.468 290.458 393.854 278.825 376.97C269.379 363.222 260.016 349.187 251.171 333.81C235.993 307.409 217.531 284.058 195.262 262.356C177.489 245.126 158.825 229.346 138.833 213.331C130.002 206.274 119.365 198.809 107.454 189.972C81.4995 170.673 47.72 148.724 8.65755 124.035C-34.9312 96.6721 -79.0885 66.5877 -125.095 34.868C-182.795 -4.8456 -261.196 -22.3496 -308.639 35.1466Z" stroke="url(#paint8_linear_16131_10961)" stroke-opacity="0.2" stroke-width="3"/>
<path d="M-316.063 25.6158C-370.289 91.2033 -326.522 189.568 -287.46 251.227C-239.306 327.214 -180.681 400.743 -164.991 491.704C-148.368 587.643 -171.966 708.386 -121.582 796.678C-86.0769 859.033 -11.6127 898.236 59.9462 895.658C93.2776 894.457 125.031 880.737 154.387 865.875C193.464 846.029 246.191 836.187 273.924 802.284C319.989 745.784 341.274 676.466 352.12 607.903C362.358 543.428 357.34 482.055 336.077 427.792C328.304 408.122 318.413 389.851 307.123 372.01C297.935 357.59 288.091 343.29 277.581 328.823C259.235 303.483 236.465 280.949 209.07 260.945C187.386 245.085 164.636 231.06 141.133 217.063C130.923 211.001 118.807 204.346 105.231 196.42C76.8277 179.857 41.1273 159.585 1.09533 134.175C-41.1562 107.332 -85.2844 75.45 -131.044 37.4815C-184.774 -7.19678 -264.732 -36.5581 -316.063 25.6158Z" stroke="url(#paint9_linear_16131_10961)" stroke-opacity="0.2" stroke-width="3"/>
<path d="M143.434 220.335C84.5135 194.093 -24.0351 151.013 -136.987 40.0164C-187.213 -9.41955 -268.169 -50.7517 -323.484 16.1018C-380.154 84.6114 -334.434 187.441 -293.667 251.873C-243.409 331.279 -182.117 408.114 -165.619 503.203C-148.181 603.459 -180.497 720.351 -127.894 812.626C-90.7787 877.757 -13.4689 914.682 61.2956 911.989C136.06 909.295 206.901 870.625 257.64 815.566C308.376 760.412 340.369 689.955 359.085 617.329C397.004 469.885 358.754 335.964 222.789 259.077C197.192 244.588 170.355 232.318 143.434 220.335Z" stroke="url(#paint10_linear_16131_10961)" stroke-opacity="0.2" stroke-width="3"/>
<path d="M1301.56 -191.594C1291.46 -202.677 1286.43 -216.332 1291.39 -237.153C1308.21 -307.412 1357.47 -367.565 1350.97 -443.45C1347.59 -482.409 1327.45 -515.837 1297.84 -540.8C1157.76 -658.494 1019.09 -599.681 976.448 -561.59C932.747 -522.57 952.478 -451.284 972.824 -405.42C997.872 -348.899 1030.23 -292.878 1031.68 -229.506C1033.2 -162.594 1048.01 -10.7135 1073.31 54.4303C1091.17 100.391 1137.51 163.548 1186.52 169.149C1235.53 174.751 1285.89 125.035 1324.36 94.2007C1362.83 63.3664 1513.36 193.235 1532.68 147.801C1558.66 86.7047 1509.33 14.6133 1473.72 -31.3716C1437.61 -77.9866 1395.27 -119.394 1348.93 -155.817C1331.75 -169.238 1313.26 -178.703 1301.56 -191.594Z" stroke="url(#paint11_linear_16131_10961)" stroke-opacity="0.2" stroke-width="3"/>
<path d="M970.594 -572.188C924.025 -530.632 945.124 -454.606 966.749 -405.732C993.377 -345.497 1027.99 -285.782 1029.43 -218.21C1031.02 -146.897 1037.83 -0.133338 1064.83 69.3108C1083.86 118.365 1133.29 179.583 1185.6 185.562C1232.34 190.905 1280.15 146.911 1317.79 119.133C1356.58 90.5313 1493.21 201.626 1514.73 158.639C1544.45 99.1159 1507.23 27.9321 1479.49 -20.8774C1451.68 -69.8862 1415.67 -114.102 1374.05 -153.422C1358.63 -167.98 1341.73 -178.886 1330.51 -192.675C1320.87 -204.376 1315.58 -218.251 1318.56 -238.439C1323.09 -268.857 1331.61 -297.48 1338.96 -325.857C1345.26 -350.057 1350.59 -374.176 1351.29 -399.493C1351.64 -411.769 1350.51 -424.406 1347.93 -437.781C1340.82 -474.112 1319.5 -506.434 1288.84 -532.28C1243.28 -570.523 1198 -593.743 1155.42 -605.39C1075.62 -627.305 1003.56 -601.647 970.594 -572.188Z" stroke="url(#paint12_linear_16131_10961)" stroke-opacity="0.2" stroke-width="3"/>
<path d="M964.646 -582.798C915.209 -538.705 937.582 -457.951 960.58 -406.055C988.883 -342.096 1025.56 -278.708 1027.19 -206.914C1028.84 -131.201 1027.63 10.5406 1056.25 84.2744C1076.46 136.329 1129.06 195.713 1184.48 202.047C1229.06 207.142 1274.31 168.777 1311.02 144.138C1350.22 117.779 1473.03 210.205 1496.49 169.539C1530.04 111.599 1504.74 41.3959 1484.96 -10.2274C1465.24 -61.5572 1435.87 -108.643 1398.97 -150.861C1385.38 -166.45 1370.08 -178.796 1359.26 -193.59C1350.08 -206.002 1344.45 -220.203 1345.43 -239.664C1346.95 -269.661 1350.55 -297.798 1352.75 -325.426C1354.66 -348.791 1355.65 -371.687 1352.87 -395.78C1351.5 -407.202 1348.67 -419.174 1344.59 -431.957C1334.01 -465.533 1311.15 -496.885 1279.64 -523.593C1235.41 -561.015 1191.47 -587.52 1149.03 -603.828C1075.33 -632.303 1002.18 -616.317 964.646 -582.798Z" stroke="url(#paint13_linear_16131_10961)" stroke-opacity="0.2" stroke-width="3"/>
<path d="M958.698 -593.408C906.382 -546.684 930.04 -461.296 954.306 -406.295C984.284 -338.612 1023.1 -271.446 1024.74 -195.545C1026.56 -115.422 1017.25 21.1928 1047.48 99.2161C1068.87 154.27 1124.55 211.81 1183.26 218.521C1225.58 223.358 1268.45 190.736 1304.24 169.143C1343.84 145.121 1452.87 218.689 1478.34 180.45C1515.82 124.104 1502.33 54.9644 1490.53 0.338822C1479 -53.3012 1456.16 -103.269 1424 -148.478C1412.15 -165.109 1398.54 -178.885 1388.12 -194.589C1379.4 -207.711 1373.41 -222.145 1372.5 -240.867C1371.01 -270.445 1369.68 -298.094 1366.75 -325.068C1364.25 -347.504 1361.01 -369.261 1354.65 -392.139C1351.67 -402.792 1347.11 -413.91 1341.56 -426.289C1327.61 -457.1 1303.2 -487.483 1270.74 -515.062C1227.74 -551.485 1185.19 -581.077 1142.86 -602.434C1074.95 -636.453 1000.8 -630.987 958.698 -593.408Z" stroke="url(#paint14_linear_16131_10961)" stroke-opacity="0.2" stroke-width="3"/>
<path d="M952.75 -604.017C897.566 -554.757 922.497 -464.64 948.137 -406.619C979.684 -335.128 1020.67 -264.372 1022.49 -184.249C1024.39 -99.7257 1007.05 31.8669 1039 114.096C1061.57 172.244 1120.42 227.856 1182.33 235.028C1222.39 239.606 1262.97 212.833 1297.67 194.075C1337.76 172.496 1432.98 227.301 1460.41 191.194C1501.99 136.464 1500.03 68.4499 1496.3 10.8327C1492.75 -44.9507 1476.55 -97.8827 1449.11 -145.989C1439.1 -163.651 1427.09 -178.868 1417.05 -195.483C1408.79 -209.221 1402.46 -223.981 1399.56 -242.071C1394.88 -271.344 1388.89 -298.285 1380.73 -324.615C1374.03 -346.195 1366.37 -366.835 1356.31 -388.321C1351.72 -398.203 1345.45 -408.562 1338.3 -420.36C1321.18 -448.478 1294.94 -477.829 1261.62 -506.271C1219.85 -541.789 1178.66 -573.995 1136.45 -600.684C1074.4 -640.047 999.529 -645.741 952.75 -604.017Z" stroke="url(#paint15_linear_16131_10961)" stroke-opacity="0.2" stroke-width="3"/>
<path d="M946.802 -614.627C888.75 -562.829 914.955 -467.984 941.968 -406.942C975.19 -331.727 1018.34 -257.287 1020.16 -173.058C1022.13 -84.1345 996.692 42.3309 1030.33 128.955C1054.08 190.103 1116.01 243.87 1181.22 251.419C1219.01 255.739 1257.31 234.814 1290.91 218.986C1331.57 199.86 1413.01 235.807 1442.18 202C1487.96 148.99 1497.24 81.9757 1501.78 21.3885C1506.11 -36.5489 1496.65 -92.4348 1473.95 -143.627C1465.67 -162.237 1455.36 -178.978 1445.82 -196.586C1438.01 -210.942 1431.24 -226.037 1426.54 -243.379C1418.67 -272.253 1408.14 -298.758 1394.63 -324.267C1383.72 -344.897 1371.82 -364.398 1358 -384.691C1351.88 -393.792 1344.01 -403.476 1335.17 -414.702C1315.08 -440.2 1286.88 -468.343 1252.53 -497.762C1211.99 -532.375 1171.82 -566.851 1129.99 -599.321C1073.51 -643.109 998.151 -660.411 946.802 -614.627Z" stroke="url(#paint16_linear_16131_10961)" stroke-opacity="0.2" stroke-width="3"/>
<path d="M940.937 -625.131C880.018 -570.798 907.507 -471.318 935.798 -407.265C970.696 -328.326 1015.9 -250.214 1017.92 -161.762C1020.04 -68.4279 986.507 52.9104 1021.75 143.824C1046.69 207.971 1111.78 259.999 1180.11 267.809C1215.74 271.881 1251.63 256.889 1284.15 243.896C1325.38 227.318 1393.12 244.418 1424.04 212.816C1474.1 161.633 1494.56 95.4177 1507.36 31.8605C1519.49 -28.3361 1516.86 -87.165 1498.98 -141.244C1492.44 -160.896 1483.73 -179.078 1474.67 -197.585C1467.33 -212.651 1460.1 -227.989 1453.6 -244.582C1442.44 -273.069 1427.55 -299.022 1408.63 -323.909C1393.51 -343.682 1377.29 -362.15 1359.78 -381.05C1352.04 -389.382 1342.57 -398.389 1332.03 -408.951C1309.08 -432.006 1278.73 -458.867 1243.54 -489.242C1204.23 -522.951 1164.77 -559.446 1123.71 -597.843C1072.21 -645.931 996.772 -675.081 940.937 -625.131Z" stroke="url(#paint17_linear_16131_10961)" stroke-opacity="0.2" stroke-width="3"/>
<path d="M934.989 -635.741C871.191 -578.777 900.048 -474.558 929.713 -407.483C966.285 -324.82 1013.65 -243.024 1015.66 -150.371C1017.86 -52.6374 976.302 63.6787 1013.25 158.893C1039.27 226.123 1107.54 276.223 1179.17 284.41C1212.53 288.224 1246.2 279.373 1277.65 269.028C1319.52 255.196 1373.48 253.344 1406.17 223.853C1460.48 174.684 1492.04 109.07 1513.1 42.6371C1532.94 -19.8294 1537.12 -81.5071 1524.07 -138.567C1519.27 -159.261 1512.16 -178.883 1503.59 -198.29C1496.6 -213.984 1488.94 -229.658 1480.64 -245.597C1466.17 -273.508 1446.87 -299.297 1422.59 -323.268C1403.37 -342.269 1382.82 -359.608 1361.52 -377.033C1352.26 -384.583 1341.19 -393.009 1328.86 -402.916C1303.06 -423.624 1270.55 -449.109 1234.5 -480.345C1196.45 -513.338 1157.29 -551.613 1117.41 -596.176C1070.6 -648.597 995.394 -689.752 934.989 -635.741Z" stroke="url(#paint18_linear_16131_10961)" stroke-opacity="0.2" stroke-width="3"/>
<path d="M1363.31 -373.486C1308.58 -408.385 1206.96 -467.453 1111.12 -594.604C1068.52 -651.222 994.109 -704.411 929.04 -646.35C862.375 -586.849 892.505 -477.902 923.449 -407.817C961.602 -321.441 1011.12 -235.961 1013.32 -139.086C1015.68 -36.9413 966.023 74.2477 1004.58 173.751C1031.79 243.982 1103.23 292.248 1178.06 300.801C1252.89 309.355 1329.2 281.604 1387.95 234.565C1446.71 187.432 1489.1 122.292 1518.6 53.0044C1578.4 -87.6729 1560.36 -226.364 1436.51 -323.109C1413.2 -341.337 1388.31 -357.547 1363.31 -373.486Z" stroke="url(#paint19_linear_16131_10961)" stroke-opacity="0.2" stroke-width="3"/>
</g>
<defs>
<filter id="filter0_f_16131_10961" x="-1122.88" y="36.0659" width="1760.51" height="1448.88" filterUnits="userSpaceOnUse" color-interpolation-filters="sRGB">
<feFlood flood-opacity="0" result="BackgroundImageFix"/>
<feBlend mode="normal" in="SourceGraphic" in2="BackgroundImageFix" result="shape"/>
<feGaussianBlur stdDeviation="206" result="effect1_foregroundBlur_16131_10961"/>
</filter>
<filter id="filter1_f_16131_10961" x="-604.843" y="-85.3496" width="1448.88" height="1448.88" filterUnits="userSpaceOnUse" color-interpolation-filters="sRGB">
<feFlood flood-opacity="0" result="BackgroundImageFix"/>
<feBlend mode="normal" in="SourceGraphic" in2="BackgroundImageFix" result="shape"/>
<feGaussianBlur stdDeviation="206" result="effect1_foregroundBlur_16131_10961"/>
</filter>
<filter id="filter2_f_16131_10961" x="-1512" y="140.704" width="1919.53" height="1069.63" filterUnits="userSpaceOnUse" color-interpolation-filters="sRGB">
<feFlood flood-opacity="0" result="BackgroundImageFix"/>
<feBlend mode="normal" in="SourceGraphic" in2="BackgroundImageFix" result="shape"/>
<feGaussianBlur stdDeviation="78" result="effect1_foregroundBlur_16131_10961"/>
</filter>
<filter id="filter3_f_16131_10961" x="-794.179" y="302.438" width="1020.55" height="690.303" filterUnits="userSpaceOnUse" color-interpolation-filters="sRGB">
<feFlood flood-opacity="0" result="BackgroundImageFix"/>
<feBlend mode="normal" in="SourceGraphic" in2="BackgroundImageFix" result="shape"/>
<feGaussianBlur stdDeviation="106" result="effect1_foregroundBlur_16131_10961"/>
</filter>
<filter id="filter5_f_16131_10961" x="-72.8289" y="483.77" width="513.475" height="369.443" filterUnits="userSpaceOnUse" color-interpolation-filters="sRGB">
<feFlood flood-opacity="0" result="BackgroundImageFix"/>
<feBlend mode="normal" in="SourceGraphic" in2="BackgroundImageFix" result="shape"/>
<feGaussianBlur stdDeviation="13.195" result="effect1_foregroundBlur_16131_10961"/>
</filter>
<filter id="filter6_f_16131_10961" x="-176.847" y="395.79" width="653.945" height="460.887" filterUnits="userSpaceOnUse" color-interpolation-filters="sRGB">
<feFlood flood-opacity="0" result="BackgroundImageFix"/>
<feBlend mode="normal" in="SourceGraphic" in2="BackgroundImageFix" result="shape"/>
<feGaussianBlur stdDeviation="18.8499" result="effect1_foregroundBlur_16131_10961"/>
</filter>
<filter id="filter7_f_16131_10961" x="-318.266" y="365.022" width="828.463" height="542.597" filterUnits="userSpaceOnUse" color-interpolation-filters="sRGB">
<feFlood flood-opacity="0" result="BackgroundImageFix"/>
<feBlend mode="normal" in="SourceGraphic" in2="BackgroundImageFix" result="shape"/>
<feGaussianBlur stdDeviation="50.8948" result="effect1_foregroundBlur_16131_10961"/>
</filter>
<filter id="filter8_f_16131_10961" x="-550.389" y="190.911" width="1150.85" height="852.421" filterUnits="userSpaceOnUse" color-interpolation-filters="sRGB">
<feFlood flood-opacity="0" result="BackgroundImageFix"/>
<feBlend mode="normal" in="SourceGraphic" in2="BackgroundImageFix" result="shape"/>
<feGaussianBlur stdDeviation="126.295" result="effect1_foregroundBlur_16131_10961"/>
</filter>
<filter id="filter9_f_16131_10961" x="-241.613" y="325.929" width="801.232" height="567.929" filterUnits="userSpaceOnUse" color-interpolation-filters="sRGB">
<feFlood flood-opacity="0" result="BackgroundImageFix"/>
<feBlend mode="normal" in="SourceGraphic" in2="BackgroundImageFix" result="shape"/>
<feGaussianBlur stdDeviation="58.4348" result="effect1_foregroundBlur_16131_10961"/>
</filter>
<filter id="filter10_f_16131_10961" x="1172.11" y="-902.881" width="1760.51" height="1448.88" filterUnits="userSpaceOnUse" color-interpolation-filters="sRGB">
<feFlood flood-opacity="0" result="BackgroundImageFix"/>
<feBlend mode="normal" in="SourceGraphic" in2="BackgroundImageFix" result="shape"/>
<feGaussianBlur stdDeviation="206" result="effect1_foregroundBlur_16131_10961"/>
</filter>
<filter id="filter11_f_16131_10961" x="782.998" y="-798.243" width="1919.53" height="1069.63" filterUnits="userSpaceOnUse" color-interpolation-filters="sRGB">
<feFlood flood-opacity="0" result="BackgroundImageFix"/>
<feBlend mode="normal" in="SourceGraphic" in2="BackgroundImageFix" result="shape"/>
<feGaussianBlur stdDeviation="78" result="effect1_foregroundBlur_16131_10961"/>
</filter>
<filter id="filter12_f_16131_10961" x="1219.65" y="-658.256" width="747.897" height="664.656" filterUnits="userSpaceOnUse" color-interpolation-filters="sRGB">
<feFlood flood-opacity="0" result="BackgroundImageFix"/>
<feBlend mode="normal" in="SourceGraphic" in2="BackgroundImageFix" result="shape"/>
<feGaussianBlur stdDeviation="10" result="effect1_foregroundBlur_16131_10961"/>
</filter>
<filter id="filter14_f_16131_10961" x="1158.11" y="-675.066" width="851.343" height="708.613" filterUnits="userSpaceOnUse" color-interpolation-filters="sRGB">
<feFlood flood-opacity="0" result="BackgroundImageFix"/>
<feBlend mode="normal" in="SourceGraphic" in2="BackgroundImageFix" result="shape"/>
<feGaussianBlur stdDeviation="18" result="effect1_foregroundBlur_16131_10961"/>
</filter>
<filter id="filter16_f_16131_10961" x="1077.48" y="-633.271" width="690.303" height="690.303" filterUnits="userSpaceOnUse" color-interpolation-filters="sRGB">
<feFlood flood-opacity="0" result="BackgroundImageFix"/>
<feBlend mode="normal" in="SourceGraphic" in2="BackgroundImageFix" result="shape"/>
<feGaussianBlur stdDeviation="106" result="effect1_foregroundBlur_16131_10961"/>
</filter>
<linearGradient id="paint0_linear_16131_10961" x1="245.226" y1="793.539" x2="158.016" y2="373.068" gradientUnits="userSpaceOnUse">
<stop stop-color="#C4C4C4"/>
<stop offset="1" stop-color="#C4C4C4" stop-opacity="0"/>
</linearGradient>
<radialGradient id="paint1_radial_16131_10961" cx="0" cy="0" r="1" gradientUnits="userSpaceOnUse" gradientTransform="translate(1582.68 -208.824) rotate(103.875) scale(280.296 451.079)">
<stop offset="0.120131" stop-color="#C4C4C4"/>
<stop offset="0.692585" stop-color="#C4C4C4" stop-opacity="0"/>
</radialGradient>
<linearGradient id="paint2_linear_16131_10961" x1="40.228" y1="15.5449" x2="67.7441" y2="780.276" gradientUnits="userSpaceOnUse">
<stop stop-color="#D7CEFF"/>
<stop offset="1" stop-color="#280076"/>
</linearGradient>
<linearGradient id="paint3_linear_16131_10961" x1="28.9844" y1="15.7754" x2="57.1043" y2="797.032" gradientUnits="userSpaceOnUse">
<stop stop-color="#D7CEFF"/>
<stop offset="1" stop-color="#280076"/>
</linearGradient>
<linearGradient id="paint4_linear_16131_10961" x1="18.1072" y1="13.9653" x2="46.9076" y2="813.867" gradientUnits="userSpaceOnUse">
<stop stop-color="#D7CEFF"/>
<stop offset="1" stop-color="#280076"/>
</linearGradient>
<linearGradient id="paint5_linear_16131_10961" x1="8.21016" y1="10.2758" x2="37.7572" y2="830.666" gradientUnits="userSpaceOnUse">
<stop stop-color="#D7CEFF"/>
<stop offset="1" stop-color="#280076"/>
</linearGradient>
<linearGradient id="paint6_linear_16131_10961" x1="0.00153916" y1="4.92526" x2="30.352" y2="847.402" gradientUnits="userSpaceOnUse">
<stop stop-color="#D7CEFF"/>
<stop offset="1" stop-color="#280076"/>
</linearGradient>
<linearGradient id="paint7_linear_16131_10961" x1="-5.5333" y1="-1.88891" x2="25.6642" y2="863.946" gradientUnits="userSpaceOnUse">
<stop stop-color="#D7CEFF"/>
<stop offset="1" stop-color="#280076"/>
</linearGradient>
<linearGradient id="paint8_linear_16131_10961" x1="-6.26852" y1="-9.84005" x2="25.8066" y2="880.319" gradientUnits="userSpaceOnUse">
<stop stop-color="#D7CEFF"/>
<stop offset="1" stop-color="#280076"/>
</linearGradient>
<linearGradient id="paint9_linear_16131_10961" x1="-4.20125" y1="-18.6008" x2="28.7815" y2="896.781" gradientUnits="userSpaceOnUse">
<stop stop-color="#D7CEFF"/>
<stop offset="1" stop-color="#280076"/>
</linearGradient>
<linearGradient id="paint10_linear_16131_10961" x1="-0.319769" y1="-27.9354" x2="33.5803" y2="912.987" gradientUnits="userSpaceOnUse">
<stop stop-color="#D7CEFF"/>
<stop offset="1" stop-color="#280076"/>
</linearGradient>
<linearGradient id="paint11_linear_16131_10961" x1="1290.76" y1="-592.591" x2="1203.47" y2="171.086" gradientUnits="userSpaceOnUse">
<stop stop-color="#280076"/>
<stop offset="1" stop-color="#D7CEFF"/>
</linearGradient>
<linearGradient id="paint12_linear_16131_10961" x1="1279.64" y1="-593.958" x2="1190.47" y2="186.119" gradientUnits="userSpaceOnUse">
<stop stop-color="#280076"/>
<stop offset="1" stop-color="#D7CEFF"/>
</linearGradient>
<linearGradient id="paint13_linear_16131_10961" x1="1269.17" y1="-597.293" x2="1177.9" y2="201.295" gradientUnits="userSpaceOnUse">
<stop stop-color="#280076"/>
<stop offset="1" stop-color="#D7CEFF"/>
</linearGradient>
<linearGradient id="paint14_linear_16131_10961" x1="1259.96" y1="-602.354" x2="1166.35" y2="216.588" gradientUnits="userSpaceOnUse">
<stop stop-color="#280076"/>
<stop offset="1" stop-color="#D7CEFF"/>
</linearGradient>
<linearGradient id="paint15_linear_16131_10961" x1="1252.66" y1="-608.823" x2="1156.54" y2="232.08" gradientUnits="userSpaceOnUse">
<stop stop-color="#280076"/>
<stop offset="1" stop-color="#D7CEFF"/>
</linearGradient>
<linearGradient id="paint16_linear_16131_10961" x1="1248.22" y1="-616.37" x2="1149.45" y2="247.787" gradientUnits="userSpaceOnUse">
<stop stop-color="#280076"/>
<stop offset="1" stop-color="#D7CEFF"/>
</linearGradient>
<linearGradient id="paint17_linear_16131_10961" x1="1248.7" y1="-624.378" x2="1147.16" y2="264.043" gradientUnits="userSpaceOnUse">
<stop stop-color="#280076"/>
<stop offset="1" stop-color="#D7CEFF"/>
</linearGradient>
<linearGradient id="paint18_linear_16131_10961" x1="1252.08" y1="-632.8" x2="1147.66" y2="280.809" gradientUnits="userSpaceOnUse">
<stop stop-color="#280076"/>
<stop offset="1" stop-color="#D7CEFF"/>
</linearGradient>
<linearGradient id="paint19_linear_16131_10961" x1="1257.34" y1="-641.538" x2="1150" y2="297.594" gradientUnits="userSpaceOnUse">
<stop stop-color="#280076"/>
<stop offset="1" stop-color="#D7CEFF"/>
</linearGradient>
<clipPath id="clip0_16131_10961">
<path d="M0 40C0 17.9086 17.9086 0 40 0H1228.5C1250.59 0 1268.5 17.9086 1268.5 40V518C1268.5 540.091 1250.59 558 1228.5 558H40C17.9086 558 0 540.091 0 518V40Z" fill="white"/>
</clipPath>
</defs>
</svg>
