<svg width="160" height="34" viewBox="0 0 160 34" fill="none" xmlns="http://www.w3.org/2000/svg">
<g clip-path="url(#clip0_2063_28759)">
<rect y="0.375" width="1.94172" height="33.3122" rx="0.970862" fill="#D7CEFF"/>
<rect width="1.94172" height="28.5533" rx="0.970862" transform="matrix(-1 0 0 1 5.15491 2.75427)" fill="#D7CEFF"/>
<rect width="1.94172" height="23.7944" rx="0.970862" transform="matrix(-1 0 0 1 8.58862 5.13354)" fill="#D7CEFF"/>
<rect width="1.94172" height="19.0355" rx="0.970862" transform="matrix(-1 0 0 1 12.1371 7.51294)" fill="#D7CEFF"/>
<rect width="1.94172" height="14.2767" rx="0.970862" transform="matrix(-1 0 0 1 15.6853 9.89319)" fill="#D7CEFF"/>
<rect x="17.627" y="9.89319" width="1.94172" height="14.2767" rx="0.970862" fill="#D7CEFF"/>
<rect x="21.1752" y="7.51294" width="1.94172" height="19.0355" rx="0.970862" fill="#D7CEFF"/>
<rect x="24.724" y="5.13354" width="1.94172" height="23.7944" rx="0.970862" fill="#D7CEFF"/>
<rect x="28.1575" y="2.75427" width="1.94172" height="28.5533" rx="0.970862" fill="#D7CEFF"/>
<rect width="1.94172" height="33.3122" rx="0.970862" transform="matrix(-1 0 0 1 33.3123 0.375)" fill="#D7CEFF"/>
<path d="M44.762 14.486C45.086 14.006 45.53 13.616 46.094 13.316C46.67 13.016 47.324 12.866 48.056 12.866C48.908 12.866 49.676 13.076 50.36 13.496C51.056 13.916 51.602 14.516 51.998 15.296C52.406 16.064 52.61 16.958 52.61 17.978C52.61 18.998 52.406 19.904 51.998 20.696C51.602 21.476 51.056 22.082 50.36 22.514C49.676 22.946 48.908 23.162 48.056 23.162C47.312 23.162 46.658 23.018 46.094 22.73C45.542 22.43 45.098 22.046 44.762 21.578V23H42.242V9.68H44.762V14.486ZM50.036 17.978C50.036 17.378 49.91 16.862 49.658 16.43C49.418 15.986 49.094 15.65 48.686 15.422C48.29 15.194 47.858 15.08 47.39 15.08C46.934 15.08 46.502 15.2 46.094 15.44C45.698 15.668 45.374 16.004 45.122 16.448C44.882 16.892 44.762 17.414 44.762 18.014C44.762 18.614 44.882 19.136 45.122 19.58C45.374 20.024 45.698 20.366 46.094 20.606C46.502 20.834 46.934 20.948 47.39 20.948C47.858 20.948 48.29 20.828 48.686 20.588C49.094 20.348 49.418 20.006 49.658 19.562C49.91 19.118 50.036 18.59 50.036 17.978ZM63.43 17.798C63.43 18.158 63.406 18.482 63.358 18.77H56.068C56.128 19.49 56.38 20.054 56.824 20.462C57.268 20.87 57.814 21.074 58.462 21.074C59.398 21.074 60.064 20.672 60.46 19.868H63.178C62.89 20.828 62.338 21.62 61.522 22.244C60.706 22.856 59.704 23.162 58.516 23.162C57.556 23.162 56.692 22.952 55.924 22.532C55.168 22.1 54.574 21.494 54.142 20.714C53.722 19.934 53.512 19.034 53.512 18.014C53.512 16.982 53.722 16.076 54.142 15.296C54.562 14.516 55.15 13.916 55.906 13.496C56.662 13.076 57.532 12.866 58.516 12.866C59.464 12.866 60.31 13.07 61.054 13.478C61.81 13.886 62.392 14.468 62.8 15.224C63.22 15.968 63.43 16.826 63.43 17.798ZM60.82 17.078C60.808 16.43 60.574 15.914 60.118 15.53C59.662 15.134 59.104 14.936 58.444 14.936C57.82 14.936 57.292 15.128 56.86 15.512C56.44 15.884 56.182 16.406 56.086 17.078H60.82ZM64.3401 17.978C64.3401 16.97 64.5381 16.076 64.9341 15.296C65.3421 14.516 65.8881 13.916 66.5721 13.496C67.2681 13.076 68.0421 12.866 68.8941 12.866C69.6381 12.866 70.2861 13.016 70.8381 13.316C71.4021 13.616 71.8521 13.994 72.1881 14.45V13.028H74.7261V23H72.1881V21.542C71.8641 22.01 71.4141 22.4 70.8381 22.712C70.2741 23.012 69.6201 23.162 68.8761 23.162C68.0361 23.162 67.2681 22.946 66.5721 22.514C65.8881 22.082 65.3421 21.476 64.9341 20.696C64.5381 19.904 64.3401 18.998 64.3401 17.978ZM72.1881 18.014C72.1881 17.402 72.0681 16.88 71.8281 16.448C71.5881 16.004 71.2641 15.668 70.8561 15.44C70.4481 15.2 70.0101 15.08 69.5421 15.08C69.0741 15.08 68.6421 15.194 68.2461 15.422C67.8501 15.65 67.5261 15.986 67.2741 16.43C67.0341 16.862 66.9141 17.378 66.9141 17.978C66.9141 18.578 67.0341 19.106 67.2741 19.562C67.5261 20.006 67.8501 20.348 68.2461 20.588C68.6541 20.828 69.0861 20.948 69.5421 20.948C70.0101 20.948 70.4481 20.834 70.8561 20.606C71.2641 20.366 71.5881 20.03 71.8281 19.598C72.0681 19.154 72.1881 18.626 72.1881 18.014ZM79.8401 15.098V19.922C79.8401 20.258 79.9181 20.504 80.0741 20.66C80.2421 20.804 80.5181 20.876 80.9021 20.876H82.0721V23H80.4881C78.3641 23 77.3021 21.968 77.3021 19.904V15.098H76.1141V13.028H77.3021V10.562H79.8401V13.028H82.0721V15.098H79.8401ZM91.1273 23L88.4093 18.77L85.9433 23H83.0993L87.0593 16.664L83.0453 10.436H85.9433L88.6613 14.648L91.1093 10.436H93.9533L90.0113 16.754L94.0253 23H91.1273ZM103.486 23.162C102.67 23.162 101.938 23.018 101.29 22.73C100.642 22.43 100.126 22.028 99.7417 21.524C99.3697 21.02 99.1657 20.462 99.1297 19.85H101.668C101.716 20.234 101.902 20.552 102.226 20.804C102.562 21.056 102.976 21.182 103.468 21.182C103.948 21.182 104.32 21.086 104.584 20.894C104.86 20.702 104.998 20.456 104.998 20.156C104.998 19.832 104.83 19.592 104.494 19.436C104.17 19.268 103.648 19.088 102.928 18.896C102.184 18.716 101.572 18.53 101.092 18.338C100.624 18.146 100.216 17.852 99.8677 17.456C99.5317 17.06 99.3637 16.526 99.3637 15.854C99.3637 15.302 99.5197 14.798 99.8317 14.342C100.156 13.886 100.612 13.526 101.2 13.262C101.8 12.998 102.502 12.866 103.306 12.866C104.494 12.866 105.442 13.166 106.15 13.766C106.858 14.354 107.248 15.152 107.32 16.16H104.908C104.872 15.764 104.704 15.452 104.404 15.224C104.116 14.984 103.726 14.864 103.234 14.864C102.778 14.864 102.424 14.948 102.172 15.116C101.932 15.284 101.812 15.518 101.812 15.818C101.812 16.154 101.98 16.412 102.316 16.592C102.652 16.76 103.174 16.934 103.882 17.114C104.602 17.294 105.196 17.48 105.664 17.672C106.132 17.864 106.534 18.164 106.87 18.572C107.218 18.968 107.398 19.496 107.41 20.156C107.41 20.732 107.248 21.248 106.924 21.704C106.612 22.16 106.156 22.52 105.556 22.784C104.968 23.036 104.278 23.162 103.486 23.162ZM112.131 15.098V19.922C112.131 20.258 112.209 20.504 112.365 20.66C112.533 20.804 112.809 20.876 113.193 20.876H114.363V23H112.779C110.655 23 109.593 21.968 109.593 19.904V15.098H108.405V13.028H109.593V10.562H112.131V13.028H114.363V15.098H112.131ZM125.308 13.028V23H122.77V21.74C122.446 22.172 122.02 22.514 121.492 22.766C120.976 23.006 120.412 23.126 119.8 23.126C119.02 23.126 118.33 22.964 117.73 22.64C117.13 22.304 116.656 21.818 116.308 21.182C115.972 20.534 115.804 19.766 115.804 18.878V13.028H118.324V18.518C118.324 19.31 118.522 19.922 118.918 20.354C119.314 20.774 119.854 20.984 120.538 20.984C121.234 20.984 121.78 20.774 122.176 20.354C122.572 19.922 122.77 19.31 122.77 18.518V13.028H125.308ZM126.865 17.978C126.865 16.97 127.063 16.076 127.459 15.296C127.867 14.516 128.419 13.916 129.115 13.496C129.811 13.076 130.585 12.866 131.437 12.866C132.085 12.866 132.703 13.01 133.291 13.298C133.879 13.574 134.347 13.946 134.695 14.414V9.68H137.251V23H134.695V21.524C134.383 22.016 133.945 22.412 133.381 22.712C132.817 23.012 132.163 23.162 131.419 23.162C130.579 23.162 129.811 22.946 129.115 22.514C128.419 22.082 127.867 21.476 127.459 20.696C127.063 19.904 126.865 18.998 126.865 17.978ZM134.713 18.014C134.713 17.402 134.593 16.88 134.353 16.448C134.113 16.004 133.789 15.668 133.381 15.44C132.973 15.2 132.535 15.08 132.067 15.08C131.599 15.08 131.167 15.194 130.771 15.422C130.375 15.65 130.051 15.986 129.799 16.43C129.559 16.862 129.439 17.378 129.439 17.978C129.439 18.578 129.559 19.106 129.799 19.562C130.051 20.006 130.375 20.348 130.771 20.588C131.179 20.828 131.611 20.948 132.067 20.948C132.535 20.948 132.973 20.834 133.381 20.606C133.789 20.366 134.113 20.03 134.353 19.598C134.593 19.154 134.713 18.626 134.713 18.014ZM140.709 11.84C140.265 11.84 139.893 11.702 139.593 11.426C139.305 11.138 139.161 10.784 139.161 10.364C139.161 9.944 139.305 9.596 139.593 9.32C139.893 9.032 140.265 8.888 140.709 8.888C141.153 8.888 141.519 9.032 141.807 9.32C142.107 9.596 142.257 9.944 142.257 10.364C142.257 10.784 142.107 11.138 141.807 11.426C141.519 11.702 141.153 11.84 140.709 11.84ZM141.951 13.028V23H139.431V13.028H141.951ZM148.588 23.162C147.628 23.162 146.764 22.952 145.996 22.532C145.228 22.1 144.622 21.494 144.178 20.714C143.746 19.934 143.53 19.034 143.53 18.014C143.53 16.994 143.752 16.094 144.196 15.314C144.652 14.534 145.27 13.934 146.05 13.514C146.83 13.082 147.7 12.866 148.66 12.866C149.62 12.866 150.49 13.082 151.27 13.514C152.05 13.934 152.662 14.534 153.106 15.314C153.562 16.094 153.79 16.994 153.79 18.014C153.79 19.034 153.556 19.934 153.088 20.714C152.632 21.494 152.008 22.1 151.216 22.532C150.436 22.952 149.56 23.162 148.588 23.162ZM148.588 20.966C149.044 20.966 149.47 20.858 149.866 20.642C150.274 20.414 150.598 20.078 150.838 19.634C151.078 19.19 151.198 18.65 151.198 18.014C151.198 17.066 150.946 16.34 150.442 15.836C149.95 15.32 149.344 15.062 148.624 15.062C147.904 15.062 147.298 15.32 146.806 15.836C146.326 16.34 146.086 17.066 146.086 18.014C146.086 18.962 146.32 19.694 146.788 20.21C147.268 20.714 147.868 20.966 148.588 20.966Z" fill="white"/>
</g>
<defs>
<clipPath id="clip0_2063_28759">
<rect width="160" height="34" fill="white"/>
</clipPath>
</defs>
</svg>
