<svg width="160" height="32" viewBox="0 0 160 32" fill="none" xmlns="http://www.w3.org/2000/svg">
<g clip-path="url(#clip0_2063_28758)">
<rect width="1.86888" height="32.0625" rx="0.934441" fill="#5103D4"/>
<rect width="1.86888" height="27.4821" rx="0.934441" transform="matrix(-1 0 0 1 4.96143 2.29004)" fill="#5103D4"/>
<rect width="1.86888" height="22.9018" rx="0.934441" transform="matrix(-1 0 0 1 8.26648 4.58044)" fill="#5103D4"/>
<rect width="1.86888" height="18.3214" rx="0.934441" transform="matrix(-1 0 0 1 11.6819 6.87061)" fill="#5103D4"/>
<rect width="1.86888" height="13.7411" rx="0.934441" transform="matrix(-1 0 0 1 15.0969 9.16064)" fill="#5103D4"/>
<rect x="16.9657" y="9.16064" width="1.86888" height="13.7411" rx="0.934441" fill="#5103D4"/>
<rect x="20.3809" y="6.87061" width="1.86888" height="18.3214" rx="0.934441" fill="#5103D4"/>
<rect x="23.7964" y="4.58044" width="1.86888" height="22.9018" rx="0.934441" fill="#5103D4"/>
<rect x="27.1011" y="2.29004" width="1.86888" height="27.4821" rx="0.934441" fill="#5103D4"/>
<rect width="1.86888" height="32.0625" rx="0.934441" transform="matrix(-1 0 0 1 32.0625 0)" fill="#5103D4"/>
<path d="M43.6995 14.0172C44.0235 13.5372 44.4675 13.1472 45.0315 12.8472C45.6075 12.5472 46.2615 12.3972 46.9935 12.3972C47.8455 12.3972 48.6135 12.6072 49.2975 13.0273C49.9935 13.4472 50.5395 14.0472 50.9355 14.8272C51.3435 15.5952 51.5475 16.4892 51.5475 17.5092C51.5475 18.5292 51.3435 19.4352 50.9355 20.2272C50.5395 21.0072 49.9935 21.6132 49.2975 22.0452C48.6135 22.4773 47.8455 22.6933 46.9935 22.6933C46.2495 22.6933 45.5955 22.5493 45.0315 22.2612C44.4795 21.9612 44.0355 21.5772 43.6995 21.1092V22.5312H41.1795V9.21125H43.6995V14.0172ZM48.9735 17.5092C48.9735 16.9092 48.8475 16.3932 48.5955 15.9612C48.3555 15.5172 48.0315 15.1812 47.6235 14.9532C47.2275 14.7252 46.7955 14.6112 46.3275 14.6112C45.8715 14.6112 45.4395 14.7312 45.0315 14.9712C44.6355 15.1992 44.3115 15.5352 44.0595 15.9792C43.8195 16.4232 43.6995 16.9452 43.6995 17.5452C43.6995 18.1452 43.8195 18.6672 44.0595 19.1112C44.3115 19.5552 44.6355 19.8972 45.0315 20.1372C45.4395 20.3652 45.8715 20.4792 46.3275 20.4792C46.7955 20.4792 47.2275 20.3592 47.6235 20.1192C48.0315 19.8792 48.3555 19.5372 48.5955 19.0932C48.8475 18.6492 48.9735 18.1212 48.9735 17.5092ZM62.3675 17.3292C62.3675 17.6892 62.3435 18.0132 62.2955 18.3012H55.0055C55.0655 19.0212 55.3175 19.5852 55.7615 19.9932C56.2055 20.4012 56.7515 20.6052 57.3995 20.6052C58.3355 20.6052 59.0015 20.2032 59.3975 19.3992H62.1155C61.8275 20.3592 61.2755 21.1512 60.4595 21.7752C59.6435 22.3872 58.6415 22.6933 57.4535 22.6933C56.4935 22.6933 55.6295 22.4833 54.8615 22.0632C54.1055 21.6312 53.5115 21.0252 53.0795 20.2452C52.6595 19.4652 52.4495 18.5652 52.4495 17.5452C52.4495 16.5132 52.6595 15.6072 53.0795 14.8272C53.4995 14.0472 54.0875 13.4472 54.8435 13.0273C55.5995 12.6072 56.4695 12.3972 57.4535 12.3972C58.4015 12.3972 59.2475 12.6012 59.9915 13.0092C60.7475 13.4172 61.3295 13.9992 61.7375 14.7552C62.1575 15.4992 62.3675 16.3572 62.3675 17.3292ZM59.7575 16.6092C59.7455 15.9612 59.5115 15.4452 59.0555 15.0612C58.5995 14.6652 58.0415 14.4672 57.3815 14.4672C56.7575 14.4672 56.2295 14.6592 55.7975 15.0432C55.3775 15.4152 55.1195 15.9372 55.0235 16.6092H59.7575ZM63.2776 17.5092C63.2776 16.5012 63.4756 15.6072 63.8716 14.8272C64.2796 14.0472 64.8256 13.4472 65.5096 13.0273C66.2056 12.6072 66.9796 12.3972 67.8316 12.3972C68.5756 12.3972 69.2236 12.5472 69.7756 12.8472C70.3396 13.1472 70.7896 13.5252 71.1256 13.9812V12.5592H73.6636V22.5312H71.1256V21.0732C70.8016 21.5412 70.3516 21.9312 69.7756 22.2432C69.2116 22.5433 68.5576 22.6933 67.8136 22.6933C66.9736 22.6933 66.2056 22.4773 65.5096 22.0452C64.8256 21.6132 64.2796 21.0072 63.8716 20.2272C63.4756 19.4352 63.2776 18.5292 63.2776 17.5092ZM71.1256 17.5452C71.1256 16.9332 71.0056 16.4112 70.7656 15.9792C70.5256 15.5352 70.2016 15.1992 69.7936 14.9712C69.3856 14.7312 68.9476 14.6112 68.4796 14.6112C68.0116 14.6112 67.5796 14.7252 67.1836 14.9532C66.7876 15.1812 66.4636 15.5172 66.2116 15.9612C65.9716 16.3932 65.8516 16.9092 65.8516 17.5092C65.8516 18.1092 65.9716 18.6372 66.2116 19.0932C66.4636 19.5372 66.7876 19.8792 67.1836 20.1192C67.5916 20.3592 68.0236 20.4792 68.4796 20.4792C68.9476 20.4792 69.3856 20.3652 69.7936 20.1372C70.2016 19.8972 70.5256 19.5612 70.7656 19.1292C71.0056 18.6852 71.1256 18.1572 71.1256 17.5452ZM78.7776 14.6292V19.4532C78.7776 19.7892 78.8556 20.0352 79.0116 20.1912C79.1796 20.3352 79.4556 20.4072 79.8396 20.4072H81.0096V22.5312H79.4256C77.3016 22.5312 76.2396 21.4992 76.2396 19.4352V14.6292H75.0516V12.5592H76.2396V10.0932H78.7776V12.5592H81.0096V14.6292H78.7776ZM90.0648 22.5312L87.3468 18.3012L84.8808 22.5312H82.0368L85.9968 16.1952L81.9828 9.96725H84.8808L87.5988 14.1792L90.0468 9.96725H92.8908L88.9488 16.2852L92.9628 22.5312H90.0648ZM102.423 22.6933C101.607 22.6933 100.875 22.5493 100.227 22.2612C99.5792 21.9612 99.0632 21.5592 98.6792 21.0552C98.3072 20.5512 98.1032 19.9932 98.0672 19.3812H100.605C100.653 19.7652 100.839 20.0832 101.163 20.3352C101.499 20.5872 101.913 20.7132 102.405 20.7132C102.885 20.7132 103.257 20.6172 103.521 20.4252C103.797 20.2332 103.935 19.9872 103.935 19.6872C103.935 19.3632 103.767 19.1232 103.431 18.9672C103.107 18.7992 102.585 18.6192 101.865 18.4272C101.121 18.2472 100.509 18.0612 100.029 17.8692C99.5612 17.6772 99.1532 17.3832 98.8052 16.9872C98.4692 16.5912 98.3012 16.0572 98.3012 15.3852C98.3012 14.8332 98.4572 14.3292 98.7692 13.8732C99.0932 13.4172 99.5492 13.0572 100.137 12.7932C100.737 12.5292 101.439 12.3972 102.243 12.3972C103.431 12.3972 104.379 12.6972 105.087 13.2972C105.795 13.8852 106.185 14.6832 106.257 15.6912H103.845C103.809 15.2952 103.641 14.9832 103.341 14.7552C103.053 14.5152 102.663 14.3952 102.171 14.3952C101.715 14.3952 101.361 14.4792 101.109 14.6472C100.869 14.8152 100.749 15.0492 100.749 15.3492C100.749 15.6852 100.917 15.9432 101.253 16.1232C101.589 16.2912 102.111 16.4652 102.819 16.6452C103.539 16.8252 104.133 17.0112 104.601 17.2032C105.069 17.3952 105.471 17.6952 105.807 18.1032C106.155 18.4992 106.335 19.0272 106.347 19.6872C106.347 20.2632 106.185 20.7792 105.861 21.2352C105.549 21.6912 105.093 22.0512 104.493 22.3152C103.905 22.5673 103.215 22.6933 102.423 22.6933ZM111.069 14.6292V19.4532C111.069 19.7892 111.147 20.0352 111.303 20.1912C111.471 20.3352 111.747 20.4072 112.131 20.4072H113.301V22.5312H111.717C109.593 22.5312 108.531 21.4992 108.531 19.4352V14.6292H107.343V12.5592H108.531V10.0932H111.069V12.5592H113.301V14.6292H111.069ZM124.246 12.5592V22.5312H121.708V21.2712C121.384 21.7032 120.958 22.0452 120.43 22.2972C119.914 22.5373 119.35 22.6573 118.738 22.6573C117.958 22.6573 117.268 22.4952 116.668 22.1712C116.068 21.8352 115.594 21.3492 115.246 20.7132C114.91 20.0652 114.742 19.2972 114.742 18.4092V12.5592H117.262V18.0492C117.262 18.8412 117.46 19.4532 117.856 19.8853C118.252 20.3052 118.792 20.5152 119.476 20.5152C120.172 20.5152 120.718 20.3052 121.114 19.8853C121.51 19.4532 121.708 18.8412 121.708 18.0492V12.5592H124.246ZM125.803 17.5092C125.803 16.5012 126.001 15.6072 126.397 14.8272C126.805 14.0472 127.357 13.4472 128.053 13.0273C128.749 12.6072 129.523 12.3972 130.375 12.3972C131.023 12.3972 131.641 12.5412 132.229 12.8292C132.817 13.1052 133.285 13.4772 133.633 13.9452V9.21125H136.189V22.5312H133.633V21.0552C133.321 21.5472 132.883 21.9432 132.319 22.2432C131.755 22.5433 131.101 22.6933 130.357 22.6933C129.517 22.6933 128.749 22.4773 128.053 22.0452C127.357 21.6132 126.805 21.0072 126.397 20.2272C126.001 19.4352 125.803 18.5292 125.803 17.5092ZM133.651 17.5452C133.651 16.9332 133.531 16.4112 133.291 15.9792C133.051 15.5352 132.727 15.1992 132.319 14.9712C131.911 14.7312 131.473 14.6112 131.005 14.6112C130.537 14.6112 130.105 14.7252 129.709 14.9532C129.313 15.1812 128.989 15.5172 128.737 15.9612C128.497 16.3932 128.377 16.9092 128.377 17.5092C128.377 18.1092 128.497 18.6372 128.737 19.0932C128.989 19.5372 129.313 19.8792 129.709 20.1192C130.117 20.3592 130.549 20.4792 131.005 20.4792C131.473 20.4792 131.911 20.3652 132.319 20.1372C132.727 19.8972 133.051 19.5612 133.291 19.1292C133.531 18.6852 133.651 18.1572 133.651 17.5452ZM139.647 11.3712C139.203 11.3712 138.831 11.2332 138.531 10.9572C138.243 10.6692 138.099 10.3152 138.099 9.89525C138.099 9.47525 138.243 9.12725 138.531 8.85125C138.831 8.56325 139.203 8.41925 139.647 8.41925C140.091 8.41925 140.457 8.56325 140.745 8.85125C141.045 9.12725 141.195 9.47525 141.195 9.89525C141.195 10.3152 141.045 10.6692 140.745 10.9572C140.457 11.2332 140.091 11.3712 139.647 11.3712ZM140.889 12.5592V22.5312H138.369V12.5592H140.889ZM147.525 22.6933C146.565 22.6933 145.701 22.4833 144.933 22.0632C144.165 21.6312 143.559 21.0252 143.115 20.2452C142.683 19.4652 142.467 18.5652 142.467 17.5452C142.467 16.5252 142.689 15.6252 143.133 14.8452C143.589 14.0652 144.207 13.4652 144.987 13.0452C145.767 12.6132 146.637 12.3972 147.597 12.3972C148.557 12.3972 149.427 12.6132 150.207 13.0452C150.987 13.4652 151.599 14.0652 152.043 14.8452C152.499 15.6252 152.727 16.5252 152.727 17.5452C152.727 18.5652 152.493 19.4652 152.025 20.2452C151.569 21.0252 150.945 21.6312 150.153 22.0632C149.373 22.4833 148.497 22.6933 147.525 22.6933ZM147.525 20.4972C147.981 20.4972 148.407 20.3892 148.803 20.1732C149.211 19.9452 149.535 19.6092 149.775 19.1652C150.015 18.7212 150.135 18.1812 150.135 17.5452C150.135 16.5972 149.883 15.8712 149.379 15.3672C148.887 14.8512 148.281 14.5932 147.561 14.5932C146.841 14.5932 146.235 14.8512 145.743 15.3672C145.263 15.8712 145.023 16.5972 145.023 17.5452C145.023 18.4932 145.257 19.2252 145.725 19.7412C146.205 20.2452 146.805 20.4972 147.525 20.4972Z" fill="black"/>
</g>
<defs>
<clipPath id="clip0_2063_28758">
<rect width="160" height="32" fill="white"/>
</clipPath>
</defs>
</svg>
