<svg width="148" height="32" viewBox="0 0 148 32" fill="none" xmlns="http://www.w3.org/2000/svg">
<g clip-path="url(#clip0_2063_28757)">
<g clip-path="url(#clip1_2063_28757)">
<path d="M27.8218 16V14.3215H29.4653V5.43934H27.8218V3.76082H32.7174C34.3493 3.76082 35.5966 4.17463 36.4591 5.00223C37.3334 5.82983 37.7705 7.07706 37.7705 8.74392V11.0344C37.7705 12.7013 37.3334 13.9485 36.4591 14.7761C35.5966 15.592 34.3493 16 32.7174 16H27.8218ZM31.3711 14.2865H32.7349C33.7957 14.2865 34.5825 14.0184 35.0953 13.4822C35.6082 12.946 35.8647 12.1476 35.8647 11.0868V8.67398C35.8647 7.60159 35.6082 6.80313 35.0953 6.2786C34.5825 5.75406 33.7957 5.49179 32.7349 5.49179H31.3711V14.2865ZM39.2798 16V3.76082H46.9905V5.47431H41.1682V8.9887H46.5009V10.7022H41.1682V14.2865H47.0779V16H39.2798ZM52.5834 16.2448C51.6626 16.2448 50.8466 16.0816 50.1356 15.7552C49.4246 15.4288 48.8651 14.9509 48.4571 14.3215C48.0608 13.6804 47.8626 12.9052 47.8626 11.996V11.5589H49.7335V11.996C49.7335 12.8586 49.9899 13.5055 50.5028 13.9368C51.0273 14.3681 51.7209 14.5838 52.5834 14.5838C53.4577 14.5838 54.1163 14.4031 54.5592 14.0417C55.0021 13.6687 55.2236 13.1908 55.2236 12.608C55.2236 12.2233 55.1187 11.9086 54.9089 11.6638C54.6991 11.4191 54.4018 11.2267 54.0172 11.0868C53.6325 10.9353 53.1721 10.7954 52.6359 10.6672L51.989 10.5099C51.208 10.3234 50.5261 10.0961 49.9433 9.82796C49.3721 9.54821 48.9292 9.18103 48.6145 8.72643C48.2997 8.27184 48.1424 7.68902 48.1424 6.97798C48.1424 6.25529 48.3172 5.6375 48.6669 5.12462C49.0283 4.61174 49.5237 4.21542 50.1531 3.93567C50.7825 3.65592 51.5227 3.51604 52.3736 3.51604C53.2245 3.51604 53.9822 3.66175 54.6466 3.95316C55.3227 4.24456 55.8531 4.67585 56.2377 5.24701C56.6224 5.81817 56.8147 6.53504 56.8147 7.39761V8.02705H54.9439V7.39761C54.9439 6.87307 54.8331 6.44762 54.6117 6.12124C54.4018 5.79486 54.1046 5.5559 53.7199 5.40437C53.3353 5.25284 52.8865 5.17707 52.3736 5.17707C51.6276 5.17707 51.0448 5.33443 50.6252 5.64916C50.2172 5.95222 50.0132 6.37768 50.0132 6.92553C50.0132 7.29853 50.1006 7.60742 50.2755 7.85221C50.462 8.08533 50.7301 8.27766 51.0798 8.4292C51.4295 8.58073 51.8666 8.71478 52.3911 8.83134L53.038 8.9887C53.8307 9.16355 54.5301 9.39085 55.1362 9.6706C55.7423 9.93869 56.2202 10.3059 56.5699 10.7721C56.9196 11.2384 57.0945 11.8387 57.0945 12.573C57.0945 13.3074 56.908 13.9485 56.535 14.4963C56.1736 15.0442 55.6549 15.4755 54.9788 15.7902C54.3028 16.0933 53.5043 16.2448 52.5834 16.2448ZM58.4523 16V3.76082H60.3406V16H58.4523ZM66.516 16.2448C65.6418 16.2448 64.8608 16.0583 64.1731 15.6853C63.4854 15.3006 62.9434 14.7411 62.5471 14.0068C62.1507 13.2724 61.9526 12.3749 61.9526 11.3141V8.44668C61.9526 6.84976 62.3897 5.63167 63.2639 4.79241C64.1381 3.9415 65.3213 3.51604 66.8133 3.51604C68.282 3.51604 69.4127 3.91819 70.2053 4.72247C70.9979 5.51511 71.3942 6.58166 71.3942 7.92214V8.00957H69.5234V7.86969C69.5234 7.36847 69.4243 6.9197 69.2261 6.52338C69.028 6.11541 68.7308 5.79486 68.3344 5.56173C67.9381 5.3286 67.4311 5.21204 66.8133 5.21204C65.8808 5.21204 65.1523 5.49762 64.6277 6.06878C64.1032 6.62829 63.8409 7.40926 63.8409 8.41171V11.3491C63.8409 12.3399 64.1032 13.1267 64.6277 13.7095C65.1523 14.2807 65.8866 14.5663 66.8308 14.5663C67.7633 14.5663 68.4452 14.3098 68.8765 13.7969C69.3077 13.2841 69.5234 12.6197 69.5234 11.8037V11.5764H66.2363V9.95035H71.3942V16H69.6458V14.7586H69.366C69.2611 14.9801 69.1038 15.2074 68.8939 15.4405C68.6958 15.6736 68.4044 15.866 68.0197 16.0175C67.6467 16.169 67.1455 16.2448 66.516 16.2448ZM73.2025 16V3.76082H76.8392L80.1613 14.7411H80.4411V3.76082H82.3119V16H78.6751L75.3531 5.00223H75.0733V16H73.2025ZM90.4969 16V5.47431H86.7377V3.76082H96.1444V5.47431H92.3852V16H90.4969ZM101.318 16.2448C99.814 16.2448 98.6192 15.8252 97.7334 14.9859C96.8475 14.135 96.4045 12.9111 96.4045 11.3141V8.44668C96.4045 6.84976 96.8475 5.63167 97.7334 4.79241C98.6192 3.9415 99.814 3.51604 101.318 3.51604C102.821 3.51604 104.016 3.9415 104.902 4.79241C105.8 5.63167 106.248 6.84976 106.248 8.44668V11.3141C106.248 12.9111 105.8 14.135 104.902 14.9859C104.016 15.8252 102.821 16.2448 101.318 16.2448ZM101.318 14.5488C102.285 14.5488 103.031 14.269 103.556 13.7095C104.08 13.1384 104.343 12.3632 104.343 11.3841V8.37674C104.343 7.39761 104.08 6.62829 103.556 6.06878C103.031 5.49762 102.285 5.21204 101.318 5.21204C100.374 5.21204 99.6333 5.49762 99.0971 6.06878C98.561 6.62829 98.2929 7.39761 98.2929 8.37674V11.3841C98.2929 12.3632 98.561 13.1384 99.0971 13.7095C99.6333 14.269 100.374 14.5488 101.318 14.5488ZM107.859 16V3.76082H109.748V8.84882H110.027L114.591 3.76082H117.056L111.531 9.79299L117.248 16H114.713L110.027 10.8071H109.748V16H107.859ZM118.043 16V3.76082H125.754V5.47431H119.931V8.9887H125.264V10.7022H119.931V14.2865H125.841V16H118.043ZM127.185 16V3.76082H130.822L134.144 14.7411H134.424V3.76082H136.295V16H132.658L129.336 5.00223H129.056V16H127.185ZM142.384 16.2448C141.464 16.2448 140.648 16.0816 139.937 15.7552C139.226 15.4288 138.666 14.9509 138.258 14.3215C137.862 13.6804 137.664 12.9052 137.664 11.996V11.5589H139.534V11.996C139.534 12.8586 139.791 13.5055 140.304 13.9368C140.828 14.3681 141.522 14.5838 142.384 14.5838C143.259 14.5838 143.917 14.4031 144.36 14.0417C144.803 13.6687 145.025 13.1908 145.025 12.608C145.025 12.2233 144.92 11.9086 144.71 11.6638C144.5 11.4191 144.203 11.2267 143.818 11.0868C143.433 10.9353 142.973 10.7954 142.437 10.6672L141.79 10.5099C141.009 10.3234 140.327 10.0961 139.744 9.82796C139.173 9.54821 138.73 9.18103 138.415 8.72643C138.101 8.27184 137.943 7.68902 137.943 6.97798C137.943 6.25529 138.118 5.6375 138.468 5.12462C138.829 4.61174 139.325 4.21542 139.954 3.93567C140.583 3.65592 141.324 3.51604 142.175 3.51604C143.025 3.51604 143.783 3.66175 144.448 3.95316C145.124 4.24456 145.654 4.67585 146.039 5.24701C146.423 5.81817 146.616 6.53504 146.616 7.39761V8.02705H144.745V7.39761C144.745 6.87307 144.634 6.44762 144.413 6.12124C144.203 5.79486 143.906 5.5559 143.521 5.40437C143.136 5.25284 142.687 5.17707 142.175 5.17707C141.429 5.17707 140.846 5.33443 140.426 5.64916C140.018 5.95222 139.814 6.37768 139.814 6.92553C139.814 7.29853 139.902 7.60742 140.076 7.85221C140.263 8.08533 140.531 8.27766 140.881 8.4292C141.23 8.58073 141.668 8.71478 142.192 8.83134L142.839 8.9887C143.632 9.16355 144.331 9.39085 144.937 9.6706C145.543 9.93869 146.021 10.3059 146.371 10.7721C146.721 11.2384 146.895 11.8387 146.895 12.573C146.895 13.3074 146.709 13.9485 146.336 14.4963C145.975 15.0442 145.456 15.4755 144.78 15.7902C144.104 16.0933 143.305 16.2448 142.384 16.2448ZM27.9991 30V21.2577H33.3819V22.2069H29.0482V25.1293H33.0322V26.0785H29.0482V29.0508H33.4443V30H27.9991ZM34.4119 30V21.2577H36.4476L39.4949 29.3381H39.6573V21.2577H40.6938V30H38.6581L35.6233 21.9072H35.4485V30H34.4119ZM44.6641 30V21.2577H50.0468V22.2069H45.7131V25.1293H49.6971V26.0785H45.7131V29.0508H50.1092V30H44.6641ZM53.9868 30.1748C53.354 30.1748 52.7878 30.0624 52.2883 29.8376C51.7887 29.6128 51.3932 29.2756 51.1018 28.826C50.8187 28.3681 50.6772 27.7978 50.6772 27.1151V26.8528H51.7138V27.1151C51.7138 27.8394 51.9261 28.3806 52.3507 28.7386C52.7753 29.0883 53.3207 29.2632 53.9868 29.2632C54.6695 29.2632 55.1899 29.1091 55.5479 28.8011C55.9059 28.493 56.0849 28.1058 56.0849 27.6396C56.0849 27.3149 56.0017 27.0568 55.8351 26.8653C55.6769 26.6738 55.4521 26.5197 55.1607 26.4032C54.8693 26.2783 54.528 26.1701 54.1366 26.0785L53.4872 25.9161C52.9793 25.7829 52.5297 25.6205 52.1384 25.429C51.7471 25.2375 51.439 24.9878 51.2142 24.6797C50.9978 24.3633 50.8895 23.9595 50.8895 23.4683C50.8895 22.977 51.0102 22.5524 51.2517 22.1944C51.5015 21.8364 51.847 21.5616 52.2883 21.3701C52.7379 21.1786 53.2541 21.0829 53.8369 21.0829C54.4281 21.0829 54.9568 21.187 55.423 21.3951C55.8976 21.5949 56.2681 21.8947 56.5345 22.2943C56.8093 22.6856 56.9467 23.181 56.9467 23.7805V24.305H55.9101V23.7805C55.9101 23.3559 55.8185 23.0145 55.6353 22.7564C55.4605 22.4983 55.2149 22.3068 54.8985 22.1819C54.5904 22.057 54.2366 21.9946 53.8369 21.9946C53.2624 21.9946 52.8003 22.1236 52.4506 22.3817C52.1009 22.6315 51.9261 22.9895 51.9261 23.4558C51.9261 23.7638 52.001 24.0136 52.1509 24.2051C52.3008 24.3966 52.5131 24.5548 52.7878 24.6797C53.0626 24.7963 53.3915 24.9003 53.7745 24.9919L54.4239 25.1543C54.9318 25.2625 55.3855 25.4124 55.7852 25.6039C56.1932 25.7871 56.5179 26.041 56.7593 26.3657C57.0008 26.6821 57.1215 27.0984 57.1215 27.6146C57.1215 28.1308 56.9924 28.5804 56.7343 28.9634C56.4762 29.3464 56.1099 29.6461 55.6353 29.8626C55.1691 30.0708 54.6195 30.1748 53.9868 30.1748ZM58.1116 30V21.2577H61.4587C61.9832 21.2577 62.4495 21.3618 62.8574 21.57C63.2737 21.7698 63.6026 22.057 63.8441 22.4317C64.0855 22.8064 64.2063 23.2601 64.2063 23.793V23.9553C64.2063 24.4799 64.0814 24.9336 63.8316 25.3166C63.5901 25.6913 63.2613 25.9786 62.845 26.1784C62.4287 26.3782 61.9666 26.4781 61.4587 26.4781H59.1607V30H58.1116ZM59.1607 25.529H61.3463C61.9041 25.529 62.3454 25.3916 62.6701 25.1168C62.9948 24.8337 63.1572 24.4383 63.1572 23.9304V23.8055C63.1572 23.2976 62.9948 22.9063 62.6701 22.6315C62.3537 22.3484 61.9124 22.2069 61.3463 22.2069H59.1607V25.529ZM63.5936 30L66.2912 21.2577H68.1396L70.8372 30H69.7507L69.0763 27.7895H65.3546L64.6802 30H63.5936ZM65.6168 26.8403H68.8015L67.3028 21.8947H67.128L65.6168 26.8403ZM71.5226 30V21.2577H73.5583L76.6056 29.3381H76.768V21.2577H77.8046V30H75.7689L72.7341 21.9072H72.5592V30H71.5226ZM73.2086 20.5334L72.6217 20.1337L73.0213 19.5093C73.1295 19.3511 73.2544 19.222 73.396 19.1221C73.5375 19.0139 73.7165 18.9598 73.933 18.9598C74.1245 18.9598 74.291 19.0014 74.4326 19.0847C74.5824 19.1679 74.7365 19.2928 74.8946 19.4593C75.0029 19.5676 75.0945 19.655 75.1694 19.7216C75.2443 19.7799 75.3318 19.809 75.4317 19.809C75.5316 19.809 75.6107 19.7799 75.669 19.7216C75.7356 19.6633 75.798 19.5925 75.8563 19.5093L76.181 18.9972L76.768 19.3969L76.3683 20.0213C76.2684 20.1712 76.1477 20.3002 76.0062 20.4085C75.8646 20.5167 75.6856 20.5708 75.4691 20.5708C75.2693 20.5708 75.0986 20.5292 74.9571 20.4459C74.8156 20.3627 74.6657 20.2378 74.5075 20.0713C74.3993 19.963 74.3077 19.8798 74.2327 19.8215C74.1578 19.7632 74.0704 19.7341 73.9705 19.7341C73.8706 19.7341 73.7873 19.7632 73.7207 19.8215C73.6541 19.8798 73.5916 19.9506 73.5334 20.0338L73.2086 20.5334ZM82.3638 30.1748C81.3231 30.1748 80.4905 29.8751 79.866 29.2756C79.2499 28.6678 78.9418 27.7853 78.9418 26.628V24.6297C78.9418 23.4724 79.2499 22.5941 79.866 21.9946C80.4905 21.3868 81.3231 21.0829 82.3638 21.0829C83.4129 21.0829 84.2455 21.3868 84.8616 21.9946C85.4861 22.5941 85.7983 23.4724 85.7983 24.6297V26.628C85.7983 27.7853 85.4861 28.6678 84.8616 29.2756C84.2455 29.8751 83.4129 30.1748 82.3638 30.1748ZM82.3638 29.2382C83.1215 29.2382 83.7085 29.0134 84.1248 28.5638C84.5411 28.1058 84.7492 27.4731 84.7492 26.6654V24.5923C84.7492 23.7847 84.5411 23.1561 84.1248 22.7065C83.7085 22.2485 83.1215 22.0196 82.3638 22.0196C81.6145 22.0196 81.0317 22.2485 80.6154 22.7065C80.1991 23.1561 79.9909 23.7847 79.9909 24.5923V26.6654C79.9909 27.4731 80.1991 28.1058 80.6154 28.5638C81.0317 29.0134 81.6145 29.2382 82.3638 29.2382ZM86.9216 30V21.2577H87.9707V29.0508H92.3918V30H86.9216Z" fill="black"/>
</g>
<circle cx="12.04" cy="16.5283" r="8.0722" stroke="black" stroke-width="1.5" stroke-dasharray="2.5 2.5"/>
<path d="M7.65528 8.87184C8.6606 8.29602 9.76949 7.92385 10.9186 7.77658C12.0678 7.62931 13.2347 7.70982 14.3527 8.01352C15.4708 8.31722 16.518 8.83816 17.4347 9.54659C18.3514 10.255 19.1196 11.1371 19.6955 12.1424C20.2713 13.1477 20.6434 14.2566 20.7907 15.4058C20.938 16.5549 20.8575 17.7218 20.5538 18.8398C20.2501 19.9579 19.7291 21.0051 19.0207 21.9219C18.3123 22.8386 17.4302 23.6068 16.4249 24.1826L12.0401 16.5272L7.65528 8.87184Z" fill="black"/>
<rect x="4" y="4.75" width="1.5" height="27.4247" transform="rotate(-30 4 4.75)" fill="black"/>
</g>
<defs>
<clipPath id="clip0_2063_28757">
<rect width="148" height="32" fill="white"/>
</clipPath>
<clipPath id="clip1_2063_28757">
<rect width="132" height="32" fill="white" transform="translate(27)"/>
</clipPath>
</defs>
</svg>
