<svg width="176" height="88" viewBox="0 0 176 88" fill="none" xmlns="http://www.w3.org/2000/svg">
<path d="M75.1809 27.7013H102.832V24.7469H85.2523C81.5315 24.7469 78.0711 25.8389 75.1809 27.7013Z" fill="#023F88"/>
<path d="M102.832 29.562H72.7796C71.7981 30.4553 70.9085 31.4411 70.1489 32.5225H102.832V29.562Z" fill="#023F88"/>
<path d="M57.8518 34.3831H40.0822C41.3157 35.5468 42.7489 36.5311 44.2787 37.3432H61.8335C60.6691 36.2007 59.3155 35.2107 57.8518 34.3831Z" fill="#023F88"/>
<path d="M38.4088 32.5221H53.6961C53.0336 32.2918 52.3704 32.0805 51.7105 31.9043C51.2484 31.7816 48.6664 31.0432 46.6101 29.5616H36.7544C37.1678 30.6308 37.7292 31.6173 38.4088 32.5221Z" fill="#023F88"/>
<path d="M139.099 39.2042H129.657L123.055 49.486L132.456 49.4701L139.099 39.2042Z" fill="#023F88"/>
<path d="M44.4631 22.8802C45.4498 20.4974 47.85 18.8101 50.6524 18.8101H141.192V11.0129H50.6528C43.3984 11.0129 37.3678 16.1533 36.1833 22.8805L44.4631 22.8802Z" fill="#023F88"/>
<path d="M112.961 27.7013H141.192V24.748V24.7469H123.03C119.31 24.7469 115.849 25.8389 112.961 27.7013Z" fill="#023F88"/>
<path d="M132.751 34.3831L130.851 37.3432H140.304L141.191 35.9696V34.3831H132.751Z" fill="#023F88"/>
<path d="M102.832 34.3827H94.8076V37.3432H102.832V34.3827Z" fill="#023F88"/>
<path d="M75.0102 42.4872C75.0102 41.3357 75.2233 40.234 75.5954 39.2042H67.3093C67.1026 40.2698 66.9829 41.3649 66.9829 42.4872C66.9829 52.2695 75.1783 60.2288 85.2522 60.2288H91.3917V52.4342H85.2522C79.6035 52.4338 75.0102 47.973 75.0102 42.4872Z" fill="#023F88"/>
<path d="M48.8497 39.2042C49.0976 39.2779 49.3456 39.3562 49.5932 39.422C52.5934 40.2199 57.6655 42.511 57.6655 46.0405C57.6655 49.6102 54.6735 52.5198 50.9933 52.5198H35.8079V60.3144H50.9929C59.0957 60.3144 65.6903 53.9099 65.6903 46.0402C65.6903 43.4054 64.8259 41.1349 63.4355 39.2039L48.8497 39.2042Z" fill="#023F88"/>
<path d="M102.831 39.2035H94.8071V60.2295H102.831V39.2035Z" fill="#023F88"/>
<path d="M112.788 42.4872C112.788 41.3357 113.001 40.234 113.375 39.2042H105.09C104.883 40.2698 104.764 41.3649 104.764 42.4872C104.764 52.2695 112.958 60.2299 123.03 60.2299H141.192V52.4374H123.03C117.386 52.4374 112.788 47.973 112.788 42.4872Z" fill="#023F88"/>
<path d="M110.559 29.562C109.578 30.4553 108.69 31.4411 107.929 32.5225H141.193V29.562H110.559Z" fill="#023F88"/>
<path d="M117.119 34.3831H106.8C106.299 35.3248 105.877 36.3119 105.553 37.3432H114.284C115.012 36.1787 115.976 35.1702 117.119 34.3831Z" fill="#023F88"/>
<path d="M79.3385 34.3831H69.0199C68.5187 35.3248 68.0949 36.3119 67.7722 37.3432H76.5033C77.2324 36.1787 78.1979 35.1702 79.3385 34.3831Z" fill="#023F88"/>
<path d="M35.9855 24.7408C35.9781 24.9239 35.9573 25.1045 35.9573 25.2893C35.9573 26.1328 36.0539 26.9319 36.2116 27.7017H44.7486C44.2802 26.9947 43.9798 26.196 43.9798 25.2893C43.9798 25.1045 43.9928 24.9217 44.0088 24.7408H35.9855Z" fill="#023F88"/>
<path d="M37.2388 68.1145H35.8442V76.597H37.2388V68.1145Z" fill="#023F88"/>
<path d="M45.8848 68.1152H47.5841L50.117 74.4349H50.1412V68.1152H51.4621V76.5977H49.7624L47.2295 70.1102H47.2057V76.5977H45.8848V68.1152Z" fill="#023F88"/>
<path d="M61.2445 73.9723V74.1857C61.2445 75.2194 61.7096 75.7419 62.6754 75.7419C63.5565 75.7419 63.9975 75.136 63.9975 74.5077C63.9975 73.6159 63.532 73.2241 62.7498 72.9981L61.7951 72.6774C60.5232 72.2015 59.9726 71.5599 59.9726 70.3481C59.9726 68.8034 61.0493 67.9487 62.6885 67.9487C64.9269 67.9487 65.1593 69.3024 65.1593 70.182V70.3701H63.7659V70.1943C63.7659 69.4212 63.4101 68.9706 62.542 68.9706C61.943 68.9706 61.3683 69.2912 61.3683 70.1943C61.3683 70.9182 61.7468 71.2873 62.6762 71.6307L63.619 71.9629C64.854 72.3904 65.392 73.0454 65.392 74.2095C65.392 76.0167 64.2666 76.7649 62.5044 76.7649C60.3403 76.7649 59.8507 75.361 59.8507 74.1745V73.9723H61.2445Z" fill="#023F88"/>
<path d="M75.2106 69.2548H73.1309V68.1152H78.6484V69.2548H76.6055V76.5981H75.2106V69.2548Z" fill="#023F88"/>
<path d="M88.0386 68.1145H86.644V76.597H88.0386V68.1145Z" fill="#023F88"/>
<path d="M98.1167 69.2548H96.0359V68.1152H101.553V69.2548H99.5109V76.5981H98.1167V69.2548Z" fill="#023F88"/>
<path d="M110.895 68.1152V74.1987C110.895 75.2679 111.336 75.7427 112.179 75.7427C113.011 75.7427 113.452 75.2679 113.452 74.1987V68.1152H114.847V74.0904C114.847 76.0514 113.843 76.7653 112.179 76.7653C110.503 76.7653 109.501 76.0514 109.501 74.0904V68.1152H110.895Z" fill="#023F88"/>
<path d="M124.874 69.2548H122.794V68.1152H128.31V69.2548H126.268V76.5981H124.874V69.2548Z" fill="#023F88"/>
<path d="M136.368 68.1152H141.09V69.2552H137.763V71.6072H140.896V72.7479H137.763V75.4574H141.188V76.5977H136.368V68.1152Z" fill="#023F88"/>
</svg>
