<svg width="176" height="88" viewBox="0 0 176 88" fill="none" xmlns="http://www.w3.org/2000/svg">
<path fill-rule="evenodd" clip-rule="evenodd" d="M92.5207 8.82991C87.186 8.82991 82.3573 11.0666 78.8876 14.6785L78.8914 14.6989C75.098 9.7001 69.0517 6.47949 62.2944 6.47949C50.7555 6.47949 41.39 15.8054 41.39 27.3444C41.387 30.1992 41.9722 33.0241 43.109 35.6429C37.7505 38.8042 34.1387 44.6527 34.1387 51.3706C34.1387 61.3683 42.1606 69.5086 52.0793 69.5086C53.3196 69.5098 54.5566 69.381 55.7702 69.1245C58.4968 76.5146 65.5701 81.7701 73.9087 81.7701C81.8909 81.7701 88.7468 76.9093 91.691 69.9938C94.0048 71.1221 96.5461 71.706 99.1201 71.701C105.443 71.701 110.995 68.1842 113.9 63.0072C115.393 63.3046 116.919 63.4617 118.483 63.4617C131.287 63.4617 141.68 52.9899 141.68 40.068C141.68 27.146 131.287 16.674 118.483 16.674C115.256 16.6724 112.064 17.3524 109.118 18.6696C105.799 12.7816 99.6336 8.82991 92.5207 8.82991ZM97.714 32.8081C97.922 32.8444 98.1282 32.8931 98.33 32.9543C98.3746 32.9716 98.494 33.0309 98.445 33.1716L97.9685 34.4804C97.9283 34.5788 97.9013 34.6389 97.6982 34.5768C97.6473 34.5618 97.5725 34.5401 97.3789 34.499C97.2388 34.4697 97.0546 34.4472 96.8666 34.4472C96.6404 34.4441 96.4147 34.4767 96.1978 34.5436C96.0005 34.6084 95.8213 34.7198 95.6761 34.8685C95.5202 35.0246 95.3367 35.2518 95.2386 35.5335C95.0379 36.1126 94.9436 36.7234 94.9171 36.8948C94.9134 36.9187 94.9111 36.934 94.9099 36.9396H96.9025C97.069 36.9388 97.1225 37.0162 97.1061 37.1403L96.8736 38.4364C96.8377 38.6241 96.6649 38.6179 96.6649 38.6179H94.6113L93.2071 46.5643C93.0594 47.3858 92.8752 48.0908 92.659 48.6587C92.4409 49.2317 92.2121 49.6517 91.8494 50.0528C91.5131 50.4247 91.1334 50.6993 90.6972 50.857C90.2635 51.0135 89.7412 51.0941 89.1673 51.0941C88.8932 51.0941 88.6009 51.089 88.254 51.0071C88.0044 50.9483 87.868 50.9064 87.6845 50.8407C87.6059 50.8127 87.5443 50.7155 87.5883 50.5922C87.6317 50.4674 87.9988 49.4577 88.0509 49.3253C88.1144 49.1633 88.276 49.2249 88.276 49.2249L88.2859 49.2291C88.3919 49.2736 88.4683 49.3056 88.6122 49.334C88.7606 49.3637 88.9611 49.3889 89.112 49.3889C89.3835 49.3889 89.6305 49.3557 89.8455 49.2834C90.1057 49.1961 90.2572 49.0463 90.4162 48.8428C90.5803 48.6326 90.7142 48.3429 90.8512 47.9564C90.9895 47.5648 91.1146 47.0479 91.2246 46.4196L92.6219 38.6179H91.2447C91.0788 38.6186 91.0253 38.5412 91.0417 38.4171L91.2736 37.1209C91.3101 36.9325 91.4829 36.9396 91.4829 36.9396H92.8978L92.9739 36.5171C93.1857 35.2656 93.6075 34.3145 94.2266 33.6901C94.8508 33.061 95.7396 32.7425 96.8666 32.7425C97.1508 32.7394 97.4342 32.7613 97.714 32.8081ZM70.3026 46.6255C70.4069 46.6255 70.4811 46.5406 70.4811 46.4362V33.1317C70.4811 33.0278 70.4069 32.9436 70.3026 32.9436H68.6494C68.5451 32.9436 68.4703 33.0278 68.4703 33.1317V46.4362C68.4703 46.5406 68.5451 46.6255 68.6494 46.6255H70.3026ZM49.8324 45.7285C49.8001 45.6978 49.7471 45.6474 49.803 45.5017L49.8014 45.4985L50.2361 44.2893C50.3048 44.0822 50.4629 44.1514 50.5262 44.1897C50.5747 44.2193 50.6182 44.2477 50.663 44.277L50.663 44.277L50.6632 44.2771C50.7289 44.32 50.7975 44.3648 50.8897 44.4185C52.174 45.2302 53.3591 45.2365 53.7309 45.2365C54.6872 45.2365 55.2839 44.7268 55.2839 44.0431V44.006C55.2839 43.263 54.3672 42.9801 53.3082 42.6545L53.0742 42.5817C51.62 42.1668 50.063 41.5662 50.063 39.7247V39.6872C50.063 37.9405 51.4737 36.7194 53.4931 36.7194L53.7131 36.7186C54.8987 36.7186 56.0446 37.0625 56.8745 37.5683C56.95 37.6133 57.0235 37.7006 56.9816 37.8164C56.9421 37.9271 56.5734 38.9138 56.5311 39.0257C56.4533 39.2323 56.2391 39.094 56.2391 39.094C55.5159 38.6945 54.3858 38.3787 53.4373 38.3787C52.5838 38.3787 52.0305 38.8332 52.0305 39.4496V39.4864C52.0305 40.2056 52.975 40.5146 54.0696 40.8695L54.2589 40.9307C55.7052 41.3852 57.2543 42.0214 57.2543 43.7681V43.8052C57.2543 45.6941 55.883 46.8677 53.678 46.8677C52.5952 46.8677 51.5599 46.6978 50.4614 46.117C50.4135 46.0892 50.3656 46.0622 50.3178 46.0352L50.3175 46.035L50.3171 46.0348L50.317 46.0348C50.1599 45.9461 50.0034 45.8578 49.8488 45.7458C49.8466 45.7427 49.8438 45.7395 49.8404 45.7362C49.838 45.7337 49.8353 45.7312 49.8324 45.7285ZM82.1171 45.7256C82.0843 45.6949 82.0306 45.6447 82.0864 45.4985L82.082 45.4953L82.5164 44.2861C82.5805 44.0886 82.7665 44.1612 82.8061 44.1866C82.8351 44.2051 82.8623 44.2229 82.8893 44.2405C82.9725 44.2947 83.0528 44.347 83.1701 44.4154C84.4505 45.227 85.6391 45.2333 86.0112 45.2333C86.9679 45.2333 87.5644 44.7235 87.5644 44.0399V44.0028C87.5644 43.2599 86.6517 42.9769 85.5888 42.6513L85.355 42.5786C83.9011 42.1637 82.3441 41.563 82.3441 39.7215V39.684C82.3441 37.9374 83.7546 36.7163 85.7742 36.7163L85.9942 36.7155C87.1797 36.7155 88.3262 37.0593 89.156 37.5651C89.2308 37.6101 89.3049 37.6975 89.2622 37.8133C89.227 37.9239 88.858 38.9106 88.8159 39.0225C88.738 39.2291 88.5236 39.0909 88.5236 39.0909C87.7964 38.6913 86.67 38.3756 85.7221 38.3756C84.8685 38.3756 84.3147 38.8301 84.3147 39.4465V39.4833C84.3147 40.2025 85.2594 40.5115 86.3538 40.8663L86.5436 40.9276C87.9937 41.382 89.5388 42.0182 89.5388 43.7649V43.8021C89.5388 45.6909 88.1672 46.8646 85.9622 46.8646C84.8798 46.8646 83.8445 46.6947 82.7458 46.1138C82.6979 46.086 82.6499 46.059 82.6021 46.032C82.4446 45.9432 82.2878 45.8548 82.1336 45.7427C82.1297 45.7374 82.1238 45.7319 82.1171 45.7256ZM103.543 44.3019C103.933 43.7056 104.132 42.8646 104.132 41.7985C104.132 40.7325 103.935 39.8954 103.543 39.307C103.156 38.7249 102.572 38.4416 101.749 38.4416C100.927 38.4416 100.346 38.7221 99.963 39.307C99.5783 39.8958 99.3822 40.7336 99.3822 41.8005C99.3822 42.8674 99.577 43.7131 99.963 44.3059C100.346 44.8931 100.932 45.1792 101.749 45.1792C102.567 45.1792 103.155 44.8907 103.543 44.3019ZM105.136 38.2203C105.511 38.6708 105.792 39.2082 105.974 39.8208H105.97C106.149 40.4293 106.241 41.0971 106.241 41.8005C106.241 42.5078 106.149 43.1717 105.97 43.7803C105.788 44.3928 105.507 44.9302 105.132 45.3807C104.756 45.8312 104.279 46.1916 103.717 46.4477C103.156 46.7037 102.492 46.8342 101.746 46.8342C100.999 46.8342 100.334 46.7037 99.7694 46.4477C99.2087 46.1908 98.731 45.8312 98.3551 45.3807C97.9792 44.9302 97.6976 44.3928 97.5172 43.7803C97.3375 43.1717 97.2463 42.5078 97.2463 41.8005C97.2463 41.0932 97.3375 40.4293 97.5172 39.8208C97.6989 39.2082 97.9805 38.6708 98.3551 38.2203C98.7304 37.7698 99.2087 37.4079 99.7694 37.1454C100.334 36.8834 100.994 36.7502 101.746 36.7502C102.496 36.7502 103.16 36.8826 103.721 37.1454C104.286 37.4062 104.76 37.7698 105.136 38.2203ZM120.87 44.7674C120.87 44.7674 121.044 44.6998 121.105 44.8789H121.106L121.561 46.1276C121.619 46.2825 121.486 46.3465 121.486 46.3465C120.79 46.622 119.822 46.8128 118.877 46.8128C117.281 46.8128 116.056 46.3544 115.242 45.4455C114.428 44.5406 114.017 43.3037 114.017 41.7784C114.017 41.071 114.118 40.4032 114.317 39.7947C114.519 39.1821 114.819 38.6447 115.215 38.1942C115.609 37.7437 116.107 37.3813 116.696 37.1193C117.285 36.857 117.973 36.7246 118.747 36.7246C119.269 36.7246 119.731 36.7562 120.13 36.8171C120.557 36.8815 121.121 37.0344 121.359 37.1276C121.403 37.1447 121.523 37.2039 121.474 37.3442C121.348 37.7002 121.251 37.9664 121.145 38.2567C121.105 38.366 121.064 38.4787 121.02 38.6008C120.95 38.7909 120.806 38.7281 120.806 38.7281C120.198 38.5376 119.617 38.4495 118.858 38.4495C117.95 38.4495 117.262 38.7577 116.815 39.3505C116.363 39.9511 116.11 40.7336 116.108 41.7768C116.104 42.9228 116.388 43.7684 116.898 44.294C117.404 44.8192 118.116 45.0843 119.004 45.0843C119.364 45.0843 119.705 45.0603 120.012 45.0121C120.316 44.9646 120.602 44.8698 120.87 44.7674ZM124.327 40.7683L124.327 40.7691L124.307 40.7683L124.327 40.7683ZM124.327 40.7683C124.415 40.1759 124.577 39.6822 124.833 39.2991C125.215 38.7143 125.797 38.3941 126.615 38.3941C127.433 38.3941 127.975 38.7158 128.362 39.2991C128.618 39.6844 128.731 40.1961 128.772 40.7691L124.327 40.7683ZM129.733 38.0069C129.985 38.2796 130.374 38.8763 130.531 39.465L130.539 39.4662C130.915 40.7862 130.755 41.9389 130.728 42.1258C130.727 42.1376 130.726 42.1455 130.725 42.1494C130.708 42.3099 130.544 42.3115 130.544 42.3115L124.301 42.3067C124.336 43.2551 124.565 43.9229 125.023 44.3813C125.474 44.8291 126.19 45.1148 127.158 45.1163C128.508 45.1199 129.152 44.8716 129.594 44.7013C129.637 44.6847 129.679 44.6688 129.718 44.654C129.718 44.654 129.891 44.5924 129.953 44.7627L130.36 45.9048C130.441 46.0972 130.376 46.164 130.307 46.2027C129.92 46.42 128.972 46.8211 127.169 46.8271C126.296 46.8298 125.533 46.7037 124.905 46.4607C124.273 46.2157 123.747 45.868 123.336 45.4214C122.925 44.9789 122.62 44.4453 122.431 43.8368C122.244 43.2322 122.149 42.5643 122.149 41.8452C122.149 41.1418 122.24 40.47 122.422 39.8575C122.604 39.2371 122.889 38.6957 123.268 38.2373C123.648 37.7789 124.13 37.4122 124.702 37.1427C125.276 36.8751 125.983 36.7435 126.761 36.7435C127.375 36.7425 127.983 36.8658 128.547 37.1059C128.939 37.2719 129.33 37.5762 129.733 38.0069ZM74.4173 40.7683L74.4172 40.7691L74.3977 40.7683L74.4173 40.7683ZM78.8631 40.7691L74.4173 40.7683C74.5054 40.1759 74.6681 39.6822 74.9232 39.2991C75.3054 38.7143 75.8874 38.3941 76.7052 38.3941C77.523 38.3941 78.0648 38.7158 78.452 39.2991C78.7085 39.6844 78.8204 40.1961 78.8631 40.7691ZM79.8229 38.0069C80.0762 38.2796 80.4647 38.8763 80.6212 39.465L80.6256 39.4662C81.0024 40.7863 80.8415 41.9391 80.8155 42.1259L80.8154 42.126C80.8138 42.1376 80.8127 42.1455 80.8123 42.1494C80.7953 42.3099 80.6306 42.3115 80.6306 42.3115L74.387 42.3067C74.4229 43.2551 74.6517 43.9229 75.1105 44.3813C75.5606 44.8291 76.2803 45.1148 77.2445 45.1163C78.5955 45.12 79.2403 44.8712 79.6819 44.7009L79.682 44.7009C79.7246 44.6844 79.7654 44.6687 79.8047 44.654C79.8047 44.654 79.9769 44.5924 80.0398 44.7627L80.4471 45.9048C80.5288 46.0972 80.4634 46.164 80.3943 46.2027C80.0071 46.42 79.0586 46.8211 77.2571 46.8271C76.3796 46.8298 75.6209 46.7037 74.9924 46.4607C74.36 46.2157 73.8345 45.868 73.4241 45.4214C73.0168 44.9789 72.7119 44.4453 72.5227 43.8368C72.3341 43.2322 72.2398 42.5643 72.2398 41.8452C72.2398 41.1418 72.331 40.47 72.5126 39.8575C72.6943 39.2371 72.9803 38.6957 73.3581 38.2373C73.7377 37.7789 74.2198 37.4122 74.7925 37.1427C75.3657 36.8751 76.0729 36.7435 76.8517 36.7435C77.4652 36.7425 78.073 36.8658 78.6374 37.1059C79.029 37.2719 79.42 37.5762 79.8229 38.0069ZM60.5824 44.4695C60.6634 44.5963 60.6974 44.6442 60.942 44.8393L60.9455 44.8413C60.9416 44.8401 61.5027 45.2815 62.7712 45.2053C63.6642 45.1515 64.4537 44.9812 64.4537 44.9812V42.1478C63.8937 42.062 63.3286 42.0138 62.7625 42.0037C61.4901 41.9878 60.9487 42.4549 60.9527 42.4541C60.5773 42.7189 60.3955 43.114 60.3955 43.6594C60.3955 44.0071 60.4587 44.2786 60.5824 44.4695ZM62.4515 40.4253C62.8428 40.4253 63.1708 40.4344 63.4235 40.453L63.4298 40.4676C63.4298 40.4676 63.9232 40.5122 64.4569 40.5897V40.3261C64.4569 39.4963 64.2834 39.1015 63.9433 38.8403C63.5957 38.5735 63.074 38.4373 62.4021 38.4373C62.4021 38.4373 60.8847 38.4175 59.6873 39.0695C59.632 39.1023 59.585 39.1209 59.585 39.1209C59.585 39.1209 59.4352 39.1734 59.3803 39.0197L58.9377 37.8342C58.8705 37.6623 58.9938 37.5864 58.9938 37.5864C59.555 37.147 60.9143 36.8831 60.9143 36.8831C61.3648 36.7925 62.1196 36.7293 62.5859 36.7293C63.8308 36.7293 64.7906 37.0178 65.4469 37.5908C66.105 38.1638 66.4388 39.0924 66.4388 40.3411L66.4425 46.0316C66.4425 46.0316 66.4545 46.1964 66.2998 46.2355C66.2998 46.2355 66.0692 46.2983 65.8617 46.3461C65.3406 46.4589 64.8177 46.5607 64.2928 46.6512C63.6762 46.7551 63.0401 46.8089 62.3997 46.8089C61.7912 46.8089 61.238 46.7524 60.748 46.6405C60.254 46.5299 59.826 46.3434 59.4795 46.0913C59.1311 45.8388 58.8513 45.5032 58.6654 45.1152C58.4758 44.724 58.3797 44.2458 58.3797 43.6926C58.3797 43.1472 58.4924 42.6652 58.7132 42.2541C58.9321 41.8468 59.2417 41.4953 59.6182 41.2267C59.9936 40.9565 60.4322 40.7533 60.9183 40.6221C61.4004 40.4917 61.9181 40.4253 62.4515 40.4253ZM113.624 37.1743C113.624 37.197 113.619 37.2194 113.61 37.2403L113.614 37.2146C113.555 37.3845 113.251 38.2377 113.144 38.5226C113.103 38.6309 113.036 38.7043 112.916 38.691C112.916 38.691 112.558 38.6072 112.233 38.6072C111.949 38.6071 111.667 38.6468 111.395 38.7249C111.104 38.815 110.84 38.9735 110.624 39.1873C110.398 39.4085 110.214 39.7172 110.079 40.104C109.942 40.4953 109.873 41.1157 109.873 41.74V46.403C109.873 46.4532 109.853 46.5013 109.818 46.5367C109.782 46.5722 109.734 46.5922 109.684 46.5923H108.048C107.998 46.5922 107.95 46.5722 107.914 46.5368C107.879 46.5013 107.859 46.4532 107.858 46.403V37.1166C107.858 37.0122 107.934 36.9281 108.038 36.9281H109.634C109.739 36.9281 109.813 37.0122 109.813 37.1166L109.813 37.8753C110.051 37.5513 110.478 37.2711 110.865 37.0968C111.256 36.9213 111.691 36.7894 112.473 36.8384C112.88 36.8637 113.41 36.9755 113.516 37.0158C113.538 37.0241 113.556 37.0366 113.573 37.0524C113.589 37.0682 113.602 37.0872 113.611 37.1082C113.619 37.1291 113.624 37.1516 113.624 37.1743Z" fill="#C4C4C4"/>
</svg>
