<svg width="176" height="88" viewBox="0 0 176 88" fill="none" xmlns="http://www.w3.org/2000/svg">
<mask id="mask0_2063_28591" style="mask-type:luminance" maskUnits="userSpaceOnUse" x="34" y="6" width="108" height="76">
<path d="M34.2571 6.45911H141.743V81.5408H34.2571V6.45911Z" fill="white"/>
</mask>
<g mask="url(#mask0_2063_28591)">
<path fill-rule="evenodd" clip-rule="evenodd" d="M78.8876 14.6786C82.3573 11.0667 87.186 8.83003 92.5207 8.83003C99.6336 8.83003 105.799 12.7817 109.118 18.6698C112.064 17.3525 115.256 16.6725 118.483 16.6742C131.287 16.6742 141.68 27.1461 141.68 40.0681C141.68 52.9901 131.287 63.4618 118.483 63.4618C116.919 63.4618 115.393 63.3047 113.9 63.0074C110.995 68.1843 105.443 71.7011 99.1201 71.7011C96.5461 71.7062 94.0048 71.1222 91.691 69.9939C88.7468 76.9095 81.8909 81.7702 73.9087 81.7702C65.5701 81.7702 58.4968 76.5147 55.7702 69.1246C54.5566 69.3811 53.3196 69.5099 52.0793 69.5087C42.1606 69.5087 34.1387 61.3684 34.1387 51.3707C34.1387 44.6528 37.7505 38.8043 43.109 35.643C41.9722 33.0243 41.387 30.1993 41.39 27.3445C41.39 15.8055 50.7555 6.47961 62.2944 6.47961C69.0517 6.47961 75.098 9.70022 78.8914 14.6991" fill="#00A1E0"/>
</g>
<path fill-rule="evenodd" clip-rule="evenodd" d="M49.803 45.5016C49.7354 45.6779 49.8271 45.7146 49.8488 45.7458C50.0508 45.892 50.2559 45.9979 50.4614 46.1169C51.5599 46.6978 52.5952 46.8677 53.678 46.8677C55.8831 46.8677 57.2543 45.6941 57.2543 43.8052V43.768C57.2543 42.0213 55.7052 41.3852 54.2589 40.9307L54.0696 40.8695C52.975 40.5146 52.0305 40.2056 52.0305 39.4864V39.4496C52.0305 38.8332 52.5838 38.3787 53.4373 38.3787C54.3858 38.3787 55.516 38.6944 56.2391 39.094C56.2391 39.094 56.4533 39.2323 56.5311 39.0256C56.5734 38.9138 56.9421 37.927 56.9816 37.8164C57.0235 37.7006 56.95 37.6133 56.8746 37.5682C56.0447 37.0624 54.8987 36.7186 53.7132 36.7186L53.4931 36.7194C51.4738 36.7194 50.063 37.9405 50.063 39.6872V39.7247C50.063 41.5661 51.62 42.1668 53.0742 42.5817L53.3082 42.6544C54.3672 42.98 55.284 43.263 55.284 44.0059V44.0431C55.284 44.7267 54.6873 45.2365 53.731 45.2365C53.3592 45.2365 52.174 45.2301 50.8897 44.4185C50.7344 44.328 50.6459 44.2628 50.5262 44.1897C50.4629 44.1513 50.3049 44.0822 50.2361 44.2892L49.8014 45.4985M82.0864 45.4985C82.0192 45.6747 82.111 45.7114 82.1336 45.7427C82.3347 45.8889 82.5403 45.9948 82.7458 46.1137C83.8446 46.6947 84.8798 46.8646 85.9622 46.8646C88.1672 46.8646 89.5388 45.6909 89.5388 43.802V43.7649C89.5388 42.0182 87.9937 41.382 86.5436 40.9276L86.3538 40.8663C85.2595 40.5115 84.3147 40.2025 84.3147 39.4832V39.4465C84.3147 38.83 84.8685 38.3756 85.7221 38.3756C86.67 38.3756 87.7964 38.6913 88.5236 39.0908C88.5236 39.0908 88.738 39.2291 88.8159 39.0224C88.858 38.9106 89.227 37.9239 89.2622 37.8133C89.3049 37.6975 89.2308 37.6101 89.156 37.5651C88.3263 37.0593 87.1798 36.7155 85.9943 36.7155L85.7743 36.7163C83.7547 36.7163 82.3441 37.9373 82.3441 39.6839V39.7215C82.3441 41.563 83.9011 42.1637 85.355 42.5786L85.5888 42.6513C86.6518 42.9769 87.5644 43.2598 87.5644 44.0027V44.0399C87.5644 44.7235 86.9679 45.2333 86.0112 45.2333C85.6391 45.2333 84.4505 45.227 83.1701 44.4153C83.0148 44.3248 82.9243 44.2624 82.8062 44.1865C82.7666 44.1612 82.5805 44.0885 82.5164 44.2861L82.082 45.4953M104.132 41.7965C104.132 42.8635 103.933 43.7052 103.543 44.3019C103.155 44.8907 102.567 45.1792 101.749 45.1792C100.932 45.1792 100.346 44.893 99.963 44.3058C99.5771 43.7131 99.3822 42.8674 99.3822 41.8005C99.3822 40.7335 99.5783 39.8958 99.963 39.307C100.346 38.7221 100.927 38.4416 101.749 38.4416C102.572 38.4416 103.156 38.7249 103.543 39.307C103.936 39.8958 104.132 40.7335 104.132 41.8005M105.974 39.8207C105.792 39.2082 105.511 38.6708 105.136 38.2203C104.76 37.7698 104.286 37.4062 103.721 37.1454C103.16 36.8826 102.496 36.7502 101.746 36.7502C100.994 36.7502 100.334 36.8834 99.7694 37.1454C99.2087 37.4078 98.7304 37.7698 98.3551 38.2203C97.9805 38.6708 97.6989 39.2082 97.5172 39.8207C97.3375 40.4292 97.2463 41.0931 97.2463 41.8005C97.2463 42.5078 97.3375 43.1717 97.5172 43.7803C97.6976 44.3928 97.9792 44.9302 98.3551 45.3807C98.731 45.8312 99.2087 46.1908 99.7694 46.4477C100.334 46.7037 100.999 46.8341 101.746 46.8341C102.492 46.8341 103.156 46.7037 103.717 46.4477C104.279 46.1916 104.756 45.8312 105.132 45.3807C105.507 44.9302 105.788 44.3928 105.97 43.7803C106.149 43.1717 106.241 42.5078 106.241 41.8005C106.241 41.0971 106.149 40.4292 105.97 39.8207M121.105 44.8788C121.044 44.6998 120.87 44.7674 120.87 44.7674C120.602 44.8697 120.316 44.9646 120.012 45.012C119.705 45.0602 119.364 45.0843 119.004 45.0843C118.116 45.0843 117.404 44.8192 116.898 44.294C116.388 43.7684 116.104 42.9228 116.108 41.7768C116.11 40.7335 116.363 39.9511 116.815 39.3504C117.262 38.7577 117.95 38.4494 118.858 38.4494C119.617 38.4494 120.198 38.5376 120.806 38.7281C120.806 38.7281 120.95 38.7909 121.02 38.6008C121.182 38.1543 121.3 37.8342 121.474 37.3442C121.523 37.2039 121.403 37.1446 121.359 37.1276C121.121 37.0344 120.557 36.8815 120.13 36.817C119.731 36.7562 119.269 36.7246 118.747 36.7246C117.973 36.7246 117.285 36.8569 116.696 37.1193C116.107 37.3813 115.609 37.7437 115.215 38.1942C114.819 38.6447 114.519 39.1821 114.317 39.7946C114.118 40.4032 114.017 41.071 114.017 41.7783C114.017 43.3037 114.428 44.5406 115.242 45.4455C116.056 46.3544 117.281 46.8128 118.877 46.8128C119.822 46.8128 120.79 46.6219 121.486 46.3465C121.486 46.3465 121.619 46.2825 121.561 46.1276L121.106 44.8788M124.327 40.7691C124.415 40.1764 124.577 39.6824 124.833 39.2991C125.215 38.7142 125.797 38.3941 126.615 38.3941C127.433 38.3941 127.975 38.7158 128.362 39.2991C128.618 39.6844 128.731 40.1961 128.772 40.7691L124.307 40.7683L124.327 40.7691ZM130.531 39.465C130.374 38.8762 129.985 38.2795 129.733 38.0069C129.33 37.5762 128.939 37.2719 128.547 37.1059C127.983 36.8657 127.375 36.7425 126.761 36.7435C125.983 36.7435 125.276 36.8751 124.702 37.1426C124.13 37.4122 123.648 37.7789 123.268 38.2372C122.889 38.6956 122.604 39.237 122.422 39.8574C122.24 40.47 122.149 41.1417 122.149 41.8452C122.149 42.5643 122.244 43.2322 122.431 43.8368C122.62 44.4453 122.925 44.9788 123.336 45.4214C123.748 45.868 124.273 46.2157 124.905 46.4607C125.533 46.7037 126.296 46.8298 127.169 46.827C128.972 46.8211 129.92 46.42 130.307 46.2027C130.376 46.164 130.441 46.0971 130.36 45.9047L129.953 44.7627C129.891 44.5923 129.718 44.654 129.718 44.654C129.271 44.8208 128.64 45.1203 127.158 45.1163C126.19 45.1147 125.474 44.8291 125.024 44.3813C124.565 43.9229 124.336 43.2551 124.301 42.3067L130.544 42.3114C130.544 42.3114 130.708 42.3099 130.725 42.1494C130.732 42.083 130.939 40.8691 130.539 39.4662L130.531 39.465ZM74.4172 40.7691C74.5052 40.1764 74.668 39.6824 74.9232 39.2991C75.3054 38.7142 75.8875 38.3941 76.7052 38.3941C77.523 38.3941 78.0648 38.7158 78.452 39.2991C78.7085 39.6844 78.8204 40.1961 78.8631 40.7691L74.3978 40.7683L74.4172 40.7691ZM80.6212 39.465C80.4647 38.8762 80.0763 38.2795 79.8229 38.0069C79.42 37.5762 79.0291 37.2719 78.6375 37.1059C78.073 36.8657 77.4652 36.7425 76.8517 36.7435C76.0729 36.7435 75.3657 36.8751 74.7925 37.1426C74.2199 37.4122 73.7378 37.7789 73.3581 38.2372C72.9803 38.6956 72.6943 39.237 72.5127 39.8574C72.331 40.47 72.2399 41.1417 72.2399 41.8452C72.2399 42.5643 72.3341 43.2322 72.5227 43.8368C72.7119 44.4453 73.0168 44.9788 73.4241 45.4214C73.8345 45.868 74.36 46.2157 74.9924 46.4607C75.6209 46.7037 76.3796 46.8298 77.2571 46.827C79.0586 46.8211 80.0071 46.42 80.3943 46.2027C80.4635 46.164 80.5288 46.0971 80.4471 45.9047L80.0398 44.7627C79.9769 44.5923 79.8047 44.654 79.8047 44.654C79.3584 44.8208 78.7261 45.1203 77.2446 45.1163C76.2803 45.1147 75.5606 44.8291 75.1106 44.3813C74.6517 43.9229 74.4229 43.2551 74.3871 42.3067L80.6307 42.3114C80.6307 42.3114 80.7954 42.3099 80.8123 42.1494C80.8192 42.083 81.026 40.8691 80.6256 39.4662L80.6212 39.465ZM60.942 44.8393C60.6974 44.6441 60.6634 44.5963 60.5824 44.4695C60.4587 44.2786 60.3955 44.0071 60.3955 43.6593C60.3955 43.114 60.5773 42.7189 60.9527 42.4541C60.9487 42.4549 61.4901 41.9878 62.7625 42.0036C63.3286 42.0137 63.8937 42.062 64.4538 42.1478V44.9812C64.4538 44.9812 63.6643 45.1515 62.7713 45.2053C61.5027 45.2815 60.9416 44.8401 60.9456 44.8413L60.942 44.8393ZM63.4235 40.4529C63.1708 40.4344 62.8428 40.4253 62.4516 40.4253C61.9181 40.4253 61.4004 40.4917 60.9183 40.6221C60.4322 40.7533 59.9936 40.9564 59.6182 41.2267C59.2418 41.4952 58.9321 41.8468 58.7133 42.2541C58.4924 42.6651 58.3797 43.1472 58.3797 43.6925C58.3797 44.2458 58.4758 44.724 58.6654 45.1152C58.8513 45.5032 59.1311 45.8387 59.4795 46.0912C59.826 46.3433 60.254 46.5298 60.748 46.6405C61.238 46.7524 61.7912 46.8089 62.3998 46.8089C63.0401 46.8089 63.6762 46.7551 64.2928 46.6512C64.8177 46.5606 65.3407 46.4589 65.8618 46.3461C66.0692 46.2983 66.2999 46.2355 66.2999 46.2355C66.4545 46.1963 66.4426 46.0316 66.4426 46.0316L66.4388 40.3411C66.4388 39.0924 66.105 38.1637 65.4469 37.5907C64.7907 37.0177 63.8308 36.7293 62.5859 36.7293C62.1196 36.7293 61.3648 36.7925 60.9143 36.883C60.9143 36.883 59.555 37.147 58.9939 37.5864C58.9939 37.5864 58.8705 37.6623 58.9377 37.8342L59.3803 39.0197C59.4352 39.1734 59.585 39.1209 59.585 39.1209C59.585 39.1209 59.632 39.1023 59.6874 39.0695C60.8847 38.4174 62.4022 38.4372 62.4022 38.4372C63.074 38.4372 63.5957 38.5735 63.9433 38.8403C64.2834 39.1015 64.4569 39.4963 64.4569 40.3261V40.5897C63.9232 40.5122 63.4298 40.4676 63.4298 40.4676L63.4235 40.4529ZM113.61 37.2402C113.619 37.2194 113.624 37.1969 113.624 37.1742C113.624 37.1516 113.619 37.1291 113.611 37.1081C113.602 37.0872 113.589 37.0682 113.573 37.0524C113.556 37.0365 113.538 37.0241 113.516 37.0158C113.41 36.9755 112.88 36.8637 112.473 36.8383C111.691 36.7894 111.256 36.9213 110.865 37.0968C110.478 37.271 110.051 37.5513 109.813 37.8753L109.813 37.1165C109.813 37.0122 109.739 36.928 109.634 36.928H108.038C107.934 36.928 107.858 37.0122 107.858 37.1165V46.403C107.859 46.4532 107.879 46.5012 107.914 46.5368C107.95 46.5722 107.998 46.5922 108.048 46.5923H109.684C109.734 46.5922 109.782 46.5722 109.818 46.5367C109.853 46.5012 109.873 46.4532 109.873 46.403V41.74C109.873 41.1156 109.942 40.4952 110.079 40.104C110.214 39.7171 110.398 39.4085 110.624 39.1872C110.84 38.9735 111.104 38.8149 111.395 38.7249C111.667 38.6467 111.949 38.6071 112.233 38.6071C112.558 38.6071 112.916 38.6909 112.916 38.6909C113.036 38.7043 113.103 38.6308 113.144 38.5225C113.251 38.2377 113.555 37.3845 113.614 37.2145" fill="#FFFFFE"/>
<path fill-rule="evenodd" clip-rule="evenodd" d="M98.3299 32.9543C98.1281 32.8931 97.9219 32.8444 97.7139 32.8081C97.4342 32.7613 97.1507 32.7394 96.8666 32.7425C95.7395 32.7425 94.8507 33.061 94.2266 33.6901C93.6074 34.3145 93.1856 35.2656 92.9738 36.5171L92.8978 36.9396H91.4828C91.4828 36.9396 91.31 36.9325 91.2735 37.1209L91.0416 38.4171C91.0252 38.5412 91.0787 38.6186 91.2446 38.6179H92.6218L91.2245 46.4196C91.1145 47.0479 90.9894 47.5648 90.8511 47.9564C90.7141 48.3429 90.5802 48.6326 90.4162 48.8428C90.2571 49.0463 90.1056 49.1961 89.8454 49.2834C89.6304 49.3557 89.3834 49.3889 89.1119 49.3889C88.961 49.3889 88.7605 49.3637 88.6122 49.334C88.4638 49.3048 88.3871 49.2716 88.2759 49.2249C88.2759 49.2249 88.1143 49.1633 88.0508 49.3253C87.9987 49.4577 87.6316 50.4674 87.5882 50.5922C87.5442 50.7155 87.6058 50.8127 87.6844 50.8407C87.8679 50.9064 88.0043 50.9483 88.2539 51.0071C88.6008 51.089 88.8931 51.0941 89.1672 51.0941C89.7411 51.0941 90.2634 51.0135 90.6971 50.857C91.1334 50.6993 91.513 50.4247 91.8493 50.0528C92.212 49.6517 92.4408 49.2317 92.6589 48.6587C92.8751 48.0908 93.0593 47.3858 93.207 46.5643L94.6112 38.6179H96.6648C96.6648 38.6179 96.8376 38.6241 96.8735 38.4364L97.106 37.1403C97.1224 37.0162 97.069 36.9388 96.9024 36.9396H94.9098C94.9192 36.8945 95.0098 36.1935 95.2386 35.5335C95.3366 35.2518 95.5202 35.0246 95.676 34.8685C95.8212 34.7198 96.0004 34.6084 96.1978 34.5436C96.4146 34.4767 96.6403 34.4441 96.8666 34.4472C97.0545 34.4472 97.2387 34.4697 97.3788 34.499C97.5724 34.5401 97.6472 34.5618 97.6982 34.5768C97.9012 34.6389 97.9282 34.5788 97.9684 34.4804L98.4449 33.1716C98.4939 33.0309 98.3745 32.9716 98.3299 32.9543ZM70.481 46.4362C70.481 46.5406 70.4068 46.6255 70.3025 46.6255H68.6494C68.545 46.6255 68.4702 46.5406 68.4702 46.4362V33.1317C68.4702 33.0278 68.545 32.9436 68.6494 32.9436H70.3025C70.4068 32.9436 70.481 33.0278 70.481 33.1317V46.4362Z" fill="#FFFFFE"/>
</svg>
