<svg width="176" height="88" viewBox="0 0 176 88" fill="none" xmlns="http://www.w3.org/2000/svg">
<g clip-path="url(#clip0_2063_28591)">
<path d="M81.7577 4.13916C80.8239 4.13916 80.0657 4.88666 80.0657 5.80738C80.0657 6.7281 80.8239 7.47574 81.7577 7.47574C82.6914 7.47574 83.4495 6.7281 83.4495 5.80738C83.4495 4.88666 82.6914 4.13916 81.7577 4.13916ZM87.9138 4.13916C86.9801 4.13916 86.222 4.88666 86.222 5.80738C86.222 6.7281 86.9801 7.47574 87.9138 7.47574C88.8475 7.47574 89.6057 6.7281 89.6057 5.80738C89.6057 4.88666 88.8475 4.13916 87.9138 4.13916ZM94.0701 4.13916C93.1363 4.13916 92.3782 4.88666 92.3782 5.80738C92.3782 6.7281 93.1363 7.47574 94.0701 7.47574C95.0038 7.47574 95.7619 6.7281 95.7619 5.80738C95.7619 4.88666 95.0038 4.13916 94.0701 4.13916ZM69.4451 10.2071C68.51 10.2071 67.7507 10.9557 67.7507 11.8778C67.7507 12.7999 68.51 13.5486 69.4451 13.5486C70.3803 13.5486 71.1395 12.7999 71.1395 11.8778C71.1395 10.9557 70.3803 10.2071 69.4451 10.2071ZM106.383 10.2071C105.447 10.2071 104.688 10.9557 104.688 11.8778C104.688 12.7999 105.447 13.5486 106.383 13.5486C107.318 13.5486 108.077 12.7999 108.077 11.8778C108.077 10.9557 107.318 10.2071 106.383 10.2071ZM75.6013 10.2094C74.6674 10.2094 73.9093 10.957 73.9093 11.8778C73.9093 12.7986 74.6674 13.5463 75.6013 13.5463C76.5351 13.5463 77.2934 12.7986 77.2934 11.8778C77.2934 10.957 76.5351 10.2094 75.6013 10.2094ZM100.226 10.2094C99.2925 10.2094 98.5344 10.957 98.5344 11.8778C98.5344 12.7986 99.2925 13.5463 100.226 13.5463C101.16 13.5463 101.918 12.7986 101.918 11.8778C101.918 10.957 101.16 10.2094 100.226 10.2094ZM81.7577 10.2096C80.8239 10.2096 80.0657 10.9571 80.0657 11.8778C80.0657 12.7985 80.8239 13.546 81.7577 13.546C82.6914 13.546 83.4495 12.7985 83.4495 11.8778C83.4495 10.9571 82.6914 10.2096 81.7577 10.2096ZM87.9138 10.2096C86.9801 10.2096 86.222 10.9571 86.222 11.8778C86.222 12.7985 86.9801 13.546 87.9138 13.546C88.8475 13.546 89.6057 12.7985 89.6057 11.8778C89.6057 10.9571 88.8475 10.2096 87.9138 10.2096ZM94.0701 10.2096C93.1363 10.2096 92.3782 10.9571 92.3782 11.8778C92.3782 12.7985 93.1363 13.546 94.0701 13.546C95.0038 13.546 95.7619 12.7985 95.7619 11.8778C95.7619 10.9571 95.0038 10.2096 94.0701 10.2096ZM63.2889 16.2775C62.3538 16.2775 61.5944 17.0261 61.5944 17.9482C61.5944 18.8703 62.3538 19.6191 63.2889 19.6191C64.224 19.6191 64.9832 18.8703 64.9832 17.9482C64.9832 17.0261 64.224 16.2775 63.2889 16.2775ZM112.539 16.2775C111.604 16.2775 110.845 17.0261 110.845 17.9482C110.845 18.8703 111.604 19.6191 112.539 19.6191C113.474 19.6191 114.233 18.8703 114.233 17.9482C114.233 17.0261 113.474 16.2775 112.539 16.2775ZM69.4451 16.2797C68.5113 16.2797 67.7529 17.0273 67.7529 17.9482C67.7529 18.8691 68.5113 19.6168 69.4451 19.6168C70.379 19.6168 71.1372 18.8691 71.1372 17.9482C71.1372 17.0273 70.379 16.2797 69.4451 16.2797ZM106.383 16.2797C105.449 16.2797 104.69 17.0273 104.69 17.9482C104.69 18.8691 105.449 19.6168 106.383 19.6168C107.316 19.6168 108.075 18.8691 108.075 17.9482C108.075 17.0273 107.316 16.2797 106.383 16.2797ZM75.6013 16.28C74.6675 16.28 73.9095 17.0276 73.9095 17.9484C73.9095 18.8691 74.6675 19.6166 75.6013 19.6166C76.535 19.6166 77.2932 18.8691 77.2932 17.9484C77.2932 17.0276 76.535 16.28 75.6013 16.28ZM81.7577 16.28C80.8239 16.28 80.0657 17.0276 80.0657 17.9484C80.0657 18.8691 80.8239 19.6166 81.7577 19.6166C82.6914 19.6166 83.4495 18.8691 83.4495 17.9484C83.4495 17.0276 82.6914 16.28 81.7577 16.28ZM87.9138 16.28C86.9801 16.28 86.222 17.0276 86.222 17.9484C86.222 18.8691 86.9801 19.6166 87.9138 19.6166C88.8475 19.6166 89.6057 18.8691 89.6057 17.9484C89.6057 17.0276 88.8475 16.28 87.9138 16.28ZM94.0701 16.28C93.1363 16.28 92.3782 17.0276 92.3782 17.9484C92.3782 18.8691 93.1363 19.6166 94.0701 19.6166C95.0038 19.6166 95.7619 18.8691 95.7619 17.9484C95.7619 17.0276 95.0038 16.28 94.0701 16.28ZM100.226 16.28C99.2926 16.28 98.5345 17.0276 98.5345 17.9484C98.5345 18.8691 99.2926 19.6166 100.226 19.6166C101.16 19.6166 101.918 18.8691 101.918 17.9484C101.918 17.0276 101.16 16.28 100.226 16.28ZM63.2889 22.3503C62.3551 22.3503 61.5968 23.0978 61.5968 24.0186C61.5968 24.9394 62.3551 25.6871 63.2889 25.6871C64.2227 25.6871 64.9808 24.9394 64.9808 24.0186C64.9808 23.0978 64.2227 22.3503 63.2889 22.3503ZM112.539 22.3503C111.605 22.3503 110.847 23.0978 110.847 24.0186C110.847 24.9394 111.605 25.6871 112.539 25.6871C113.473 25.6871 114.231 24.9394 114.231 24.0186C114.231 23.0978 113.473 22.3503 112.539 22.3503ZM69.4451 22.3504C68.5114 22.3504 67.7532 23.0979 67.7532 24.0186C67.7532 24.9393 68.5114 25.6868 69.4451 25.6868C70.3789 25.6868 71.137 24.9393 71.137 24.0186C71.137 23.0979 70.3789 22.3504 69.4451 22.3504ZM75.6013 22.3504C74.6675 22.3504 73.9095 23.0979 73.9095 24.0186C73.9095 24.9393 74.6675 25.6868 75.6013 25.6868C76.535 25.6868 77.2932 24.9393 77.2932 24.0186C77.2932 23.0979 76.535 22.3504 75.6013 22.3504ZM81.7577 22.3504C80.8239 22.3504 80.0657 23.0979 80.0657 24.0186C80.0657 24.9393 80.8239 25.6868 81.7577 25.6868C82.6914 25.6868 83.4495 24.9393 83.4495 24.0186C83.4495 23.0979 82.6914 22.3504 81.7577 22.3504ZM87.9138 22.3504C86.9801 22.3504 86.222 23.0979 86.222 24.0186C86.222 24.9393 86.9801 25.6868 87.9138 25.6868C88.8475 25.6868 89.6057 24.9393 89.6057 24.0186C89.6057 23.0979 88.8475 22.3504 87.9138 22.3504ZM94.0701 22.3504C93.1363 22.3504 92.3782 23.0979 92.3782 24.0186C92.3782 24.9393 93.1363 25.6868 94.0701 25.6868C95.0038 25.6868 95.7619 24.9393 95.7619 24.0186C95.7619 23.0979 95.0038 22.3504 94.0701 22.3504ZM100.226 22.3504C99.2926 22.3504 98.5345 23.0979 98.5345 24.0186C98.5345 24.9393 99.2926 25.6868 100.226 25.6868C101.16 25.6868 101.918 24.9393 101.918 24.0186C101.918 23.0979 101.16 22.3504 100.226 22.3504ZM106.383 22.3504C105.449 22.3504 104.691 23.0979 104.691 24.0186C104.691 24.9393 105.449 25.6868 106.383 25.6868C107.316 25.6868 108.075 24.9393 108.075 24.0186C108.075 23.0979 107.316 22.3504 106.383 22.3504ZM57.1326 28.4208C56.1989 28.4208 55.4407 29.1683 55.4407 30.089C55.4407 31.0097 56.1989 31.7572 57.1326 31.7572C58.0664 31.7572 58.8244 31.0097 58.8244 30.089C58.8244 29.1683 58.0664 28.4208 57.1326 28.4208ZM63.2889 28.4208C62.3551 28.4208 61.5969 29.1683 61.5969 30.089C61.5969 31.0097 62.3551 31.7572 63.2889 31.7572C64.2226 31.7572 64.9807 31.0097 64.9807 30.089C64.9807 29.1683 64.2226 28.4208 63.2889 28.4208ZM69.4451 28.4208C68.5114 28.4208 67.7532 29.1683 67.7532 30.089C67.7532 31.0097 68.5114 31.7572 69.4451 31.7572C70.3789 31.7572 71.137 31.0097 71.137 30.089C71.137 29.1683 70.3789 28.4208 69.4451 28.4208ZM75.6013 28.4208C74.6675 28.4208 73.9095 29.1683 73.9095 30.089C73.9095 31.0097 74.6675 31.7572 75.6013 31.7572C76.535 31.7572 77.2932 31.0097 77.2932 30.089C77.2932 29.1683 76.535 28.4208 75.6013 28.4208ZM81.7577 28.4208C80.8239 28.4208 80.0657 29.1683 80.0657 30.089C80.0657 31.0097 80.8239 31.7572 81.7577 31.7572C82.6914 31.7572 83.4495 31.0097 83.4495 30.089C83.4495 29.1683 82.6914 28.4208 81.7577 28.4208ZM87.9138 28.4208C86.9801 28.4208 86.222 29.1683 86.222 30.089C86.222 31.0097 86.9801 31.7572 87.9138 31.7572C88.8475 31.7572 89.6057 31.0097 89.6057 30.089C89.6057 29.1683 88.8475 28.4208 87.9138 28.4208ZM94.0701 28.4208C93.1363 28.4208 92.3782 29.1683 92.3782 30.089C92.3782 31.0097 93.1363 31.7572 94.0701 31.7572C95.0038 31.7572 95.7619 31.0097 95.7619 30.089C95.7619 29.1683 95.0038 28.4208 94.0701 28.4208ZM100.226 28.4208C99.2926 28.4208 98.5345 29.1683 98.5345 30.089C98.5345 31.0097 99.2926 31.7572 100.226 31.7572C101.16 31.7572 101.918 31.0097 101.918 30.089C101.918 29.1683 101.16 28.4208 100.226 28.4208ZM106.383 28.4208C105.449 28.4208 104.691 29.1683 104.691 30.089C104.691 31.0097 105.449 31.7572 106.383 31.7572C107.316 31.7572 108.075 31.0097 108.075 30.089C108.075 29.1683 107.316 28.4208 106.383 28.4208ZM112.539 28.4208C111.605 28.4208 110.847 29.1683 110.847 30.089C110.847 31.0097 111.605 31.7572 112.539 31.7572C113.473 31.7572 114.231 31.0097 114.231 30.089C114.231 29.1683 113.473 28.4208 112.539 28.4208ZM118.695 28.4208C117.761 28.4208 117.003 29.1683 117.003 30.089C117.003 31.0097 117.761 31.7572 118.695 31.7572C119.629 31.7572 120.387 31.0097 120.387 30.089C120.387 29.1683 119.629 28.4208 118.695 28.4208ZM57.1326 34.4912C56.1989 34.4912 55.4407 35.2387 55.4407 36.1594C55.4407 37.0801 56.1989 37.8278 57.1326 37.8278C58.0664 37.8278 58.8244 37.0801 58.8244 36.1594C58.8244 35.2387 58.0664 34.4912 57.1326 34.4912ZM63.2889 34.4912C62.3551 34.4912 61.5969 35.2387 61.5969 36.1594C61.5969 37.0801 62.3551 37.8278 63.2889 37.8278C64.2226 37.8278 64.9807 37.0801 64.9807 36.1594C64.9807 35.2387 64.2226 34.4912 63.2889 34.4912ZM69.4451 34.4912C68.5114 34.4912 67.7532 35.2387 67.7532 36.1594C67.7532 37.0801 68.5114 37.8278 69.4451 37.8278C70.3789 37.8278 71.137 37.0801 71.137 36.1594C71.137 35.2387 70.3789 34.4912 69.4451 34.4912ZM75.6013 34.4912C74.6675 34.4912 73.9095 35.2387 73.9095 36.1594C73.9095 37.0801 74.6675 37.8278 75.6013 37.8278C76.535 37.8278 77.2932 37.0801 77.2932 36.1594C77.2932 35.2387 76.535 34.4912 75.6013 34.4912ZM81.7577 34.4912C80.8239 34.4912 80.0657 35.2387 80.0657 36.1594C80.0657 37.0801 80.8239 37.8278 81.7577 37.8278C82.6914 37.8278 83.4495 37.0801 83.4495 36.1594C83.4495 35.2387 82.6914 34.4912 81.7577 34.4912ZM87.9138 34.4912C86.9801 34.4912 86.222 35.2387 86.222 36.1594C86.222 37.0801 86.9801 37.8278 87.9138 37.8278C88.8475 37.8278 89.6057 37.0801 89.6057 36.1594C89.6057 35.2387 88.8475 34.4912 87.9138 34.4912ZM94.0701 34.4912C93.1363 34.4912 92.3782 35.2387 92.3782 36.1594C92.3782 37.0801 93.1363 37.8278 94.0701 37.8278C95.0038 37.8278 95.7619 37.0801 95.7619 36.1594C95.7619 35.2387 95.0038 34.4912 94.0701 34.4912ZM100.226 34.4912C99.2926 34.4912 98.5345 35.2387 98.5345 36.1594C98.5345 37.0801 99.2926 37.8278 100.226 37.8278C101.16 37.8278 101.918 37.0801 101.918 36.1594C101.918 35.2387 101.16 34.4912 100.226 34.4912ZM106.383 34.4912C105.449 34.4912 104.691 35.2387 104.691 36.1594C104.691 37.0801 105.449 37.8278 106.383 37.8278C107.316 37.8278 108.075 37.0801 108.075 36.1594C108.075 35.2387 107.316 34.4912 106.383 34.4912ZM112.539 34.4912C111.605 34.4912 110.847 35.2387 110.847 36.1594C110.847 37.0801 111.605 37.8278 112.539 37.8278C113.473 37.8278 114.231 37.0801 114.231 36.1594C114.231 35.2387 113.473 34.4912 112.539 34.4912ZM118.695 34.4912C117.761 34.4912 117.003 35.2387 117.003 36.1594C117.003 37.0801 117.761 37.8278 118.695 37.8278C119.629 37.8278 120.387 37.0801 120.387 36.1594C120.387 35.2387 119.629 34.4912 118.695 34.4912ZM57.1326 40.5616C56.1989 40.5616 55.4407 41.3091 55.4407 42.2298C55.4407 43.1505 56.1989 43.898 57.1326 43.898C58.0664 43.898 58.8244 43.1505 58.8244 42.2298C58.8244 41.3091 58.0664 40.5616 57.1326 40.5616ZM63.2889 40.5616C62.3551 40.5616 61.5969 41.3091 61.5969 42.2298C61.5969 43.1505 62.3551 43.898 63.2889 43.898C64.2226 43.898 64.9807 43.1505 64.9807 42.2298C64.9807 41.3091 64.2226 40.5616 63.2889 40.5616ZM69.4451 40.5616C68.5114 40.5616 67.7532 41.3091 67.7532 42.2298C67.7532 43.1505 68.5114 43.898 69.4451 43.898C70.3789 43.898 71.137 43.1505 71.137 42.2298C71.137 41.3091 70.3789 40.5616 69.4451 40.5616ZM75.6013 40.5616C74.6675 40.5616 73.9095 41.3091 73.9095 42.2298C73.9095 43.1505 74.6675 43.898 75.6013 43.898C76.535 43.898 77.2932 43.1505 77.2932 42.2298C77.2932 41.3091 76.535 40.5616 75.6013 40.5616ZM81.7577 40.5616C80.8239 40.5616 80.0657 41.3091 80.0657 42.2298C80.0657 43.1505 80.8239 43.898 81.7577 43.898C82.6914 43.898 83.4495 43.1505 83.4495 42.2298C83.4495 41.3091 82.6914 40.5616 81.7577 40.5616ZM87.9138 40.5616C86.9801 40.5616 86.222 41.3091 86.222 42.2298C86.222 43.1505 86.9801 43.898 87.9138 43.898C88.8475 43.898 89.6057 43.1505 89.6057 42.2298C89.6057 41.3091 88.8475 40.5616 87.9138 40.5616ZM94.0701 40.5616C93.1363 40.5616 92.3782 41.3091 92.3782 42.2298C92.3782 43.1505 93.1363 43.898 94.0701 43.898C95.0038 43.898 95.7619 43.1505 95.7619 42.2298C95.7619 41.3091 95.0038 40.5616 94.0701 40.5616ZM100.226 40.5616C99.2926 40.5616 98.5345 41.3091 98.5345 42.2298C98.5345 43.1505 99.2926 43.898 100.226 43.898C101.16 43.898 101.918 43.1505 101.918 42.2298C101.918 41.3091 101.16 40.5616 100.226 40.5616ZM106.383 40.5616C105.449 40.5616 104.691 41.3091 104.691 42.2298C104.691 43.1505 105.449 43.898 106.383 43.898C107.316 43.898 108.075 43.1505 108.075 42.2298C108.075 41.3091 107.316 40.5616 106.383 40.5616ZM112.539 40.5616C111.605 40.5616 110.847 41.3091 110.847 42.2298C110.847 43.1505 111.605 43.898 112.539 43.898C113.473 43.898 114.231 43.1505 114.231 42.2298C114.231 41.3091 113.473 40.5616 112.539 40.5616ZM118.695 40.5616C117.761 40.5616 117.003 41.3091 117.003 42.2298C117.003 43.1505 117.761 43.898 118.695 43.898C119.629 43.898 120.387 43.1505 120.387 42.2298C120.387 41.3091 119.629 40.5616 118.695 40.5616ZM63.2889 46.6317C62.3551 46.6317 61.5968 47.3794 61.5968 48.3002C61.5968 49.221 62.3551 49.9686 63.2889 49.9686C64.2227 49.9686 64.9808 49.221 64.9808 48.3002C64.9808 47.3794 64.2227 46.6317 63.2889 46.6317ZM112.539 46.6317C111.605 46.6317 110.847 47.3794 110.847 48.3002C110.847 49.221 111.605 49.9686 112.539 49.9686C113.473 49.9686 114.231 49.221 114.231 48.3002C114.231 47.3794 113.473 46.6317 112.539 46.6317ZM69.4451 46.6318C68.5114 46.6318 67.7532 47.3795 67.7532 48.3002C67.7532 49.2209 68.5114 49.9684 69.4451 49.9684C70.3789 49.9684 71.137 49.2209 71.137 48.3002C71.137 47.3795 70.3789 46.6318 69.4451 46.6318ZM75.6013 46.6318C74.6675 46.6318 73.9095 47.3795 73.9095 48.3002C73.9095 49.2209 74.6675 49.9684 75.6013 49.9684C76.535 49.9684 77.2932 49.2209 77.2932 48.3002C77.2932 47.3795 76.535 46.6318 75.6013 46.6318ZM81.7577 46.6318C80.8239 46.6318 80.0657 47.3795 80.0657 48.3002C80.0657 49.2209 80.8239 49.9684 81.7577 49.9684C82.6914 49.9684 83.4495 49.2209 83.4495 48.3002C83.4495 47.3795 82.6914 46.6318 81.7577 46.6318ZM87.9138 46.6318C86.9801 46.6318 86.222 47.3795 86.222 48.3002C86.222 49.2209 86.9801 49.9684 87.9138 49.9684C88.8475 49.9684 89.6057 49.2209 89.6057 48.3002C89.6057 47.3795 88.8475 46.6318 87.9138 46.6318ZM94.0701 46.6318C93.1363 46.6318 92.3782 47.3795 92.3782 48.3002C92.3782 49.2209 93.1363 49.9684 94.0701 49.9684C95.0038 49.9684 95.7619 49.2209 95.7619 48.3002C95.7619 47.3795 95.0038 46.6318 94.0701 46.6318ZM100.226 46.6318C99.2926 46.6318 98.5345 47.3795 98.5345 48.3002C98.5345 49.2209 99.2926 49.9684 100.226 49.9684C101.16 49.9684 101.918 49.2209 101.918 48.3002C101.918 47.3795 101.16 46.6318 100.226 46.6318ZM106.383 46.6318C105.449 46.6318 104.691 47.3795 104.691 48.3002C104.691 49.2209 105.449 49.9684 106.383 49.9684C107.316 49.9684 108.075 49.2209 108.075 48.3002C108.075 47.3795 107.316 46.6318 106.383 46.6318ZM63.2889 52.6999C62.3538 52.6999 61.5944 53.4485 61.5944 54.3706C61.5944 55.2927 62.3538 56.0413 63.2889 56.0413C64.224 56.0413 64.9832 55.2927 64.9832 54.3706C64.9832 53.4485 64.224 52.6999 63.2889 52.6999ZM112.539 52.6999C111.604 52.6999 110.845 53.4485 110.845 54.3706C110.845 55.2927 111.604 56.0413 112.539 56.0413C113.474 56.0413 114.233 55.2927 114.233 54.3706C114.233 53.4485 113.474 52.6999 112.539 52.6999ZM69.4451 52.7021C68.5113 52.7021 67.7529 53.4497 67.7529 54.3706C67.7529 55.2915 68.5113 56.0391 69.4451 56.0391C70.379 56.0391 71.1372 55.2915 71.1372 54.3706C71.1372 53.4497 70.379 52.7021 69.4451 52.7021ZM106.383 52.7021C105.449 52.7021 104.69 53.4497 104.69 54.3706C104.69 55.2915 105.449 56.0391 106.383 56.0391C107.316 56.0391 108.075 55.2915 108.075 54.3706C108.075 53.4497 107.316 52.7021 106.383 52.7021ZM75.6013 52.7024C74.6675 52.7024 73.9095 53.4499 73.9095 54.3706C73.9095 55.2913 74.6675 56.039 75.6013 56.039C76.535 56.039 77.2932 55.2913 77.2932 54.3706C77.2932 53.4499 76.535 52.7024 75.6013 52.7024ZM81.7577 52.7024C80.8239 52.7024 80.0657 53.4499 80.0657 54.3706C80.0657 55.2913 80.8239 56.039 81.7577 56.039C82.6914 56.039 83.4495 55.2913 83.4495 54.3706C83.4495 53.4499 82.6914 52.7024 81.7577 52.7024ZM87.9138 52.7024C86.9801 52.7024 86.222 53.4499 86.222 54.3706C86.222 55.2913 86.9801 56.039 87.9138 56.039C88.8475 56.039 89.6057 55.2913 89.6057 54.3706C89.6057 53.4499 88.8475 52.7024 87.9138 52.7024ZM94.0701 52.7024C93.1363 52.7024 92.3782 53.4499 92.3782 54.3706C92.3782 55.2913 93.1363 56.039 94.0701 56.039C95.0038 56.039 95.7619 55.2913 95.7619 54.3706C95.7619 53.4499 95.0038 52.7024 94.0701 52.7024ZM100.226 52.7024C99.2926 52.7024 98.5345 53.4499 98.5345 54.3706C98.5345 55.2913 99.2926 56.039 100.226 56.039C101.16 56.039 101.918 55.2913 101.918 54.3706C101.918 53.4499 101.16 52.7024 100.226 52.7024ZM69.4451 58.7702C68.51 58.7702 67.7507 59.5189 67.7507 60.441C67.7507 61.3631 68.51 62.1118 69.4451 62.1118C70.3803 62.1118 71.1395 61.3631 71.1395 60.441C71.1395 59.5189 70.3803 58.7702 69.4451 58.7702ZM106.383 58.7702C105.447 58.7702 104.688 59.5189 104.688 60.441C104.688 61.3631 105.447 62.1118 106.383 62.1118C107.318 62.1118 108.077 61.3631 108.077 60.441C108.077 59.5189 107.318 58.7702 106.383 58.7702ZM75.6013 58.7725C74.6674 58.7725 73.9093 59.5202 73.9093 60.441C73.9093 61.3618 74.6674 62.1094 75.6013 62.1094C76.5351 62.1094 77.2934 61.3618 77.2934 60.441C77.2934 59.5202 76.5351 58.7725 75.6013 58.7725ZM100.226 58.7725C99.2925 58.7725 98.5344 59.5202 98.5344 60.441C98.5344 61.3618 99.2925 62.1094 100.226 62.1094C101.16 62.1094 101.918 61.3618 101.918 60.441C101.918 59.5202 101.16 58.7725 100.226 58.7725ZM81.7577 58.7726C80.8239 58.7726 80.0657 59.5203 80.0657 60.441C80.0657 61.3617 80.8239 62.1092 81.7577 62.1092C82.6914 62.1092 83.4495 61.3617 83.4495 60.441C83.4495 59.5203 82.6914 58.7726 81.7577 58.7726ZM87.9138 58.7726C86.9801 58.7726 86.222 59.5203 86.222 60.441C86.222 61.3617 86.9801 62.1092 87.9138 62.1092C88.8475 62.1092 89.6057 61.3617 89.6057 60.441C89.6057 59.5203 88.8475 58.7726 87.9138 58.7726ZM94.0701 58.7726C93.1363 58.7726 92.3782 59.5203 92.3782 60.441C92.3782 61.3617 93.1363 62.1092 94.0701 62.1092C95.0038 62.1092 95.7619 61.3617 95.7619 60.441C95.7619 59.5203 95.0038 58.7726 94.0701 58.7726ZM81.7612 64.8425C80.8279 64.8425 80.0702 65.5896 80.0702 66.5099C80.0702 67.4301 80.8279 68.1773 81.7612 68.1773C82.6944 68.1773 83.4522 67.4301 83.4522 66.5099C83.4522 65.5896 82.6944 64.8425 81.7612 64.8425ZM87.9138 64.8432C86.9801 64.8432 86.222 65.5907 86.222 66.5114C86.222 67.4321 86.9801 68.1796 87.9138 68.1796C88.8475 68.1796 89.6057 67.4321 89.6057 66.5114C89.6057 65.5907 88.8475 64.8432 87.9138 64.8432ZM94.0701 64.8432C93.1363 64.8432 92.3782 65.5907 92.3782 66.5114C92.3782 67.4321 93.1363 68.1796 94.0701 68.1796C95.0038 68.1796 95.7619 67.4321 95.7619 66.5114C95.7619 65.5907 95.0038 64.8432 94.0701 64.8432Z" fill="#F90000"/>
<path d="M127.294 76.6894C127.246 76.6893 127.196 76.6904 127.147 76.6913H127.137C125.9 76.7249 124.613 77.1546 123.87 77.818C123.693 77.976 123.541 78.1554 123.415 78.3451C123.103 78.8159 122.939 79.3588 122.939 79.9045C122.939 79.9596 122.941 80.0147 122.944 80.0698C122.983 80.7865 123.29 81.4761 123.87 81.9937C124.568 82.6168 125.56 82.9917 126.651 83.0973C127.695 83.1983 128.767 83.0337 129.501 82.6245C130.226 82.22 130.728 81.5396 130.9 80.7921C130.904 80.7773 130.906 80.7604 130.91 80.7454L130.061 80.7455C129.925 81.1894 129.47 81.6977 129.037 81.9015C128.636 82.0906 128.118 82.291 127.292 82.2798C127.278 82.2796 127.159 82.2762 127.113 82.2733C126.973 82.2649 126.835 82.2481 126.7 82.2192C126.22 82.1167 125.781 81.9042 125.453 81.5837C125.015 81.1563 124.785 80.5494 124.785 79.9047C124.785 79.2582 125.015 78.6527 125.453 78.221C125.896 77.7841 126.551 77.5595 127.237 77.5473H127.271H127.363C128.122 77.5586 128.564 77.6575 129.131 77.9407C129.489 78.1193 129.993 78.6339 130.099 79.1581H130.884V77.0425H130.068V77.2695C130.068 77.3088 130.048 77.3526 130.008 77.375C129.97 77.3956 129.915 77.3985 129.843 77.362C129.49 77.1833 128.557 76.6913 127.294 76.6894ZM48.3056 76.6986C47.5871 76.695 46.7686 76.837 46.0795 77.1398C45.4382 77.4215 44.9099 77.877 44.9099 78.6347C44.9099 79.3131 45.3497 79.7121 45.3359 79.699C45.5252 79.8681 45.8253 80.1595 46.6104 80.3268C46.9599 80.4012 47.7082 80.5156 48.458 80.5988C49.1968 80.6808 49.9293 80.7482 50.2274 80.8201C50.4655 80.8775 50.8572 80.9622 50.8572 81.3986C50.8572 81.8387 50.4407 81.9695 50.3668 81.9985C50.2925 82.0276 49.794 82.2526 48.8908 82.2526C48.2251 82.2526 47.4274 82.0563 47.1349 81.9581C46.7991 81.8455 46.4503 81.679 46.1208 81.2819C46.0395 81.1839 45.9132 80.9145 45.9132 80.6482H45.0918V82.8991H45.9992V82.5946C45.9992 82.5646 46.0465 82.419 46.1948 82.489C46.3825 82.5777 46.9389 82.7898 47.5235 82.9103C47.9979 83.0081 48.3056 83.0776 48.896 83.0776C49.8635 83.0776 50.3824 82.9234 50.7392 82.8225C51.0831 82.7253 51.5004 82.5525 51.8349 82.288C52.0177 82.1436 52.4198 81.7751 52.4198 81.1042C52.4198 80.4585 52.0727 80.0577 51.9464 79.9381C51.7743 79.7753 51.5756 79.6438 51.361 79.5448C51.1728 79.458 50.8798 79.3542 50.64 79.2981C50.1688 79.1879 49.115 79.0421 48.6132 78.9926C48.0837 78.9403 47.1635 78.8609 46.7996 78.7497C46.6872 78.7153 46.458 78.6076 46.458 78.3497C46.458 78.1666 46.5658 78.0077 46.7686 77.8788C47.0885 77.6754 47.754 77.5564 48.4351 77.5564C49.2477 77.5564 49.9321 77.732 50.3668 77.9245C50.5184 77.9916 50.6887 78.0863 50.8278 78.1975C50.9845 78.3228 51.2001 78.5824 51.28 78.944H52.0137V76.9845H51.1974V77.2116C51.1974 77.2873 51.1204 77.3798 50.9723 77.3042C50.605 77.1165 49.5747 76.7051 48.3056 76.6986ZM58.1195 76.6986C56.8382 76.6986 55.4724 77.135 54.6984 77.8274C54.0825 78.3785 53.7661 79.1468 53.7661 79.9139C53.7661 80.6894 54.0738 81.4454 54.6984 82.0032C55.5294 82.7452 56.778 83.1383 58.1195 83.1383C59.4684 83.1383 60.7419 82.746 61.5492 82.0032C62.1491 81.4513 62.468 80.6585 62.468 79.9139C62.468 79.143 62.1685 78.3862 61.5492 77.8311C60.6818 77.0537 59.5466 76.6986 58.1195 76.6986ZM112.003 76.6986C111.285 76.695 110.467 76.837 109.778 77.1398C109.136 77.4217 108.607 77.877 108.607 78.6347C108.607 79.313 109.047 79.6971 109.034 79.683C109.223 79.854 109.523 80.125 110.309 80.2913C110.658 80.3653 111.414 80.4689 112.164 80.5511C112.902 80.6322 113.627 80.7258 113.925 80.7968C114.164 80.8535 114.555 80.9622 114.555 81.3986C114.555 81.8387 114.139 81.9685 114.066 81.9985C113.991 82.0292 113.492 82.2526 112.589 82.2526C111.923 82.2526 111.125 82.0564 110.833 81.9573C110.497 81.8439 110.147 81.679 109.819 81.2819C109.737 81.1831 109.611 80.9136 109.611 80.6482H108.79V82.8991H109.697V82.5946C109.697 82.5646 109.745 82.419 109.892 82.489C110.08 82.5791 110.636 82.7898 111.222 82.9103C111.697 83.008 112.003 83.0767 112.594 83.0767C113.562 83.0767 114.08 82.9225 114.437 82.8225C114.782 82.7259 115.198 82.5525 115.533 82.288C115.716 82.1442 116.117 81.7751 116.117 81.1042C116.117 80.4585 115.77 80.0839 115.644 79.9643C115.473 79.8016 115.274 79.6803 115.059 79.5812C114.87 79.4944 114.596 79.4112 114.358 79.356C113.885 79.247 112.812 79.0971 112.311 79.0476C111.781 78.9953 110.864 78.8936 110.5 78.7824C110.387 78.7478 110.157 78.6076 110.157 78.3497C110.157 78.1665 110.264 78.0077 110.467 77.8788C110.787 77.6753 111.452 77.5564 112.133 77.5564C112.946 77.5564 113.629 77.732 114.066 77.9245C114.214 77.9965 114.387 78.0863 114.526 78.1975C114.682 78.3221 114.898 78.5824 114.977 78.944H115.711V76.9846H114.896V77.2116C114.896 77.2873 114.819 77.3798 114.669 77.3042C114.302 77.1187 113.272 76.7052 112.003 76.6986ZM117.684 77.0612V77.777H118.455C118.784 77.777 118.766 78.0295 118.766 78.0295L118.756 81.8141C118.756 81.8141 118.774 82.0666 118.444 82.0666H117.673V82.7814H121.718V82.0666H120.91C120.58 82.0666 120.598 81.8124 120.598 81.8124L120.588 78.0295C120.588 78.0295 120.569 77.777 120.899 77.777H121.709V77.0612H117.684ZM73.1112 77.0629V77.7739H73.8229C74.1327 77.7739 74.3317 77.968 74.4496 78.0925C74.5434 78.1916 76.5777 80.4702 76.6276 80.5331C76.6773 80.5957 76.6774 80.6059 76.6774 80.634V81.7993C76.6774 82.0851 76.3722 82.0664 76.3722 82.0664H75.5949V82.7812H79.5708V82.0645H78.7425C78.7425 82.0645 78.4499 82.0846 78.4499 81.8124V80.6582C78.4499 80.6582 78.4468 80.5626 78.4783 80.5268C78.5333 80.4641 80.5939 78.15 80.6848 78.0469C80.8833 77.8217 80.9913 77.7741 81.2571 77.7741H81.9881V77.0632H78.7123V77.7741H79.2031C79.349 77.7741 79.3888 77.919 79.3258 77.9965L77.9387 79.5959H77.8944L76.5394 77.9964C76.4404 77.8768 76.5206 77.7739 76.6276 77.7739H77.109V77.0629H73.1112ZM90.0634 77.063L86.3215 77.0631V77.7759H86.9552C87.413 77.7759 87.4453 78.0272 87.4453 78.2459V81.5919C87.4453 81.7946 87.4586 82.0665 87.1648 82.0665H86.3792V82.7813H89.5318V82.0665H88.9131C88.588 82.0665 88.57 81.9226 88.5643 81.6059L88.5663 77.9637H88.5947L90.7997 82.7832H92.0419L94.228 77.9637H94.2573L94.2839 81.6059C94.2773 81.9226 94.2602 82.0665 93.9361 82.0665H93.3164V82.7813H97.137V82.0665H96.3516C96.0588 82.0665 96.0711 81.7946 96.0711 81.5919L96.0521 78.2459C96.0521 78.0272 96.0834 77.7759 96.542 77.7759H97.1759V77.0631L93.5022 77.063L91.7805 80.8023L90.0634 77.063ZM63.362 77.0631V77.7759H63.9963C64.4535 77.7759 64.4863 78.0272 64.4863 78.2459V81.5919C64.4863 81.7946 64.4995 82.0665 64.2057 82.0665H63.4198V82.7813H66.7691V82.0665H65.9526C65.628 82.0665 65.6106 81.9226 65.6049 81.6059V78.7411L70.1978 82.7813H71.3653L71.3032 78.2179C71.3117 77.8872 71.3306 77.774 71.6769 77.774H72.41V77.0631H69.0016V77.774H69.752C70.0921 77.774 70.1528 77.9086 70.1556 78.2179L70.1978 80.6062L66.2127 77.0631H63.362ZM98.2885 77.0631V77.774H98.9944C99.3355 77.774 99.3961 77.9086 99.3989 78.2179H99.3999V80.9798C99.3999 82.8149 101.33 83.1392 102.987 83.1392C104.676 83.1392 106.311 82.7982 106.311 81.0369L106.298 78.0535C106.316 77.8489 106.382 77.774 106.663 77.774H107.397V77.0631H104.021V77.774H104.692C105.019 77.774 105.087 77.8992 105.095 78.1833L105.092 81.0621C105.092 81.7265 104.847 82.4525 102.987 82.4525C101.246 82.4525 101.32 81.2686 101.32 81.0686V78.1797C101.329 77.8788 101.361 77.774 101.693 77.774H102.407V77.0631H98.2885ZM58.1195 77.5367C58.8236 77.5367 59.502 77.79 59.9563 78.2301C60.4002 78.66 60.6287 79.2606 60.6287 79.9138C60.6287 80.5893 60.4159 81.1397 59.9563 81.5919C59.497 82.0439 58.8377 82.288 58.1195 82.288C57.4147 82.288 56.7389 82.0404 56.2807 81.5919C55.8433 81.1638 55.6119 80.5575 55.6119 79.9138C55.6119 79.2672 55.8431 78.6608 56.2807 78.2301C56.7352 77.7826 57.4147 77.5367 58.1195 77.5367Z" fill="black"/>
</g>
<defs>
<clipPath id="clip0_2063_28591">
<rect width="86" height="79" fill="white" transform="translate(44.9099 4.13916)"/>
</clipPath>
</defs>
</svg>
