<svg width="24" height="24" viewBox="0 0 24 24" fill="none" xmlns="http://www.w3.org/2000/svg">
<path d="M1 18.1756L6.42081 5H7.9266L13.3098 18.1756H10.9758L6.75961 7.50336H7.55015L3.29632 18.1756H1ZM3.67276 15.6346V13.7524H10.6558V15.6346H3.67276Z" fill="black"/>
<path d="M18.1627 18.3638C17.347 18.3638 16.6067 18.1568 15.9416 17.7427C15.2891 17.3286 14.7684 16.7702 14.3794 16.0675C14.003 15.3522 13.8147 14.5554 13.8147 13.6771C13.8147 12.7861 14.003 11.9893 14.3794 11.2866C14.7684 10.5714 15.2891 10.0067 15.9416 9.59263C16.6067 9.166 17.347 8.95268 18.1627 8.95268C18.8528 8.95268 19.4614 9.10326 19.9884 9.40441C20.528 9.69302 20.9546 10.0946 21.2684 10.609C21.5821 11.1235 21.7389 11.707 21.7389 12.3595V14.957C21.7389 15.6095 21.5821 16.193 21.2684 16.7075C20.9672 17.2219 20.5468 17.6297 20.0073 17.9309C19.4677 18.2195 18.8528 18.3638 18.1627 18.3638ZM18.5015 16.4063C19.2669 16.4063 19.8818 16.1491 20.3461 15.6346C20.8229 15.1201 21.0613 14.4613 21.0613 13.6582C21.0613 13.1187 20.9546 12.6418 20.7413 12.2278C20.528 11.8137 20.2269 11.4937 19.8379 11.2678C19.4614 11.0294 19.016 10.9102 18.5015 10.9102C17.9995 10.9102 17.5541 11.0294 17.1651 11.2678C16.7887 11.4937 16.4875 11.8137 16.2616 12.2278C16.0483 12.6418 15.9416 13.1187 15.9416 13.6582C15.9416 14.1978 16.0483 14.6746 16.2616 15.0887C16.4875 15.5028 16.7887 15.8291 17.1651 16.0675C17.5541 16.2934 17.9995 16.4063 18.5015 16.4063ZM20.9295 18.1756V15.7475L21.2872 13.5453L20.9295 11.3619V9.1409H23V18.1756H20.9295Z" fill="black"/>
<path d="M0.810798 18.0977L0.694597 18.3802H1H3.29632H3.43501L3.48637 18.2513L4.44783 15.8392H9.8328L10.7855 18.2508L10.8367 18.3802H10.9758H13.3098H13.6144L13.4992 18.0982L8.11599 4.92262L8.06401 4.79541H7.9266H6.42081H6.28376L6.23161 4.92216L0.810798 18.0977ZM7.15228 9.05411L8.92755 13.5478H5.36116L7.15228 9.05411ZM15.832 17.9154L15.8335 17.9164C16.5324 18.3515 17.3105 18.5684 18.1627 18.5684C18.8821 18.5684 19.5309 18.4177 20.1038 18.1113L20.1038 18.1113L20.107 18.1095C20.3322 17.9838 20.5383 17.8402 20.725 17.6786V18.1756V18.3802H20.9295H23H23.2046V18.1756V9.1409V8.93631H23H20.9295H20.725V9.1409V9.65817C20.532 9.49396 20.3194 9.34964 20.0874 9.22535C19.526 8.90518 18.8824 8.74809 18.1627 8.74809C17.3094 8.74809 16.5306 8.97185 15.8316 9.42016C15.1483 9.85387 14.6043 10.4449 14.1997 11.1889L14.1991 11.19C13.8049 11.9258 13.6101 12.7565 13.6101 13.6771C13.6101 14.5857 13.8051 15.4157 14.1984 16.1628L14.1983 16.1628L14.2004 16.1666C14.6053 16.898 15.1494 17.4822 15.832 17.9154ZM20.196 15.4955L20.1942 15.4975C19.773 15.9642 19.2158 16.2017 18.5015 16.2017C18.0329 16.2017 17.6247 16.097 17.2712 15.8925C16.9281 15.6744 16.6518 15.3761 16.4424 14.9929C16.2469 14.6126 16.1462 14.1694 16.1462 13.6582C16.1462 13.147 16.2469 12.7039 16.4424 12.3236C16.652 11.9401 16.9281 11.6486 17.2704 11.4433L17.272 11.4423C17.6257 11.2255 18.0334 11.1148 18.5015 11.1148C18.9833 11.1148 19.3895 11.226 19.7284 11.4407L19.7283 11.4408L19.7351 11.4447C20.0891 11.6503 20.3634 11.9408 20.5595 12.3214C20.7556 12.7023 20.8567 13.1461 20.8567 13.6582C20.8567 14.4178 20.6327 15.0244 20.196 15.4955Z" stroke="black" stroke-opacity="0.2" stroke-width="0.40918"/>
</svg>
