<svg width="24" height="24" viewBox="0 0 24 24" fill="none" xmlns="http://www.w3.org/2000/svg">
<path d="M0 4C0 1.79086 1.79086 0 4 0H20C22.2091 0 24 1.79086 24 4V20C24 22.2091 22.2091 24 20 24H4C1.79086 24 0 22.2091 0 20V4Z" fill="#F7F8F8"/>
<path d="M17.8333 4.5H6.16667C5.24619 4.5 4.5 5.24619 4.5 6.16667V17.8333C4.5 18.7538 5.24619 19.5 6.16667 19.5H17.8333C18.7538 19.5 19.5 18.7538 19.5 17.8333V6.16667C19.5 5.24619 18.7538 4.5 17.8333 4.5Z" stroke="#5B616E" stroke-width="1.66667" stroke-linecap="round" stroke-linejoin="round"/>
<path d="M9.08325 10.3333C9.77361 10.3333 10.3333 9.7737 10.3333 9.08334C10.3333 8.39299 9.77361 7.83334 9.08325 7.83334C8.3929 7.83334 7.83325 8.39299 7.83325 9.08334C7.83325 9.7737 8.3929 10.3333 9.08325 10.3333Z" stroke="#5B616E" stroke-width="1.66667" stroke-linecap="round" stroke-linejoin="round"/>
<path d="M19.5001 14.5L15.3334 10.3333L6.16675 19.5" stroke="#5B616E" stroke-width="1.66667" stroke-linecap="round" stroke-linejoin="round"/>
</svg>
