<svg width="176" height="88" viewBox="0 0 176 88" fill="none" xmlns="http://www.w3.org/2000/svg">
<path d="M66.863 46.2433C67.0648 46.7712 67.3439 47.2227 67.7015 47.5975C68.0585 47.9724 68.4816 48.2594 68.9706 48.4583C69.4596 48.6573 69.9914 48.7567 70.5659 48.7567C71.1253 48.7567 71.6489 48.6534 72.1386 48.4467C72.6276 48.2401 73.0544 47.9494 73.4196 47.5745C73.7842 47.1997 74.0677 46.7521 74.2695 46.2318C74.4712 45.7115 74.5724 45.1301 74.5724 44.4873V34.5714H77.0182V50.6388H74.5957V49.1469C74.052 49.713 73.4115 50.1491 72.6741 50.4552C71.9362 50.7612 71.1404 50.9143 70.2868 50.9143C69.4169 50.9143 68.606 50.765 67.8524 50.4667C67.0993 50.1683 66.4475 49.7437 65.8963 49.1927C65.345 48.6419 64.91 47.9801 64.592 47.2073C64.2733 46.4346 64.1143 45.5738 64.1143 44.625V34.5714H66.56V44.4873C66.56 45.1301 66.6606 45.7153 66.863 46.2433Z" fill="white"/>
<path d="M81.2335 34.5714V40.4245C81.7772 39.8889 82.4064 39.4643 83.1204 39.1506C83.8345 38.8369 84.6114 38.6801 85.4499 38.6801C86.3192 38.6801 87.1345 38.8407 87.8951 39.1621C88.6563 39.4834 89.3163 39.9196 89.8751 40.4704C90.4339 41.0214 90.877 41.6717 91.2026 42.4215C91.5288 43.1713 91.6916 43.967 91.6916 44.8087C91.6916 45.6502 91.5288 46.4422 91.2026 47.1843C90.877 47.9265 90.4339 48.573 89.8751 49.1238C89.3163 49.6747 88.6563 50.1109 87.8951 50.4322C87.1345 50.7535 86.3192 50.9142 85.4499 50.9142C84.6114 50.9142 83.8307 50.7574 83.1085 50.4437C82.3869 50.13 81.7539 49.7053 81.2102 49.1697V50.6388H78.8813V34.5714H81.2335ZM81.5019 46.3924C81.7112 46.8822 82.0022 47.3106 82.3749 47.6779C82.7477 48.0452 83.1827 48.3359 83.6792 48.5501C84.1764 48.7644 84.712 48.8715 85.2865 48.8715C85.8459 48.8715 86.3733 48.7644 86.8705 48.5501C87.3671 48.3359 87.7983 48.0452 88.1635 47.6779C88.528 47.3107 88.8191 46.8822 89.0366 46.3924C89.254 45.9028 89.3628 45.3749 89.3628 44.8087C89.3628 44.2425 89.254 43.7107 89.0366 43.2134C88.8191 42.7161 88.528 42.2838 88.1635 41.9165C87.7983 41.5493 87.3677 41.2624 86.8705 41.0558C86.3733 40.8492 85.8453 40.7459 85.2865 40.7459C84.7277 40.7459 84.1997 40.8492 83.7025 41.0558C83.2059 41.2624 82.7709 41.5493 82.3982 41.9165C82.0255 42.2838 81.7307 42.7161 81.5132 43.2134C81.2957 43.7107 81.1869 44.2425 81.1869 44.8087C81.1869 45.3749 81.2919 45.9028 81.5019 46.3924Z" fill="white"/>
<path d="M93.0192 42.4444C93.3298 41.71 93.7572 41.0635 94.3003 40.5049C94.844 39.9464 95.4883 39.5064 96.2337 39.1851C96.9792 38.8638 97.7863 38.7031 98.6563 38.7031C99.5099 38.7031 100.302 38.8561 101.032 39.1622C101.761 39.4682 102.391 39.8929 102.919 40.4361C103.447 40.9793 103.858 41.622 104.153 42.3642C104.448 43.1063 104.596 43.9135 104.596 44.7858V45.5433H94.9295C95.0068 46.0176 95.162 46.4576 95.3952 46.8631C95.6278 47.2685 95.9195 47.6205 96.2683 47.9189C96.6178 48.2173 97.0138 48.4507 97.4563 48.619C97.8988 48.7873 98.369 48.8715 98.8656 48.8715C100.279 48.8715 101.42 48.2976 102.289 47.1499L103.99 48.3894C103.4 49.1698 102.67 49.7819 101.8 50.2257C100.931 50.6694 99.9524 50.8914 98.8656 50.8914C97.9805 50.8914 97.154 50.7383 96.3852 50.4323C95.6165 50.1263 94.949 49.6977 94.382 49.1468C93.815 48.5959 93.3687 47.9494 93.0425 47.2073C92.7169 46.4652 92.5535 45.6579 92.5535 44.7857C92.5535 43.9594 92.7087 43.179 93.0192 42.4444ZM96.2916 41.5378C95.6322 42.081 95.1935 42.8041 94.976 43.7069H102.22C102.018 42.8041 101.587 42.081 100.927 41.5378C100.267 40.9946 99.4948 40.723 98.6097 40.723C97.7241 40.723 96.9516 40.9946 96.2916 41.5378Z" fill="white"/>
<path d="M108.997 41.8018C108.501 42.3373 108.252 43.0642 108.252 43.9823V50.6389H105.9V38.9326H108.229V40.3787C108.524 39.9043 108.908 39.5294 109.382 39.254C109.856 38.9785 110.418 38.8408 111.071 38.8408H111.886V40.9984H110.908C110.131 40.9984 109.495 41.2662 108.997 41.8018Z" fill="white"/>
</svg>
