<svg width="176" height="88" viewBox="0 0 176 88" fill="none" xmlns="http://www.w3.org/2000/svg">
<g clip-path="url(#clip0_2063_28595)">
<path fill-rule="evenodd" clip-rule="evenodd" d="M107.342 42.0305C104.774 49.9331 97.5576 56.0817 88.41 56.0817C78.7103 56.0817 72.1887 50.0159 69.5708 42.202C72.2945 49.4814 79.707 54.7005 88.4245 54.7005C97.2089 54.7005 104.67 49.399 107.342 42.0305ZM69.5271 29.9711C72.1067 22.0887 78.2101 16 88.41 16C97.8907 16 104.858 22.172 107.384 30.1436C104.748 22.7144 97.2539 17.3536 88.4243 17.3536C79.661 17.3536 72.2161 22.6311 69.5271 29.9711Z" fill="black"/>
<path fill-rule="evenodd" clip-rule="evenodd" d="M88.8113 28.0243C88.9339 27.8445 89.3011 27.9643 89.5616 27.9705C89.9141 27.9775 89.83 28.4898 90.3131 28.3877C90.7959 28.2864 90.8024 28.8419 91.4915 28.8223C92.1847 28.8008 91.3538 29.0608 91.3538 29.0608C91.3538 29.0608 90.9263 28.8569 90.6482 28.9928C90.5031 29.0645 90.7031 28.9525 90.4596 28.7536C90.0796 28.4469 90.1297 28.8118 89.492 28.276C89.044 27.8989 88.6124 28.321 88.8113 28.0243ZM92.2787 42.0132C92.5537 42.123 92.8959 42.3947 93.0544 42.8075C93.4279 43.7864 92.8728 42.9929 92.8728 44.469C92.8728 45.8281 92.4847 45.6077 92.4847 45.6077C92.4847 45.6077 92.4006 47.2138 91.5625 48.2001C91.0275 48.7311 91.4429 49.1708 91.4429 49.1708C91.4429 49.1708 91.2613 49.2698 90.9994 50.4349C90.9155 50.8125 91.403 51.394 91.828 51.2489C92.1442 51.1406 91.0553 51.0367 92.2358 50.5436C92.6913 50.3531 92.3188 49.9954 92.3188 49.9954C92.3188 49.9954 93.0835 49.9387 93.5151 48.7961C94.2754 48.9054 93.9927 48.4451 95.5594 48.1112C95.9737 48.0225 96.0611 47.8997 96.0101 47.5139C95.958 47.1299 96.5207 47.5703 98.0726 46.0064C99.2964 44.7715 98.8554 44.4936 99.7005 44.0449C100.594 43.5746 100.676 44.0869 100.975 43.7017C101.66 42.8255 101.418 42.8795 101.702 42.3215L101.904 42.0116L92.2787 42.0132ZM83.6726 29.0245C83.4185 28.4043 83.4355 27.3995 83.9789 26.4703C84.321 25.8899 85.2281 25.6328 86.0202 25.9384C86.9094 25.2455 87.121 25.991 87.9081 25.654C88.9417 25.2109 88.3626 26.8274 89.3644 27.2368C89.7781 26.1467 88.4208 25.328 89.2719 24.8134C89.8795 24.4478 90.3372 24.2207 90.5857 23.7292C90.9408 23.0305 91.0799 22.52 91.3519 22.4272C91.9831 22.2153 91.8471 21.6227 91.8471 21.6227C91.8471 21.6227 92.5173 21.8176 93.04 21.3332C92.6414 21.1216 92.0598 20.9379 92.2127 20.5156C92.3918 20.0166 93.7436 21.031 94.1422 20.2125C93.34 19.8659 92.5193 19.1145 92.0287 18.9414C91.6911 19.3036 91.4817 19.1579 91.0475 18.8176C90.3133 18.2438 90.2512 18.7908 89.7923 18.3944C89.4253 19.123 89.9769 19.0651 90.1478 19.2475C90.6195 19.7579 89.6697 18.7888 89.7612 20.0912C89.7852 20.4298 89.2801 20.4914 88.904 19.7579C88.708 19.3762 87.1477 19.4574 86.9121 19.092C87.1271 18.6671 88.9635 17.1535 91.7842 17.5164C87.6873 15.9263 82.1516 17.6647 82.0964 18.2689C81.5448 18.611 81.7346 19.0007 81.4596 19.092C80.9835 19.2494 80.4624 20.6899 80.4624 20.6899C80.4624 20.6899 80.7593 20.8857 79.8332 21.9105C79.0703 22.7542 78.844 24.0336 78.844 24.0336C78.844 24.0336 79.3485 24.9451 79.2531 25.9959C79.181 26.7967 79.147 26.2031 79.4998 26.7839C79.7048 27.1237 79.9291 28.3103 80.0656 27.8476C80.3267 26.9635 79.5909 26.147 79.7125 25.2684C79.7395 25.3778 79.9953 24.9207 79.9854 25.3346C79.9571 26.4194 81.3372 28.5097 81.3372 28.5097C81.3372 28.5097 80.8222 29.0255 81.3594 29.0255L83.6726 29.0245Z" fill="black"/>
<path d="M54.3147 31.931H51.2034L51.6677 32.478V36.5148C51.6677 37.4236 51.0599 37.8063 50.152 37.8063C49.2447 37.8063 48.6355 37.4236 48.6355 36.5148V32.478L49.1007 31.931H45.99L46.4543 32.478V36.5806C46.4543 38.5952 47.5955 39.3717 50.152 39.3717C52.709 39.3717 53.85 38.5952 53.85 36.5806V32.478L54.3147 31.931Z" fill="black"/>
<path d="M65.1121 31.931H62.487L62.9541 32.478V36.1544L59.19 31.931H56.8306L57.2968 32.478V38.682L56.8306 39.229H59.4537L58.9896 38.682V34.9415L62.9868 39.229H64.6469V32.478L65.1121 31.931Z" fill="black"/>
<path d="M71.1574 39.229L70.6923 38.682V32.478L71.1574 31.931H68.0244L68.4894 32.478V38.682L68.0244 39.229H71.1574Z" fill="black"/>
<path d="M81.4884 31.931H78.8531L79.3182 32.478L77.4592 36.4942L75.6652 32.478L76.1309 31.931H73.03L76.4731 39.229H78.0119L81.4884 31.931Z" fill="black"/>
<path d="M90.2852 39.229V37.2492L89.7315 37.7089H85.9566V36.3067H88.3472L88.8908 36.7676V34.3923L88.3472 34.8526H85.9566V33.4513H89.7315L90.2852 33.9114V31.931H83.3337L83.7988 32.478V38.682L83.3337 39.229H90.2852Z" fill="black"/>
<path fill-rule="evenodd" clip-rule="evenodd" d="M100.868 39.229L98.8664 36.3511C99.85 35.9564 100.535 35.202 100.535 34.1413C100.535 32.9257 99.7835 31.931 97.6796 31.931H93.0754L93.5415 32.478V38.682L93.0754 39.229H96.1642L95.7001 38.682V36.614H96.6282L98.0435 38.682L97.5803 39.229H100.868ZM98.3237 34.294C98.3237 34.8195 97.8137 35.2466 97.1044 35.2466H95.7002V33.4513H97.3705C97.8566 33.4513 98.3237 33.6936 98.3237 34.294Z" fill="black"/>
<path d="M110.22 37.0961C110.22 35.9359 109.279 35.2904 107.917 34.8527C107.032 34.58 105.781 34.3833 105.781 33.8025C105.781 33.5176 106.123 33.3201 106.722 33.3201C107.52 33.3201 108.825 33.6488 109.842 34.1301V31.6915L109.257 32.2486C108.637 31.9966 107.563 31.7344 106.822 31.7344C104.311 31.7344 103.5 32.8284 103.5 33.8249C103.5 35.181 104.408 35.7724 105.837 36.2648C106.898 36.6252 107.884 36.6583 107.884 37.2587C107.884 37.7747 107.276 37.8403 106.966 37.8403C106.18 37.8403 104.785 37.5659 103.545 36.7679V39.4697L104.132 38.835C104.708 39.0549 106.003 39.4258 107.065 39.4258C109.245 39.4257 110.22 38.4739 110.22 37.0961Z" fill="black"/>
<path fill-rule="evenodd" clip-rule="evenodd" d="M121.262 39.229L117.631 31.931H115.141L115.405 32.478L112.117 39.229H114.83L114.365 38.682L114.73 37.9167H118.25L118.604 38.682L118.138 39.229H121.262ZM117.708 36.6036H115.261L116.48 33.9885L117.708 36.6036Z" fill="black"/>
<path d="M130.01 39.229V37.2492L129.455 37.7089H125.903V32.478L126.367 31.931H123.278L123.743 32.478V38.682L123.278 39.229H130.01Z" fill="black"/>
<path d="M128.039 32.9429C128.039 33.4539 128.456 33.8657 128.97 33.8657C129.489 33.8657 129.906 33.4539 129.906 32.9429C129.906 32.4325 129.489 32.0194 128.97 32.0194C128.456 32.0193 128.039 32.4324 128.039 32.9429ZM127.941 32.9429C127.941 32.3803 128.402 31.9238 128.97 31.9238C129.542 31.9238 130.003 32.3803 130.003 32.9429C130.003 33.5059 129.542 33.9631 128.97 33.9631C128.402 33.9631 127.941 33.5059 127.941 32.9429Z" fill="black"/>
<path fill-rule="evenodd" clip-rule="evenodd" d="M129.36 32.5446C129.257 32.4592 129.137 32.4202 129.003 32.4202C128.7 32.4202 128.474 32.6525 128.474 32.9456C128.474 33.2416 128.696 33.4773 129 33.4773C129.139 33.4773 129.271 33.4276 129.374 33.3371V33.2021C129.279 33.3132 129.142 33.3844 128.996 33.3844C128.753 33.3844 128.575 33.1756 128.575 32.9455C128.575 32.715 128.755 32.5113 128.998 32.5113C129.144 32.5113 129.262 32.5695 129.36 32.6755L129.36 32.5446Z" fill="black"/>
<path d="M19.7464 65.9015L19.4255 66.2701V69.0448C19.4255 69.3894 19.3745 69.6809 19.2725 69.9197C19.1705 70.1578 19.0175 70.3515 18.8137 70.4995C18.6096 70.648 18.3482 70.7574 18.03 70.8286C17.7115 70.8994 17.3262 70.9349 16.8733 70.9349C16.4229 70.9349 16.0393 70.8994 15.722 70.8286C15.405 70.7575 15.1432 70.648 14.9365 70.4995C14.7299 70.3515 14.5759 70.1574 14.4739 69.9177C14.3719 69.6779 14.3209 69.3876 14.3209 69.0448V66.2701L14 65.9015H16.1493L15.8284 66.2701V69.0018C15.8284 69.2956 15.9209 69.5148 16.1062 69.6594C16.2915 69.804 16.5472 69.8761 16.8731 69.8761C17.199 69.8761 17.4554 69.8048 17.6418 69.6615C17.8283 69.5179 17.9217 69.2984 17.9217 69.0019V66.2702L17.601 65.9016L19.7464 65.9015Z" fill="#010101"/>
<path d="M27.9856 65.9015L27.6646 66.2701V70.8377H26.5154L23.7577 67.936V70.469L24.0787 70.8375H22.2688L22.5898 70.469V66.2701L22.2688 65.9015H23.8959L26.493 68.7595V66.2701L26.172 65.9015H27.9856Z" fill="#010101"/>
<path d="M32.9337 70.8377H30.7732L31.0941 70.4691V66.2702L30.7732 65.9016H32.9337L32.613 66.2702V70.4691L32.9337 70.8377Z" fill="#010101"/>
<path d="M40.8745 65.9015L38.4752 70.8377H37.4117L35.0347 65.9015H37.1767L36.8557 66.2701L38.0947 68.9872L39.3783 66.2701L39.0575 65.9015H40.8745Z" fill="#010101"/>
<path d="M47.7366 70.8377H42.9377L43.2588 70.4691V66.2702L42.9377 65.9016H47.7366V67.2423L47.3523 66.9313H44.7476V67.8784H46.3971L46.7739 67.5672V69.172L46.3971 68.8609H44.7476V69.8079H47.3523L47.7366 69.497V70.8377Z" fill="#010101"/>
<path d="M55.8266 70.8377H53.5578L53.8788 70.4691L52.9011 69.0706H52.2592V70.4691L52.5802 70.8377H50.4495L50.7702 70.4691V66.2702L50.4495 65.9016H53.6286C54.3154 65.9016 54.8152 66.0391 55.1288 66.3134C55.4421 66.5883 55.5988 66.9493 55.5988 67.3973C55.5988 67.7418 55.4955 68.042 55.2891 68.2973C55.0828 68.5526 54.8014 68.7503 54.4459 68.8901L55.8266 70.8377ZM54.0692 67.4985C54.0692 67.3686 54.0388 67.2613 53.9778 67.177C53.9167 67.0928 53.8364 67.0306 53.7373 66.9909C53.6378 66.9512 53.5295 66.9313 53.4124 66.9313H52.2594V68.1457H53.2296C53.4709 68.1457 53.6711 68.0829 53.8305 67.9575C53.9895 67.8321 54.0692 67.679 54.0692 67.4985Z" fill="#010101"/>
<path d="M63.0658 69.3956C63.0658 69.6343 63.023 69.8486 62.9371 70.039C62.8512 70.2292 62.7182 70.3943 62.538 70.5342C62.3575 70.6736 62.1312 70.7815 61.8589 70.8572C61.5863 70.9335 61.2638 70.9712 60.8904 70.9712C60.6641 70.9712 60.4208 70.9496 60.1609 70.9064C59.9008 70.8627 59.6498 70.8077 59.4072 70.7398C59.1647 70.6727 58.9837 70.616 58.8642 70.5703L58.4575 71.0002V69.172C58.8456 69.4177 59.2579 69.5998 59.6945 69.7193C60.1311 69.8387 60.506 69.8983 60.8196 69.8983C60.9811 69.8983 61.1275 69.8712 61.2578 69.8171C61.3887 69.7629 61.4539 69.6586 61.4539 69.5041C61.4539 69.3813 61.3967 69.2875 61.2821 69.2223C61.1679 69.1575 60.9568 69.0849 60.6497 69.004C60.3423 68.9232 60.1391 68.8661 60.0395 68.8321C59.4971 68.6495 59.0929 68.4352 58.8268 68.191C58.5605 67.9463 58.4275 67.6097 58.4275 67.1807C58.4275 66.9374 58.5015 66.7093 58.6495 66.4961C58.7975 66.2829 59.0451 66.1084 59.3922 65.972C59.7392 65.8361 60.1825 65.7679 60.7224 65.7679C60.8467 65.7679 60.9798 65.7769 61.1217 65.795C61.2635 65.813 61.4201 65.8401 61.5917 65.8762C61.7633 65.9123 61.9151 65.9504 62.0468 65.9902C62.1788 66.0304 62.2968 66.0714 62.4014 66.1151L62.8083 65.7395V67.3907C62.5669 67.2799 62.3137 67.1831 62.0489 67.0998C61.7838 67.0164 61.5296 66.9528 61.2857 66.9082C61.0418 66.8635 60.8306 66.8415 60.6512 66.8415C60.4496 66.8415 60.2911 66.8715 60.1757 66.9318C60.0599 66.9919 60.0022 67.0703 60.0022 67.1664C60.0022 67.2582 60.0457 67.3374 60.1327 67.4051C60.2198 67.4724 60.3311 67.5312 60.4668 67.5803C60.6023 67.6299 60.7788 67.6841 60.9966 67.7428C61.2142 67.8019 61.374 67.8472 61.476 67.8788C61.9859 68.0397 62.3785 68.2404 62.6533 68.4801C62.9282 68.7199 63.0658 69.0249 63.0658 69.3956Z" fill="#010101"/>
<path d="M71.4803 70.8377H69.3235L69.6444 70.4691L69.4018 69.949H66.9687L66.7187 70.4691L67.0397 70.8377H65.1665L67.4353 66.2701L67.2523 65.9015H68.9728L71.4803 70.8377ZM69.0252 69.0595L68.178 67.2924L67.3386 69.0595H69.0252Z" fill="#010101"/>
<path d="M78.3052 70.8377H73.6597L73.9805 70.4691V66.2702L73.6597 65.9016H75.7904L75.4694 66.2702V69.8079H77.921L78.3054 69.497V70.8377H78.3052Z" fill="#010101"/>
<path d="M91.0823 70.8377H88.9962L89.3171 70.4691V68.0985L87.9663 70.8377H87.2537L85.7275 68.0553V70.4691L86.0483 70.8377H84.2834L84.6043 70.4691V66.2702L84.2834 65.9016H86.0784L87.735 68.9228L89.25 65.9016H91.0823L90.7614 66.2702V70.4691L91.0823 70.8377Z" fill="#010101"/>
<path d="M99.351 65.9015L99.0303 66.2701V69.0448C99.0303 69.3894 98.9792 69.6809 98.8772 69.9197C98.7753 70.1578 98.6221 70.3515 98.4183 70.4995C98.2142 70.648 97.9528 70.7574 97.6346 70.8286C97.3161 70.8994 96.9307 70.9349 96.4779 70.9349C96.0275 70.9349 95.6439 70.8994 95.3267 70.8286C95.0096 70.7575 94.7477 70.648 94.5411 70.4995C94.3345 70.3515 94.1806 70.1574 94.0786 69.9177C93.9767 69.6779 93.9256 69.3876 93.9256 69.0448V66.2701L93.6047 65.9015H95.754L95.4331 66.2701V69.0018C95.4331 69.2956 95.5256 69.5148 95.7109 69.6594C95.8962 69.804 96.152 69.8761 96.4779 69.8761C96.8038 69.8761 97.0601 69.8048 97.2466 69.6615C97.4331 69.5179 97.5264 69.2984 97.5264 69.0019V66.2702L97.2056 65.9016L99.351 65.9015Z" fill="#010101"/>
<path d="M106.434 69.3956C106.434 69.6343 106.391 69.8486 106.305 70.039C106.219 70.2292 106.086 70.3943 105.906 70.5342C105.725 70.6736 105.499 70.7815 105.226 70.8572C104.954 70.9335 104.631 70.9712 104.258 70.9712C104.032 70.9712 103.789 70.9496 103.528 70.9064C103.269 70.8627 103.017 70.8077 102.775 70.7398C102.532 70.6727 102.351 70.616 102.232 70.5703L101.825 71.0002V69.172C102.213 69.4177 102.625 69.5998 103.062 69.7193C103.499 69.8387 103.874 69.8983 104.187 69.8983C104.349 69.8983 104.495 69.8712 104.626 69.8171C104.756 69.7629 104.821 69.6586 104.821 69.5041C104.821 69.3813 104.764 69.2875 104.65 69.2223C104.535 69.1575 104.325 69.0849 104.017 69.004C103.71 68.9232 103.507 68.8661 103.407 68.8321C102.865 68.6495 102.461 68.4352 102.195 68.191C101.928 67.9463 101.795 67.6097 101.795 67.1807C101.795 66.9374 101.87 66.7093 102.018 66.4961C102.166 66.2829 102.413 66.1084 102.76 65.972C103.107 65.8361 103.55 65.7679 104.09 65.7679C104.215 65.7679 104.348 65.7769 104.49 65.795C104.631 65.813 104.788 65.8401 104.96 65.8762C105.131 65.9123 105.283 65.9504 105.415 65.9902C105.547 66.0304 105.665 66.0714 105.77 66.1151L106.176 65.7395V67.3907C105.935 67.2799 105.682 67.1831 105.417 67.0998C105.152 67.0164 104.898 66.9528 104.654 66.9082C104.41 66.8635 104.199 66.8415 104.02 66.8415C103.818 66.8415 103.659 66.8715 103.544 66.9318C103.428 66.9919 103.37 67.0703 103.37 67.1664C103.37 67.2582 103.414 67.3374 103.501 67.4051C103.588 67.4724 103.699 67.5312 103.835 67.5803C103.97 67.6299 104.147 67.6841 104.365 67.7428C104.583 67.8019 104.742 67.8472 104.844 67.8788C105.354 68.0397 105.746 68.2404 106.021 68.4801C106.296 68.7193 106.434 69.0249 106.434 69.3956Z" fill="#010101"/>
<path d="M111.307 70.8377H109.146L109.467 70.4691V66.2702L109.146 65.9016H111.307L110.986 66.2702V70.4691L111.307 70.8377Z" fill="#010101"/>
<path d="M118.781 70.4835C118.687 70.5362 118.566 70.5894 118.419 70.6425C118.273 70.6951 118.111 70.7429 117.934 70.785C117.758 70.827 117.567 70.8626 117.362 70.8919C117.156 70.9204 116.962 70.9349 116.778 70.9349C116.38 70.9349 116.004 70.8858 115.653 70.7871C115.301 70.6882 114.987 70.5343 114.712 70.3246C114.438 70.115 114.222 69.8451 114.065 69.515C113.908 69.185 113.83 68.8017 113.83 68.3659C113.83 68.0047 113.895 67.6672 114.028 67.3543C114.159 67.0412 114.355 66.7684 114.613 66.5356C114.872 66.3033 115.189 66.1233 115.563 65.9953C115.938 65.868 116.363 65.8037 116.841 65.8037C117.03 65.8037 117.223 65.8167 117.419 65.8418C117.616 65.8669 117.797 65.8991 117.962 65.9377C118.128 65.9763 118.282 66.021 118.423 66.071L118.774 65.7461V67.3904C118.585 67.2769 118.394 67.1827 118.201 67.1064C118.008 67.0307 117.805 66.9725 117.591 66.9314C117.377 66.8903 117.155 66.8701 116.923 66.8701C116.418 66.8701 116.042 67.0101 115.796 67.291C115.55 67.5714 115.427 67.9301 115.427 68.3659C115.427 68.6623 115.49 68.9242 115.617 69.1519C115.744 69.3796 115.926 69.5562 116.162 69.6811C116.398 69.8065 116.668 69.8691 116.972 69.8691C117.253 69.8691 117.51 69.8402 117.742 69.7825C117.975 69.7247 118.168 69.6581 118.321 69.5818C118.474 69.5059 118.627 69.4211 118.781 69.3269L118.781 70.4835Z" fill="#010101"/>
<path d="M128.734 68.767L128.405 68.3873H130.222V70.3641C130.115 70.4291 129.975 70.4961 129.801 70.5648C129.626 70.6335 129.431 70.6961 129.215 70.7524C128.998 70.8091 128.779 70.8538 128.558 70.8863C128.337 70.919 128.12 70.9348 127.909 70.9348C127.374 70.9348 126.876 70.8447 126.416 70.6641C125.956 70.4834 125.588 70.2001 125.312 69.8149C125.035 69.4295 124.897 68.9465 124.897 68.3657C124.897 67.7854 125.043 67.3022 125.334 66.9164C125.625 66.5312 126.001 66.2494 126.463 66.0708C126.924 65.8928 127.406 65.8034 127.909 65.8034C128.267 65.8034 128.563 65.8306 128.797 65.8848C129.031 65.9394 129.294 66.0157 129.588 66.1144L129.995 65.7458V67.4407C129.669 67.2622 129.344 67.1226 129.021 67.0215C128.697 66.9202 128.352 66.87 127.983 66.87C127.749 66.87 127.54 66.9052 127.356 66.9764C127.172 67.0477 127.016 67.1495 126.888 67.2819C126.76 67.4145 126.663 67.5714 126.595 67.7535C126.528 67.9356 126.494 68.1397 126.494 68.366C126.494 68.8214 126.627 69.1855 126.892 69.4589C127.157 69.7328 127.521 69.8692 127.983 69.8692C128.172 69.8692 128.422 69.8416 128.734 69.7859V68.767Z" fill="#010101"/>
<path d="M138.085 70.8377H135.816L136.137 70.4691L135.159 69.0706H134.517V70.4691L134.838 70.8377H132.708L133.028 70.4691V66.2702L132.708 65.9016H135.887C136.574 65.9016 137.073 66.0391 137.387 66.3134C137.7 66.5883 137.857 66.9493 137.857 67.3973C137.857 67.7418 137.754 68.042 137.547 68.2973C137.341 68.5526 137.06 68.7503 136.704 68.8901L138.085 70.8377ZM136.327 67.4985C136.327 67.3686 136.297 67.2613 136.236 67.177C136.175 67.0928 136.094 67.0306 135.995 66.9909C135.896 66.9512 135.787 66.9313 135.67 66.9313H134.517V68.1457H135.488C135.729 68.1457 135.929 68.0829 136.089 67.9575C136.247 67.8321 136.327 67.679 136.327 67.4985Z" fill="#010101"/>
<path d="M146.35 68.3657C146.35 68.9586 146.21 69.4498 145.932 69.84C145.653 70.2303 145.292 70.5151 144.848 70.6947C144.404 70.8743 143.926 70.964 143.413 70.964C142.903 70.964 142.425 70.8737 141.978 70.6932C141.532 70.512 141.168 70.2262 140.887 69.835C140.606 69.4432 140.465 68.9535 140.465 68.3659C140.465 67.9155 140.548 67.5242 140.713 67.1917C140.879 66.859 141.103 66.5886 141.385 66.38C141.667 66.1719 141.981 66.0187 142.327 65.9211C142.673 65.8237 143.035 65.7751 143.413 65.7751C143.796 65.7751 144.161 65.8243 144.507 65.9231C144.852 66.0219 145.164 66.1743 145.441 66.38C145.719 66.5862 145.939 66.8561 146.104 67.1896C146.268 67.5232 146.35 67.9153 146.35 68.3657ZM144.753 68.3657C144.753 67.8862 144.645 67.5125 144.43 67.2435C144.215 66.9751 143.876 66.8408 143.413 66.8408C143.107 66.8408 142.853 66.903 142.652 67.0269C142.45 67.1507 142.303 67.3269 142.21 67.5546C142.116 67.7823 142.07 68.0526 142.07 68.3657C142.07 68.5924 142.095 68.8006 142.146 68.9906C142.197 69.1812 142.278 69.3438 142.389 69.4787C142.5 69.6136 142.64 69.7169 142.811 69.7898C142.981 69.862 143.182 69.898 143.413 69.898C143.647 69.898 143.849 69.862 144.02 69.7898C144.19 69.7171 144.329 69.6136 144.438 69.4787C144.546 69.3438 144.625 69.1843 144.676 68.9997C144.727 68.8158 144.753 68.6045 144.753 68.3657Z" fill="#010101"/>
<path d="M154.328 65.9015L154.007 66.2701V69.0448C154.007 69.3894 153.956 69.6809 153.854 69.9197C153.752 70.1578 153.599 70.3515 153.395 70.4995C153.191 70.648 152.929 70.7574 152.611 70.8286C152.293 70.8994 151.907 70.9349 151.454 70.9349C151.004 70.9349 150.62 70.8994 150.303 70.8286C149.986 70.7575 149.724 70.648 149.518 70.4995C149.311 70.3515 149.157 70.1574 149.055 69.9177C148.953 69.6779 148.902 69.3876 148.902 69.0448V66.2701L148.581 65.9015H150.73L150.409 66.2701V69.0018C150.409 69.2956 150.502 69.5148 150.688 69.6594C150.873 69.804 151.128 69.8761 151.454 69.8761C151.78 69.8761 152.037 69.8048 152.223 69.6615C152.41 69.5179 152.503 69.2984 152.503 69.0019V66.2702L152.182 65.9016L154.328 65.9015Z" fill="#010101"/>
<path d="M162 67.5382C162 68.2464 161.773 68.7344 161.319 69.0018C160.865 69.2691 160.274 69.403 159.548 69.403H158.66V70.469L158.981 70.8375H156.85L157.171 70.469V66.2701L156.85 65.9015H159.593C159.993 65.9015 160.373 65.9472 160.731 66.0389C161.09 66.1302 161.39 66.2977 161.634 66.5411C161.878 66.7843 162 67.1168 162 67.5382ZM160.448 67.6249C160.448 67.3672 160.367 67.187 160.207 67.0847C160.047 66.9824 159.816 66.9312 159.515 66.9312H158.66V68.4235H159.38C159.746 68.4235 160.015 68.3657 160.188 68.2504C160.361 68.1346 160.448 67.9263 160.448 67.6249Z" fill="#010101"/>
</g>
<defs>
<clipPath id="clip0_2063_28595">
<rect width="148" height="55" fill="white" transform="translate(14 16)"/>
</clipPath>
</defs>
</svg>
