<svg width="176" height="88" viewBox="0 0 176 88" fill="none" xmlns="http://www.w3.org/2000/svg">
<path fill-rule="evenodd" clip-rule="evenodd" d="M43.0077 74.9005C27.1495 74.9005 18.9177 71.4038 13.9809 63.1628C11.2024 58.4259 10.2177 49.9109 10.2177 44.4484C10.2177 38.9859 11.2024 30.4839 13.9809 25.7358C18.9177 17.4948 27.1495 14 43.0077 14C58.8659 14 67.105 17.4948 72.0326 25.7358C74.8092 30.4839 75.794 38.9859 75.794 44.4484C75.794 49.9109 74.8092 58.4167 72.0326 63.1628C67.105 71.4038 58.864 74.9005 43.0077 74.9005ZM50.9766 61.6616C49.1829 61.6616 46.584 60.8545 45.3326 57.9872L37.4507 38.9044C35.7459 34.6044 39.0649 30.5746 42.9151 30.5746C44.707 30.5746 47.304 31.3835 48.5572 34.249L56.441 53.328C58.144 57.6281 54.8287 61.6597 50.9766 61.6597V61.6616ZM35.1202 61.6616C33.3302 61.6616 30.7313 60.8545 29.4763 57.9872L21.5925 38.9044C19.8914 34.6044 23.2048 30.5746 27.0569 30.5746C28.8506 30.5746 31.4477 31.3835 32.7027 34.249L40.5846 53.328C42.2876 57.6281 38.9742 61.6597 35.1202 61.6597V61.6616ZM60.8743 47.2454C59.0825 47.2454 56.4835 46.4365 55.2304 43.5691L53.3071 38.9063C51.6041 34.6062 54.9157 30.5764 58.7678 30.5764C60.5596 30.5764 63.1585 31.3853 64.4117 34.2508L66.3405 38.9137C68.0454 43.21 64.7264 47.2435 60.8743 47.2435V47.2454Z" fill="#B7B6C3"/>
<path d="M87.7188 33.577L90.2214 23.8718L92.7241 33.577H95.9117L99.9359 18.9776H96.7002L94.4049 28.1219C94.3694 28.3094 94.3237 28.4948 94.2679 28.6772V28.7068C94.2679 28.6846 94.2568 28.6624 94.2531 28.642C94.1948 28.4533 94.1484 28.261 94.1143 28.0664L91.7634 18.9702H88.6869L86.3323 28.0867C86.2976 28.2818 86.2513 28.4747 86.1935 28.6643C86.19 28.6805 86.1857 28.6966 86.1805 28.7124C86.1783 28.698 86.1753 28.6838 86.1713 28.6698C86.1134 28.4815 86.067 28.2899 86.0325 28.096L83.7427 18.9776H80.5051L84.5312 33.577H87.7188Z" fill="#B7B6C3"/>
<path d="M101.45 33.5769L102.87 29.8655H108.073L109.493 33.5769H112.788L106.935 19.1034L106.885 18.9775H104.067L98.1643 33.5769H101.45ZM105.132 23.9328L105.471 22.9517L105.656 23.4849L107.012 27.0723H103.936L105.132 23.9328Z" fill="#B7B6C3"/>
<path d="M125.231 23.1942C125.231 20.5935 123.219 18.9775 119.979 18.9775H113.713V33.5769H116.79V27.8164H118.748L122.034 33.5769H125.551L122.073 27.4776C124.168 26.6447 125.231 25.2045 125.231 23.1942ZM122.152 23.396C122.152 24.5067 121.412 25.062 119.979 25.062H116.79V21.73H119.987C121.421 21.73 122.152 22.2909 122.152 23.396Z" fill="#B7B6C3"/>
<path d="M130.203 23.9958L130.236 24.0568C130.299 24.1763 130.369 24.2919 130.445 24.403L136.369 33.4899L136.428 33.5806H139.454V18.9775H136.461V28.5031L136.424 28.4383C136.361 28.3189 136.292 28.2033 136.215 28.0922L130.232 18.9775H127.206V33.5769H130.201L130.203 23.9958Z" fill="#B7B6C3"/>
<path d="M151.442 27.4314V24.6381H144.891V21.7708H152.01V18.9775H141.813V33.5769H152.071V30.7855H144.891V27.4314H151.442Z" fill="#B7B6C3"/>
<path d="M162.304 27.4776C164.4 26.6447 165.451 25.2045 165.451 23.1942C165.451 20.5935 163.439 18.9775 160.201 18.9775H153.945V33.5769H157.021V27.8164H158.978L162.265 33.5769H165.782L162.304 27.4776ZM162.376 23.396C162.376 24.5067 161.645 25.062 160.203 25.062H157.021V21.73H160.211C161.653 21.73 162.376 22.2909 162.376 23.396Z" fill="#B7B6C3"/>
<path d="M90.695 47.9507L86.3043 37.0071H83.15V51.6084H86.1469V44.0153L86.4542 44.9741L89.2845 51.6084H92.1037L94.9414 44.9575L95.2413 44.0153V51.6084H98.2382V37.0071H95.0839L90.695 47.9507Z" fill="#B7B6C3"/>
<path d="M100.436 37.0071V46.0329C100.436 49.5926 102.8 51.8916 106.457 51.8916C110.115 51.8916 112.479 49.5926 112.479 46.0329V37.0071H109.402V45.7682C109.402 47.8322 108.329 49.0169 106.457 49.0169C104.586 49.0169 103.512 47.8322 103.512 45.7682V37.0071H100.436Z" fill="#B7B6C3"/>
<path d="M120.029 49.1391C118.115 49.1391 117.036 48.1155 116.634 45.9146L116.586 45.6517L113.858 47.04L113.891 47.1899C114.52 50.1776 116.766 51.8917 120.05 51.8917C123.657 51.8917 125.544 49.5982 125.544 47.3306C125.544 44.8742 124.063 43.4693 120.74 42.7733C118.389 42.2901 117.471 41.7256 117.471 40.7574C117.471 39.7893 118.643 39.4765 119.646 39.4765C121.208 39.4765 122.271 40.2762 122.804 41.857L122.882 42.0865L125.355 40.6649L125.297 40.5075C124.385 37.9956 122.506 36.7239 119.714 36.7239C116.61 36.7239 114.531 38.3695 114.531 40.8185C114.531 43.0972 116.21 44.7206 119.133 45.2741C121.577 45.772 122.484 46.357 122.484 47.4324C122.467 48.469 121.51 49.1391 120.029 49.1391Z" fill="#B7B6C3"/>
<path d="M130.308 37.0071H127.232V51.6065H130.308V37.0071Z" fill="#B7B6C3"/>
<path d="M145.73 47.9896L145.835 47.8286L143.405 46.083L143.297 46.2829C142.322 48.097 140.934 49.017 139.173 49.017C136.643 49.017 134.808 47.0363 134.808 44.3078C134.808 41.5793 136.643 39.5987 139.173 39.5987C140.987 39.5987 142.246 40.452 143.131 42.2846L143.234 42.4993L145.73 40.7019L145.663 40.5538C144.588 38.1474 142.192 36.7239 139.255 36.7239C134.871 36.7239 131.689 39.9133 131.689 44.3134C131.689 48.7782 134.758 51.9028 139.153 51.9028C142.477 51.8917 144.082 50.4664 145.73 47.9896Z" fill="#B7B6C3"/>
<path d="M88.237 64.2403H92.7759C92.5667 65.2361 91.8151 67.0465 89.12 67.0465C86.6451 67.0465 84.918 65.1103 84.918 62.3374C84.918 59.5644 86.7691 57.506 89.3236 57.506C91.1543 57.506 92.5593 58.3594 93.3849 59.9735L93.4922 60.1808L95.8264 58.4834L95.7487 58.3316C94.6066 56.0918 92.2205 54.7535 89.3625 54.7535C85.0513 54.7535 81.799 58.0132 81.799 62.3429C81.799 66.6726 84.9125 69.9323 89.0385 69.9323C90.847 69.9323 92.3057 69.2511 93.2849 67.9572L93.7791 69.6491H95.8931V61.6506H88.237V64.2403Z" fill="#B7B6C3"/>
<path d="M109.435 59.2534C109.435 56.6526 107.423 55.0366 104.184 55.0366H97.9125V69.6379H100.991V63.8755H102.957L106.242 69.6379H109.759L106.276 63.5294C108.367 62.7038 109.435 61.2655 109.435 59.2534ZM106.359 59.457C106.359 60.5676 105.619 61.123 104.184 61.123H100.991V57.791H104.178C105.62 57.7892 106.353 58.3501 106.353 59.457H106.359Z" fill="#B7B6C3"/>
<path d="M117.93 54.7535C113.652 54.7535 110.428 58.0132 110.428 62.3429C110.428 66.6726 113.652 69.9323 117.93 69.9323C122.208 69.9323 125.432 66.6726 125.432 62.3429C125.432 58.0132 122.208 54.7535 117.93 54.7535ZM122.315 62.3429C122.315 65.1602 120.553 67.0521 117.93 67.0521C115.307 67.0521 113.545 65.1602 113.545 62.3429C113.545 59.5256 115.307 57.6338 117.93 57.6338C120.553 57.6338 122.315 59.52 122.315 62.3374V62.3429Z" fill="#B7B6C3"/>
<path d="M136.01 63.7941C136.01 65.8599 134.936 67.0427 133.065 67.0427C131.193 67.0427 130.12 65.8599 130.12 63.7941V55.0366H127.043V64.0625C127.043 67.6203 129.405 69.9212 133.065 69.9212C136.724 69.9212 139.086 67.6203 139.086 64.0625V55.0366H136.01V63.7941Z" fill="#B7B6C3"/>
<path d="M147.938 55.0366H141.283V69.6379H144.36V64.6881H147.938C151.34 64.6881 153.452 62.8371 153.452 59.8624C153.452 56.8877 151.337 55.0366 147.938 55.0366ZM150.376 59.8624C150.376 61.1915 149.504 61.8986 147.857 61.8986H144.36V57.8262H147.853C149.5 57.8299 150.372 58.5333 150.372 59.8624H150.376Z" fill="#B7B6C3"/>
</svg>
