<svg width="176" height="88" viewBox="0 0 176 88" fill="none" xmlns="http://www.w3.org/2000/svg">
<path d="M41.7137 67.0225H46.2971C47.0516 67.0225 47.6742 67.1339 48.1642 67.3577C49.0943 67.7868 49.5595 68.5796 49.5595 69.735C49.5595 70.338 49.4348 70.8312 49.1849 71.2146C48.9355 71.5985 48.5866 71.906 48.1382 72.1395C48.532 72.2995 48.8281 72.509 49.0271 72.7697C49.2261 73.0299 49.3369 73.4527 49.3596 74.0373L49.4075 75.3866C49.4213 75.7701 49.4532 76.0559 49.5036 76.2428C49.5863 76.5629 49.7325 76.7682 49.9428 76.8596V77.0855H48.2679C48.2222 76.9991 48.1856 76.8868 48.1579 76.7502C48.1306 76.6128 48.1076 76.3479 48.0891 75.9557L48.0068 74.2766C47.9757 73.6195 47.7376 73.1791 47.2934 72.9545C47.0398 72.8317 46.6422 72.7701 46.0993 72.7701H43.0783V77.0859H41.7137V67.0225ZM46.1501 71.6324C46.7732 71.6324 47.2661 71.5046 47.6285 71.2486C47.9912 70.9929 48.1726 70.532 48.1726 69.8649C48.1726 69.1479 47.919 68.6593 47.4118 68.3986C47.1402 68.262 46.7778 68.1937 46.3239 68.1937H43.0796V71.6324H46.1501Z" fill="white"/>
<path d="M51.8313 67.0246H59.1484V68.2574H53.1627V71.3119H58.6949V72.4768H53.1627V75.8883H59.2509V77.0872H51.8313V67.0246Z" fill="white"/>
<path d="M68.2076 67.7558C68.9046 68.4271 69.2909 69.1898 69.3681 70.0438H68.0367C67.8881 69.3956 67.5929 68.8818 67.1504 68.503C66.7078 68.1233 66.086 67.9343 65.2866 67.9343C64.3112 67.9343 63.5235 68.2826 62.9239 68.9794C62.3244 69.6767 62.0242 70.7453 62.0242 72.1847C62.0242 73.3635 62.295 74.3206 62.8366 75.0544C63.3782 75.7881 64.1861 76.1548 65.2605 76.1548C66.2497 76.1548 67.0026 75.7693 67.5194 74.997C67.7936 74.5901 67.9981 74.0562 68.1329 73.3933H69.4643C69.3467 74.4535 68.9575 75.3414 68.297 76.0584C67.5056 76.9217 66.4383 77.3537 65.0947 77.3537C63.9367 77.3537 62.9643 76.9996 62.177 76.2906C61.1412 75.354 60.623 73.9074 60.623 71.9517C60.623 70.4666 61.0123 69.2485 61.7899 68.2981C62.6309 67.2647 63.7914 66.7493 65.2702 66.7493C66.5323 66.7493 67.5115 67.0849 68.2076 67.7558Z" fill="white"/>
<path d="M79.5357 68.464C80.2041 69.3545 80.5379 70.4939 80.5379 71.8822C80.5379 73.3849 80.1559 74.6345 79.3917 75.6297C78.4948 76.7989 77.2159 77.3838 75.5549 77.3838C74.0035 77.3838 72.7842 76.8718 71.8966 75.8493C71.1051 74.8629 70.7087 73.6153 70.7087 72.1085C70.7087 70.7478 71.0476 69.5833 71.7248 68.6149C72.5944 67.3728 73.88 66.7518 75.5822 66.7518C77.362 66.7518 78.68 67.3225 79.5357 68.464ZM78.3311 74.8784C78.869 74.0172 79.1377 73.0266 79.1377 71.9061C79.1377 70.7227 78.8278 69.7693 78.2077 69.0477C77.5875 68.3253 76.7402 67.9641 75.6649 67.9641C74.6215 67.9641 73.7704 68.3219 73.1112 69.0373C72.4525 69.753 72.1229 70.8077 72.1229 72.2015C72.1229 73.317 72.4054 74.2573 72.9706 75.0229C73.5357 75.7885 74.4523 76.1711 75.7195 76.1711C76.9228 76.1711 77.7932 75.7403 78.3311 74.8784Z" fill="white"/>
<path d="M82.3279 67.0225H86.9113C87.6662 67.0225 88.2884 67.1339 88.778 67.3577C89.7084 67.7868 90.1728 68.5796 90.1728 69.735C90.1728 70.338 90.0481 70.8312 89.7991 71.2146C89.5497 71.5985 89.2008 71.906 88.7524 72.1395C89.1462 72.2995 89.4422 72.509 89.6417 72.7697C89.8403 73.0299 89.9511 73.4527 89.9742 74.0373L90.0225 75.3866C90.0355 75.7701 90.0679 76.0559 90.1182 76.2428C90.2001 76.5629 90.3471 76.7682 90.5574 76.8596V77.0855H88.883C88.8372 76.9991 88.8007 76.8868 88.773 76.7502C88.7457 76.6128 88.723 76.3479 88.7045 75.9557L88.6222 74.2766C88.5907 73.6195 88.3531 73.1791 87.9085 72.9545C87.6549 72.8317 87.2568 72.7701 86.7143 72.7701H83.6934V77.0859H82.3275V67.0225H82.3279ZM86.7643 71.6324C87.3874 71.6324 87.8799 71.5046 88.2431 71.2486C88.6059 70.9929 88.7872 70.532 88.7872 69.8649C88.7872 69.1479 88.5332 68.6593 88.026 68.3986C87.7544 68.262 87.392 68.1937 86.9381 68.1937H83.6938V71.6324H86.7643Z" fill="white"/>
<path d="M92.3754 67.0225H96.4061C97.7741 67.0225 98.8355 67.5127 99.5896 68.495C100.263 69.3809 100.599 70.5156 100.599 71.8998C100.599 72.9687 100.4 73.9342 100.003 74.7975C99.3024 76.3228 98.0991 77.0855 96.3919 77.0855H92.3754V67.0225ZM96.1383 75.9209C96.5896 75.9209 96.9612 75.8736 97.2522 75.7768C97.7699 75.5991 98.1956 75.2563 98.5265 74.7497C98.7914 74.3436 98.9808 73.8228 99.0971 73.1879C99.1647 72.8087 99.1979 72.4571 99.1979 72.1319C99.1979 70.8857 98.9548 69.9172 98.4702 69.2271C97.984 68.5382 97.2018 68.1933 96.1236 68.1933H93.7551V75.9201H96.1383V75.9209Z" fill="white"/>
<path d="M102.776 67.0225H104.156V77.0855H102.776V67.0225Z" fill="white"/>
<path d="M106.374 67.0225H107.983L113.012 75.1524V67.0225H114.315V77.0855H112.782L107.679 68.9643V77.0855H106.374L106.374 67.0225Z" fill="white"/>
<path d="M123.236 67.3116C124.224 67.8367 124.828 68.7569 125.049 70.0723H123.696C123.535 69.3373 123.201 68.8017 122.695 68.4657C122.188 68.13 121.55 67.9624 120.779 67.9624C119.865 67.9624 119.095 68.3123 118.47 69.0104C117.846 69.7098 117.533 70.7507 117.533 72.134C117.533 73.3308 117.791 74.3047 118.306 75.0564C118.822 75.8078 119.662 76.1833 120.829 76.1833C121.721 76.1833 122.46 75.9193 123.046 75.3917C123.631 74.8641 123.93 74.0113 123.944 72.8334H120.786V71.7032H125.214V77.0876H124.335L124.006 75.7931C123.55 76.2993 123.148 76.6522 122.797 76.8479C122.207 77.1856 121.457 77.3553 120.549 77.3553C119.373 77.3553 118.363 76.9694 117.517 76.1971C116.594 75.2287 116.133 73.8999 116.133 72.2098C116.133 70.5249 116.583 69.1843 117.486 68.1882C118.342 67.2383 119.452 66.7635 120.815 66.7635C121.748 66.7631 122.555 66.9462 123.236 67.3116Z" fill="white"/>
<path d="M128.354 73.8404C128.385 74.4111 128.515 74.8742 128.744 75.2304C129.18 75.8979 129.95 76.2311 131.052 76.2311C131.545 76.2311 131.995 76.1581 132.4 76.0119C133.185 75.7286 133.577 75.222 133.577 74.4908C133.577 73.9426 133.411 73.5525 133.079 73.3195C132.742 73.0911 132.215 72.8929 131.496 72.7236L130.173 72.4152C129.309 72.2145 128.697 71.9932 128.338 71.7506C127.717 71.3307 127.407 70.7026 127.407 69.867C127.407 68.9627 127.712 68.2205 128.322 67.6406C128.932 67.061 129.797 66.7711 130.914 66.7711C131.942 66.7711 132.817 67.0254 133.535 67.5346C134.255 68.0437 134.615 68.8579 134.615 69.9768H133.331C133.265 69.4379 133.124 69.0247 132.909 68.7364C132.51 68.2117 131.832 67.949 130.876 67.949C130.104 67.949 129.549 68.1175 129.21 68.4556C128.872 68.7942 128.704 69.1864 128.704 69.634C128.704 70.1276 128.903 70.488 129.303 70.7168C129.564 70.8631 130.156 71.0453 131.078 71.2649L132.449 71.5868C133.109 71.7426 133.619 71.9547 133.978 72.2241C134.599 72.6947 134.909 73.3778 134.909 74.2724C134.909 75.3871 134.513 76.1841 133.721 76.6635C132.929 77.1433 132.009 77.3834 130.961 77.3834C129.738 77.3834 128.78 77.0633 128.088 76.4242C127.397 75.7894 127.057 74.9287 127.071 73.8416H128.354V73.8404Z" fill="white"/>
<path fill-rule="evenodd" clip-rule="evenodd" d="M134.921 9.96924H41.7137V61.818H134.921V9.96924ZM50.5561 17.9057H65.4868L71.323 26.8733L76.9535 17.8994H92.1528L78.507 34.8646L92.136 53.3068L77.3734 53.3488L70.6974 43.6143L64.2175 53.3488H49.2419L63.3778 34.8507L50.5561 17.9057ZM96.7211 53.2943L96.6371 17.8994H110.825V42.9564H126.41L126.448 53.3488L96.7211 53.2943Z" fill="white"/>
</svg>
