<svg width="176" height="88" viewBox="0 0 176 88" fill="none" xmlns="http://www.w3.org/2000/svg">
<path d="M129.317 48.333C130.615 48.3621 131.871 47.8753 132.813 46.9787L134.546 48.8558C133.402 50.0367 131.814 50.9143 129.346 50.9143C125.115 50.9143 122.38 48.0973 122.38 44.2891C122.363 43.4162 122.522 42.5489 122.846 41.7388C123.17 40.9287 123.654 40.1924 124.268 39.5738C124.882 38.9553 125.614 38.4671 126.42 38.1385C127.226 37.8099 128.09 37.6476 128.96 37.6612C133.161 37.6612 135.543 40.8681 135.332 45.3157H125.402C125.753 47.1629 127.049 48.3412 129.308 48.3412M132.332 43.1948C132.062 41.4695 131.036 40.1991 128.985 40.1991C127.076 40.1991 125.744 41.2825 125.402 43.1948H132.335H132.332ZM64.1143 48.1894L71.7552 40.3996H64.2953V37.9564H75.2997V40.4483L67.6594 48.2355H75.4078V50.6813H64.1143V48.1894ZM83.9853 48.3303C85.2833 48.3594 86.5398 47.8726 87.482 46.976L89.215 48.8531C88.0704 50.034 86.4826 50.9116 84.0148 50.9116C79.7845 50.9116 77.0496 48.0946 77.0496 44.2864C77.032 43.4135 77.1904 42.5462 77.5148 41.7361C77.8391 40.926 78.3225 40.1896 78.9366 39.5711C79.5507 38.9525 80.2824 38.4644 81.0888 38.1358C81.8953 37.8072 82.7589 37.6449 83.6289 37.6585C87.8303 37.6585 90.2113 40.8654 90.0007 45.3129H80.0762C80.4269 47.1602 81.7231 48.3384 83.9828 48.3384M87.0068 43.1921C86.7365 41.4667 85.7107 40.1964 83.6584 40.1964C81.7501 40.1964 80.4188 41.2798 80.0762 43.1921H87.0093H87.0068ZM106.508 44.2837C106.508 40.2208 109.54 37.6639 112.879 37.6639C113.681 37.6532 114.475 37.8186 115.206 38.1485C115.937 38.4784 116.587 38.9648 117.11 39.5735V32.0652H119.81V50.6461H117.11V48.8937C116.597 49.5274 115.948 50.0371 115.211 50.385C114.475 50.7329 113.67 50.9101 112.856 50.9035C109.615 50.9035 106.511 48.3303 106.511 44.2864M117.261 44.2593C117.24 43.4649 116.986 42.6943 116.531 42.0441C116.075 41.3939 115.438 40.8928 114.701 40.6036C113.963 40.3144 113.157 40.2498 112.382 40.4179C111.608 40.5861 110.901 40.9796 110.348 41.5491C109.796 42.1186 109.422 42.8389 109.276 43.6199C109.129 44.4009 109.216 45.2079 109.524 45.94C109.832 46.6721 110.349 47.2968 111.009 47.7359C111.669 48.175 112.444 48.4091 113.236 48.4088C115.558 48.4088 117.259 46.5507 117.259 44.2593M137.098 47.943L139.543 46.6699C139.867 47.2483 140.342 47.727 140.916 48.0545C141.491 48.3819 142.144 48.5457 142.805 48.528C144.333 48.528 145.127 47.7425 145.127 46.8487C145.127 45.8303 143.65 45.6027 142.044 45.2696C139.884 44.8091 137.635 44.0968 137.635 41.4776C137.635 39.4651 139.543 37.6043 142.549 37.6314C144.916 37.6314 146.68 38.574 147.678 40.0962L145.411 41.3421C145.098 40.8766 144.671 40.499 144.172 40.2449C143.672 39.9908 143.116 39.8688 142.557 39.8903C141.104 39.8903 140.364 40.6027 140.364 41.418C140.364 42.3335 141.536 42.5881 143.372 42.9971C145.462 43.4575 147.827 44.1428 147.827 46.7891C147.827 48.5442 146.299 50.9116 142.681 50.8872C140.035 50.8872 138.172 49.8173 137.1 47.9348M155.162 44.9906L153.021 47.3336V50.638H150.322V32.0571H153.021V44.2268L158.753 37.9158H162.042L157.074 43.36L162.171 50.6407H159.115L155.165 44.9906H155.162ZM98.3488 37.6612C95.1361 37.6612 92.4496 39.7468 92.4496 43.2138V50.6488H95.2034V43.5578C95.2034 41.4722 96.3996 40.2208 98.4431 40.2208C100.487 40.2208 101.502 41.4667 101.502 43.5578V50.6488H104.24V43.2138C104.24 39.7522 101.54 37.6612 98.3406 37.6612" fill="#939393"/>
<path d="M33.2813 57.8265V34.2366L13.8286 57.8265H33.2813Z" fill="#939393"/>
<path d="M30.4326 32.6795C32.2566 30.8474 33.2813 28.3625 33.2813 25.7714H13.8286C13.8286 28.3625 14.8534 30.8474 16.6774 32.6795C18.5015 34.5116 20.9754 35.5409 23.555 35.5409C26.1346 35.5409 28.6085 34.5116 30.4326 32.6795Z" fill="#939393"/>
<path d="M39.3348 50.9205C37.5108 52.7526 36.4861 55.2376 36.4861 57.8286H55.9388C55.9388 55.2376 54.914 52.7526 53.09 50.9205C51.2659 49.0884 48.792 48.0591 46.2124 48.0591C43.6328 48.0591 41.1589 49.0884 39.3348 50.9205Z" fill="#939393"/>
<path d="M36.4861 25.7714V49.3612L55.9429 25.7714H36.4861Z" fill="#939393"/>
</svg>
